<svg width="268" height="57" viewBox="0 0 268 57" fill="none" xmlns="http://www.w3.org/2000/svg">
<rect x="0.5" y="0.5" width="267" height="56" rx="15.5" fill="url(#paint0_linear_1302_5441)"/>
<rect x="0.5" y="0.5" width="267" height="56" rx="15.5" stroke="url(#paint1_linear_1302_5441)"/>
<rect x="0.5" y="0.5" width="267" height="56" rx="15.5" stroke="url(#paint2_linear_1302_5441)"/>
<path d="M41.68 26.58C41.3707 25.9293 40.9227 25.428 40.336 25.076C39.7493 24.7133 39.0667 24.532 38.288 24.532C37.5093 24.532 36.8053 24.7133 36.176 25.076C35.5573 25.428 35.0667 25.94 34.704 26.612C34.352 27.2733 34.176 28.0413 34.176 28.916C34.176 29.7907 34.352 30.5587 34.704 31.22C35.0667 31.8813 35.5573 32.3933 36.176 32.756C36.8053 33.108 37.5093 33.284 38.288 33.284C39.376 33.284 40.272 32.9587 40.976 32.308C41.68 31.6573 42.0907 30.7773 42.208 29.668H37.76V28.484H43.76V29.604C43.6747 30.5213 43.3867 31.364 42.896 32.132C42.4053 32.8893 41.76 33.492 40.96 33.94C40.16 34.3773 39.2693 34.596 38.288 34.596C37.2533 34.596 36.3093 34.356 35.456 33.876C34.6027 33.3853 33.9253 32.708 33.424 31.844C32.9333 30.98 32.688 30.004 32.688 28.916C32.688 27.828 32.9333 26.852 33.424 25.988C33.9253 25.1133 34.6027 24.436 35.456 23.956C36.3093 23.4653 37.2533 23.22 38.288 23.22C39.472 23.22 40.5173 23.5133 41.424 24.1C42.3413 24.6867 43.008 25.5133 43.424 26.58H41.68ZM53.6851 29.78C53.6851 30.0573 53.6691 30.3507 53.6371 30.66H46.6291C46.6825 31.524 46.9758 32.2013 47.5091 32.692C48.0531 33.172 48.7091 33.412 49.4771 33.412C50.1065 33.412 50.6291 33.268 51.0451 32.98C51.4718 32.6813 51.7705 32.2867 51.9411 31.796H53.5091C53.2745 32.6387 52.8051 33.3267 52.1011 33.86C51.3971 34.3827 50.5225 34.644 49.4771 34.644C48.6451 34.644 47.8985 34.4573 47.2371 34.084C46.5865 33.7107 46.0745 33.1827 45.7011 32.5C45.3278 31.8067 45.1411 31.0067 45.1411 30.1C45.1411 29.1933 45.3225 28.3987 45.6851 27.716C46.0478 27.0333 46.5545 26.5107 47.2051 26.148C47.8665 25.7747 48.6238 25.588 49.4771 25.588C50.3091 25.588 51.0451 25.7693 51.6851 26.132C52.3251 26.4947 52.8158 26.996 53.1571 27.636C53.5091 28.2653 53.6851 28.98 53.6851 29.78ZM52.1811 29.476C52.1811 28.9213 52.0585 28.4467 51.8131 28.052C51.5678 27.6467 51.2318 27.3427 50.8051 27.14C50.3891 26.9267 49.9251 26.82 49.4131 26.82C48.6771 26.82 48.0478 27.0547 47.5251 27.524C47.0131 27.9933 46.7198 28.644 46.6451 29.476H52.1811ZM57.383 26.932V32.1C57.383 32.5267 57.4737 32.8307 57.655 33.012C57.8363 33.1827 58.151 33.268 58.599 33.268H59.671V34.5H58.359C57.5483 34.5 56.9403 34.3133 56.535 33.94C56.1297 33.5667 55.927 32.9533 55.927 32.1V26.932H54.791V25.732H55.927V23.524H57.383V25.732H59.671V26.932H57.383ZM66.4528 24.308C66.1754 24.308 65.9408 24.212 65.7488 24.02C65.5568 23.828 65.4608 23.5933 65.4608 23.316C65.4608 23.0387 65.5568 22.804 65.7488 22.612C65.9408 22.42 66.1754 22.324 66.4528 22.324C66.7194 22.324 66.9434 22.42 67.1248 22.612C67.3168 22.804 67.4128 23.0387 67.4128 23.316C67.4128 23.5933 67.3168 23.828 67.1248 24.02C66.9434 24.212 66.7194 24.308 66.4528 24.308ZM67.1568 25.732V34.5H65.7008V25.732H67.1568ZM73.9103 25.572C74.9769 25.572 75.8409 25.8973 76.5023 26.548C77.1636 27.188 77.4943 28.116 77.4943 29.332V34.5H76.0543V29.54C76.0543 28.6653 75.8356 27.9987 75.3983 27.54C74.9609 27.0707 74.3636 26.836 73.6063 26.836C72.8383 26.836 72.2249 27.076 71.7663 27.556C71.3183 28.036 71.0943 28.7347 71.0943 29.652V34.5H69.6383V25.732H71.0943V26.98C71.3823 26.532 71.7716 26.1853 72.2623 25.94C72.7636 25.6947 73.3129 25.572 73.9103 25.572ZM85.9143 26.932V32.1C85.9143 32.5267 86.0049 32.8307 86.1863 33.012C86.3676 33.1827 86.6823 33.268 87.1302 33.268H88.2023V34.5H86.8903C86.0796 34.5 85.4716 34.3133 85.0663 33.94C84.6609 33.5667 84.4583 32.9533 84.4583 32.1V26.932H83.3223V25.732H84.4583V23.524H85.9143V25.732H88.2023V26.932H85.9143ZM93.7904 34.644C92.969 34.644 92.2224 34.4573 91.5504 34.084C90.889 33.7107 90.3664 33.1827 89.9824 32.5C89.609 31.8067 89.4224 31.0067 89.4224 30.1C89.4224 29.204 89.6144 28.4147 89.9984 27.732C90.393 27.0387 90.9264 26.5107 91.5984 26.148C92.2704 25.7747 93.0224 25.588 93.8544 25.588C94.6864 25.588 95.4384 25.7747 96.1104 26.148C96.7824 26.5107 97.3104 27.0333 97.6944 27.716C98.089 28.3987 98.2864 29.1933 98.2864 30.1C98.2864 31.0067 98.0837 31.8067 97.6784 32.5C97.2837 33.1827 96.745 33.7107 96.0624 34.084C95.3797 34.4573 94.6224 34.644 93.7904 34.644ZM93.7904 33.364C94.313 33.364 94.8037 33.2413 95.2624 32.996C95.721 32.7507 96.089 32.3827 96.3664 31.892C96.6544 31.4013 96.7984 30.804 96.7984 30.1C96.7984 29.396 96.6597 28.7987 96.3824 28.308C96.105 27.8173 95.7424 27.4547 95.2944 27.22C94.8464 26.9747 94.361 26.852 93.8384 26.852C93.305 26.852 92.8144 26.9747 92.3664 27.22C91.929 27.4547 91.577 27.8173 91.3104 28.308C91.0437 28.7987 90.9104 29.396 90.9104 30.1C90.9104 30.8147 91.0384 31.4173 91.2944 31.908C91.561 32.3987 91.913 32.7667 92.3504 33.012C92.7877 33.2467 93.2677 33.364 93.7904 33.364ZM107.977 25.732V34.5H106.521V33.204C106.243 33.652 105.854 34.004 105.353 34.26C104.862 34.5053 104.318 34.628 103.721 34.628C103.038 34.628 102.425 34.4893 101.881 34.212C101.337 33.924 100.905 33.4973 100.585 32.932C100.275 32.3667 100.121 31.6787 100.121 30.868V25.732H101.561V30.676C101.561 31.54 101.779 32.2067 102.217 32.676C102.654 33.1347 103.251 33.364 104.009 33.364C104.787 33.364 105.401 33.124 105.849 32.644C106.297 32.164 106.521 31.4653 106.521 30.548V25.732H107.977ZM109.891 30.1C109.891 29.1933 110.072 28.404 110.435 27.732C110.798 27.0493 111.299 26.5213 111.939 26.148C112.59 25.7747 113.331 25.588 114.163 25.588C115.24 25.588 116.126 25.8493 116.819 26.372C117.523 26.8947 117.987 27.62 118.211 28.548H116.643C116.494 28.0147 116.2 27.5933 115.763 27.284C115.336 26.9747 114.803 26.82 114.163 26.82C113.331 26.82 112.659 27.108 112.147 27.684C111.635 28.2493 111.379 29.0547 111.379 30.1C111.379 31.156 111.635 31.972 112.147 32.548C112.659 33.124 113.331 33.412 114.163 33.412C114.803 33.412 115.336 33.2627 115.763 32.964C116.19 32.6653 116.483 32.2387 116.643 31.684H118.211C117.976 32.58 117.507 33.3 116.803 33.844C116.099 34.3773 115.219 34.644 114.163 34.644C113.331 34.644 112.59 34.4573 111.939 34.084C111.299 33.7107 110.798 33.1827 110.435 32.5C110.072 31.8173 109.891 31.0173 109.891 30.1ZM124.506 25.572C125.167 25.572 125.765 25.716 126.298 26.004C126.831 26.2813 127.247 26.7027 127.546 27.268C127.855 27.8333 128.01 28.5213 128.01 29.332V34.5H126.57V29.54C126.57 28.6653 126.351 27.9987 125.914 27.54C125.477 27.0707 124.879 26.836 124.122 26.836C123.354 26.836 122.741 27.076 122.282 27.556C121.834 28.036 121.61 28.7347 121.61 29.652V34.5H120.154V22.66H121.61V26.98C121.898 26.532 122.293 26.1853 122.794 25.94C123.306 25.6947 123.877 25.572 124.506 25.572ZM146.334 25.732L143.598 34.5H142.094L139.982 27.54L137.87 34.5H136.366L133.614 25.732H135.102L137.118 33.092L139.294 25.732H140.782L142.91 33.108L144.894 25.732H146.334ZM148.531 24.308C148.254 24.308 148.019 24.212 147.827 24.02C147.635 23.828 147.539 23.5933 147.539 23.316C147.539 23.0387 147.635 22.804 147.827 22.612C148.019 22.42 148.254 22.324 148.531 22.324C148.798 22.324 149.022 22.42 149.203 22.612C149.395 22.804 149.491 23.0387 149.491 23.316C149.491 23.5933 149.395 23.828 149.203 24.02C149.022 24.212 148.798 24.308 148.531 24.308ZM149.235 25.732V34.5H147.779V25.732H149.235ZM153.492 26.932V32.1C153.492 32.5267 153.583 32.8307 153.764 33.012C153.946 33.1827 154.26 33.268 154.708 33.268H155.78V34.5H154.468C153.658 34.5 153.05 34.3133 152.644 33.94C152.239 33.5667 152.036 32.9533 152.036 32.1V26.932H150.9V25.732H152.036V23.524H153.492V25.732H155.78V26.932H153.492ZM161.897 25.572C162.558 25.572 163.155 25.716 163.689 26.004C164.222 26.2813 164.638 26.7027 164.937 27.268C165.246 27.8333 165.401 28.5213 165.401 29.332V34.5H163.961V29.54C163.961 28.6653 163.742 27.9987 163.305 27.54C162.867 27.0707 162.27 26.836 161.513 26.836C160.745 26.836 160.131 27.076 159.673 27.556C159.225 28.036 159.001 28.7347 159.001 29.652V34.5H157.545V22.66H159.001V26.98C159.289 26.532 159.683 26.1853 160.185 25.94C160.697 25.6947 161.267 25.572 161.897 25.572ZM180.812 34.5H179.357L173.501 25.62V34.5H172.045V23.332H173.501L179.357 32.196V23.332H180.812V34.5ZM191.743 26.58C191.433 25.9293 190.985 25.428 190.399 25.076C189.812 24.7133 189.129 24.532 188.351 24.532C187.572 24.532 186.868 24.7133 186.239 25.076C185.62 25.428 185.129 25.94 184.767 26.612C184.415 27.2733 184.239 28.0413 184.239 28.916C184.239 29.7907 184.415 30.5587 184.767 31.22C185.129 31.8813 185.62 32.3933 186.239 32.756C186.868 33.108 187.572 33.284 188.351 33.284C189.439 33.284 190.335 32.9587 191.039 32.308C191.743 31.6573 192.153 30.7773 192.271 29.668H187.823V28.484H193.823V29.604C193.737 30.5213 193.449 31.364 192.959 32.132C192.468 32.8893 191.823 33.492 191.023 33.94C190.223 34.3773 189.332 34.596 188.351 34.596C187.316 34.596 186.372 34.356 185.519 33.876C184.665 33.3853 183.988 32.708 183.487 31.844C182.996 30.98 182.751 30.004 182.751 28.916C182.751 27.828 182.996 26.852 183.487 25.988C183.988 25.1133 184.665 24.436 185.519 23.956C186.372 23.4653 187.316 23.22 188.351 23.22C189.535 23.22 190.58 23.5133 191.487 24.1C192.404 24.6867 193.071 25.5133 193.487 26.58H191.743ZM204.516 34.5H203.06L197.204 25.62V34.5H195.748V23.332H197.204L203.06 32.196V23.332H204.516V34.5Z" fill="white"/>
<path d="M233.227 22.9358L238.791 28.5L233.227 34.0641" stroke="white" stroke-width="2" stroke-miterlimit="10" stroke-linecap="round" stroke-linejoin="round"/>
<path d="M223.209 28.5H238.636" stroke="white" stroke-width="1.5" stroke-miterlimit="10" stroke-linecap="round" stroke-linejoin="round"/>
<defs>
<linearGradient id="paint0_linear_1302_5441" x1="4.9727e-07" y1="49.1379" x2="257.236" y2="-37.8698" gradientUnits="userSpaceOnUse">
<stop stop-color="#8E15BA"/>
<stop offset="1" stop-color="#5175F0"/>
</linearGradient>
<linearGradient id="paint1_linear_1302_5441" x1="18.8353" y1="57" x2="38.2467" y2="35.5718" gradientUnits="userSpaceOnUse">
<stop stop-color="white"/>
<stop offset="1" stop-color="#999999" stop-opacity="0.2"/>
</linearGradient>
<linearGradient id="paint2_linear_1302_5441" x1="239.478" y1="44" x2="269.721" y2="8.78098" gradientUnits="userSpaceOnUse">
<stop stop-color="white" stop-opacity="0"/>
<stop offset="1" stop-color="white"/>
</linearGradient>
</defs>
</svg>
