<svg width="156" height="55" viewBox="0 0 156 55" fill="none" xmlns="http://www.w3.org/2000/svg">
<path d="M0.5 27.5C0.5 12.8645 12.3645 1 27 1H129C143.636 1 155.5 12.8645 155.5 27.5C155.5 42.1355 143.636 54 129 54H27C12.3645 54 0.5 42.1355 0.5 27.5Z" fill="#292727"/>
<path d="M0.5 27.5C0.5 12.8645 12.3645 1 27 1H129C143.636 1 155.5 12.8645 155.5 27.5C155.5 42.1355 143.636 54 129 54H27C12.3645 54 0.5 42.1355 0.5 27.5Z" stroke="url(#paint0_linear_1302_5437)"/>
<path d="M0.5 27.5C0.5 12.8645 12.3645 1 27 1H129C143.636 1 155.5 12.8645 155.5 27.5C155.5 42.1355 143.636 54 129 54H27C12.3645 54 0.5 42.1355 0.5 27.5Z" stroke="url(#paint1_linear_1302_5437)"/>
<path d="M36.152 35.668C35.048 35.668 34.056 35.476 33.176 35.092C32.312 34.692 31.632 34.148 31.136 33.46C30.64 32.756 30.384 31.948 30.368 31.036H32.696C32.776 31.82 33.096 32.484 33.656 33.028C34.232 33.556 35.064 33.82 36.152 33.82C37.192 33.82 38.008 33.564 38.6 33.052C39.208 32.524 39.512 31.852 39.512 31.036C39.512 30.396 39.336 29.876 38.984 29.476C38.632 29.076 38.192 28.772 37.664 28.564C37.136 28.356 36.424 28.132 35.528 27.892C34.424 27.604 33.536 27.316 32.864 27.028C32.208 26.74 31.64 26.292 31.16 25.684C30.696 25.06 30.464 24.228 30.464 23.188C30.464 22.276 30.696 21.468 31.16 20.764C31.624 20.06 32.272 19.516 33.104 19.132C33.952 18.748 34.92 18.556 36.008 18.556C37.576 18.556 38.856 18.948 39.848 19.732C40.856 20.516 41.424 21.556 41.552 22.852H39.152C39.072 22.212 38.736 21.652 38.144 21.172C37.552 20.676 36.768 20.428 35.792 20.428C34.88 20.428 34.136 20.668 33.56 21.148C32.984 21.612 32.696 22.268 32.696 23.116C32.696 23.724 32.864 24.22 33.2 24.604C33.552 24.988 33.976 25.284 34.472 25.492C34.984 25.684 35.696 25.908 36.608 26.164C37.712 26.468 38.6 26.772 39.272 27.076C39.944 27.364 40.52 27.82 41 28.444C41.48 29.052 41.72 29.884 41.72 30.94C41.72 31.756 41.504 32.524 41.072 33.244C40.64 33.964 40 34.548 39.152 34.996C38.304 35.444 37.304 35.668 36.152 35.668ZM47.1179 24.772C47.5499 24.02 48.1899 23.396 49.0379 22.9C49.9019 22.388 50.9019 22.132 52.0379 22.132C53.2059 22.132 54.2619 22.412 55.2059 22.972C56.1659 23.532 56.9179 24.324 57.4619 25.348C58.0059 26.356 58.2779 27.532 58.2779 28.876C58.2779 30.204 58.0059 31.388 57.4619 32.428C56.9179 33.468 56.1659 34.276 55.2059 34.852C54.2619 35.428 53.2059 35.716 52.0379 35.716C50.9179 35.716 49.9259 35.468 49.0619 34.972C48.2139 34.46 47.5659 33.828 47.1179 33.076V41.74H44.9339V22.348H47.1179V24.772ZM56.0459 28.876C56.0459 27.884 55.8459 27.02 55.4459 26.284C55.0459 25.548 54.5019 24.988 53.8139 24.604C53.1419 24.22 52.3979 24.028 51.5819 24.028C50.7819 24.028 50.0379 24.228 49.3499 24.628C48.6779 25.012 48.1339 25.58 47.7179 26.332C47.3179 27.068 47.1179 27.924 47.1179 28.9C47.1179 29.892 47.3179 30.764 47.7179 31.516C48.1339 32.252 48.6779 32.82 49.3499 33.22C50.0379 33.604 50.7819 33.796 51.5819 33.796C52.3979 33.796 53.1419 33.604 53.8139 33.22C54.5019 32.82 55.0459 32.252 55.4459 31.516C55.8459 30.764 56.0459 29.884 56.0459 28.876ZM66.8887 35.716C65.6567 35.716 64.5367 35.436 63.5287 34.876C62.5367 34.316 61.7527 33.524 61.1767 32.5C60.6167 31.46 60.3367 30.26 60.3367 28.9C60.3367 27.556 60.6247 26.372 61.2007 25.348C61.7927 24.308 62.5927 23.516 63.6007 22.972C64.6087 22.412 65.7367 22.132 66.9847 22.132C68.2327 22.132 69.3607 22.412 70.3687 22.972C71.3767 23.516 72.1687 24.3 72.7447 25.324C73.3367 26.348 73.6327 27.54 73.6327 28.9C73.6327 30.26 73.3287 31.46 72.7207 32.5C72.1287 33.524 71.3207 34.316 70.2967 34.876C69.2727 35.436 68.1367 35.716 66.8887 35.716ZM66.8887 33.796C67.6727 33.796 68.4087 33.612 69.0967 33.244C69.7847 32.876 70.3367 32.324 70.7527 31.588C71.1847 30.852 71.4007 29.956 71.4007 28.9C71.4007 27.844 71.1927 26.948 70.7767 26.212C70.3607 25.476 69.8167 24.932 69.1447 24.58C68.4727 24.212 67.7447 24.028 66.9607 24.028C66.1607 24.028 65.4247 24.212 64.7527 24.58C64.0967 24.932 63.5687 25.476 63.1687 26.212C62.7687 26.948 62.5687 27.844 62.5687 28.9C62.5687 29.972 62.7607 30.876 63.1447 31.612C63.5447 32.348 64.0727 32.9 64.7287 33.268C65.3847 33.62 66.1047 33.796 66.8887 33.796ZM82.9123 22.108C84.5123 22.108 85.8083 22.596 86.8003 23.572C87.7923 24.532 88.2883 25.924 88.2883 27.748V35.5H86.1283V28.06C86.1283 26.748 85.8003 25.748 85.1443 25.06C84.4883 24.356 83.5923 24.004 82.4563 24.004C81.3043 24.004 80.3843 24.364 79.6963 25.084C79.0243 25.804 78.6883 26.852 78.6883 28.228V35.5H76.5043V22.348H78.6883V24.22C79.1203 23.548 79.7043 23.028 80.4403 22.66C81.1923 22.292 82.0163 22.108 82.9123 22.108ZM96.5118 35.716C95.5038 35.716 94.5998 35.548 93.7998 35.212C92.9998 34.86 92.3678 34.38 91.9038 33.772C91.4398 33.148 91.1838 32.436 91.1358 31.636H93.3918C93.4558 32.292 93.7598 32.828 94.3038 33.244C94.8638 33.66 95.5918 33.868 96.4878 33.868C97.3198 33.868 97.9758 33.684 98.4558 33.316C98.9358 32.948 99.1758 32.484 99.1758 31.924C99.1758 31.348 98.9198 30.924 98.4078 30.652C97.8958 30.364 97.1038 30.084 96.0318 29.812C95.0558 29.556 94.2558 29.3 93.6318 29.044C93.0238 28.772 92.4958 28.38 92.0478 27.868C91.6158 27.34 91.3998 26.652 91.3998 25.804C91.3998 25.132 91.5998 24.516 91.9998 23.956C92.3998 23.396 92.9678 22.956 93.7038 22.636C94.4398 22.3 95.2798 22.132 96.2238 22.132C97.6798 22.132 98.8558 22.5 99.7518 23.236C100.648 23.972 101.128 24.98 101.192 26.26H99.0078C98.9598 25.572 98.6798 25.02 98.1678 24.604C97.6718 24.188 96.9998 23.98 96.1518 23.98C95.3678 23.98 94.7438 24.148 94.2798 24.484C93.8158 24.82 93.5838 25.26 93.5838 25.804C93.5838 26.236 93.7198 26.596 93.9918 26.884C94.2798 27.156 94.6318 27.38 95.0478 27.556C95.4798 27.716 96.0718 27.9 96.8238 28.108C97.7678 28.364 98.5358 28.62 99.1278 28.876C99.7198 29.116 100.224 29.484 100.64 29.98C101.072 30.476 101.296 31.124 101.312 31.924C101.312 32.644 101.112 33.292 100.712 33.868C100.312 34.444 99.7438 34.9 99.0078 35.236C98.2878 35.556 97.4558 35.716 96.5118 35.716ZM110.131 35.716C108.899 35.716 107.779 35.436 106.771 34.876C105.779 34.316 104.995 33.524 104.419 32.5C103.859 31.46 103.579 30.26 103.579 28.9C103.579 27.556 103.867 26.372 104.443 25.348C105.035 24.308 105.835 23.516 106.843 22.972C107.851 22.412 108.979 22.132 110.227 22.132C111.475 22.132 112.603 22.412 113.611 22.972C114.619 23.516 115.411 24.3 115.987 25.324C116.579 26.348 116.875 27.54 116.875 28.9C116.875 30.26 116.571 31.46 115.963 32.5C115.371 33.524 114.563 34.316 113.539 34.876C112.515 35.436 111.379 35.716 110.131 35.716ZM110.131 33.796C110.915 33.796 111.651 33.612 112.339 33.244C113.027 32.876 113.579 32.324 113.995 31.588C114.427 30.852 114.643 29.956 114.643 28.9C114.643 27.844 114.435 26.948 114.019 26.212C113.603 25.476 113.059 24.932 112.387 24.58C111.715 24.212 110.987 24.028 110.203 24.028C109.403 24.028 108.667 24.212 107.995 24.58C107.339 24.932 106.811 25.476 106.411 26.212C106.011 26.948 105.811 27.844 105.811 28.9C105.811 29.972 106.003 30.876 106.387 31.612C106.787 32.348 107.315 32.9 107.971 33.268C108.627 33.62 109.347 33.796 110.131 33.796ZM121.93 24.484C122.314 23.732 122.858 23.148 123.562 22.732C124.282 22.316 125.154 22.108 126.178 22.108V24.364H125.602C123.154 24.364 121.93 25.692 121.93 28.348V35.5H119.746V22.348H121.93V24.484Z" fill="white"/>
<defs>
<linearGradient id="paint0_linear_1302_5437" x1="152" y1="5" x2="129" y2="21" gradientUnits="userSpaceOnUse">
<stop stop-color="white"/>
<stop offset="1" stop-color="#999999" stop-opacity="0"/>
</linearGradient>
<linearGradient id="paint1_linear_1302_5437" x1="33" y1="27.5" x2="11" y2="54.5" gradientUnits="userSpaceOnUse">
<stop stop-color="white" stop-opacity="0"/>
<stop offset="1" stop-color="white"/>
</linearGradient>
</defs>
</svg>
