<svg width="50" height="50" viewBox="0 0 50 50" fill="none" xmlns="http://www.w3.org/2000/svg">
<path d="M0 12C0 5.37258 5.37258 0 12 0H38C44.6274 0 50 5.37258 50 12V38C50 44.6274 44.6274 50 38 50H12C5.37258 50 0 44.6274 0 38V12Z" fill="#0063F5"/>
<path d="M25.8839 9.02318L29.7168 11.2313L29.7148 11.2346L22.9509 22.2259L19.8888 20.4222L25.8839 9.02318ZM31.4169 22.8216L38.4251 33.6717L34.5499 35.9462H34.522L28.3123 24.6675L31.4169 22.8216ZM26.3595 18.2859L39.3209 17.737L39.3629 22.1896H39.3377H39.3375L26.3595 21.8937V18.2859ZM18.5176 27.1361L11.5937 16.2437L15.4158 13.9756L21.5796 25.3324L18.5176 27.1361Z" fill="white" stroke="white" stroke-width="0.0334667"/>
<path d="M24.0977 40.9997L20.1612 38.7986L26.976 27.7933L30.1506 29.5711L24.0977 40.9997Z" fill="url(#paint0_linear_1667_13977)"/>
<path d="M24.0977 40.9997L20.1612 38.7986L26.976 27.7933L30.1506 29.5711L24.0977 40.9997Z" fill="white"/>
<path d="M23.6744 31.7298L10.6797 32.2801V27.751L23.5897 28.1319L23.6744 31.7298Z" fill="url(#paint1_linear_1667_13977)"/>
<path d="M23.6744 31.7298L10.6797 32.2801V27.751L23.5897 28.1319L23.6744 31.7298Z" fill="white"/>
<defs>
<linearGradient id="paint0_linear_1667_13977" x1="10.6797" y1="39.1723" x2="33.2561" y2="37.2887" gradientUnits="userSpaceOnUse">
<stop offset="0.114" stop-color="#37F6C8"/>
<stop offset="0.404" stop-color="#09A9FF"/>
<stop offset="0.599" stop-color="#5175F0"/>
<stop offset="1" stop-color="#8E15BA"/>
</linearGradient>
<linearGradient id="paint1_linear_1667_13977" x1="10.6797" y1="39.1723" x2="33.2561" y2="37.2887" gradientUnits="userSpaceOnUse">
<stop offset="0.114" stop-color="#37F6C8"/>
<stop offset="0.404" stop-color="#09A9FF"/>
<stop offset="0.599" stop-color="#5175F0"/>
<stop offset="1" stop-color="#8E15BA"/>
</linearGradient>
</defs>
</svg>
