<svg width="48" height="48" viewBox="0 0 48 48" fill="none" xmlns="http://www.w3.org/2000/svg">
<path d="M0.5 16C0.5 12.2146 0.501062 9.4259 0.788435 7.28845C1.07387 5.16538 1.63351 3.75989 2.6967 2.6967C3.75989 1.63351 5.16538 1.07387 7.28845 0.788435C9.4259 0.501062 12.2146 0.5 16 0.5H32C35.7854 0.5 38.5741 0.501062 40.7116 0.788435C42.8346 1.07387 44.2401 1.63351 45.3033 2.6967C46.3665 3.75989 46.9261 5.16538 47.2116 7.28845C47.4989 9.4259 47.5 12.2146 47.5 16V32C47.5 35.7854 47.4989 38.5741 47.2116 40.7116C46.9261 42.8346 46.3665 44.2401 45.3033 45.3033C44.2401 46.3665 42.8346 46.9261 40.7116 47.2116C38.5741 47.4989 35.7854 47.5 32 47.5H16C12.2146 47.5 9.4259 47.4989 7.28845 47.2116C5.16538 46.9261 3.75989 46.3665 2.6967 45.3033C1.63351 44.2401 1.07387 42.8346 0.788435 40.7116C0.501062 38.5741 0.5 35.7854 0.5 32V16Z" fill="#FAA10B" fill-opacity="0.2"/>
<path d="M0.5 16C0.5 12.2146 0.501062 9.4259 0.788435 7.28845C1.07387 5.16538 1.63351 3.75989 2.6967 2.6967C3.75989 1.63351 5.16538 1.07387 7.28845 0.788435C9.4259 0.501062 12.2146 0.5 16 0.5H32C35.7854 0.5 38.5741 0.501062 40.7116 0.788435C42.8346 1.07387 44.2401 1.63351 45.3033 2.6967C46.3665 3.75989 46.9261 5.16538 47.2116 7.28845C47.4989 9.4259 47.5 12.2146 47.5 16V32C47.5 35.7854 47.4989 38.5741 47.2116 40.7116C46.9261 42.8346 46.3665 44.2401 45.3033 45.3033C44.2401 46.3665 42.8346 46.9261 40.7116 47.2116C38.5741 47.4989 35.7854 47.5 32 47.5H16C12.2146 47.5 9.4259 47.4989 7.28845 47.2116C5.16538 46.9261 3.75989 46.3665 2.6967 45.3033C1.63351 44.2401 1.07387 42.8346 0.788435 40.7116C0.501062 38.5741 0.5 35.7854 0.5 32V16Z" stroke="white"/>
<path fill-rule="evenodd" clip-rule="evenodd" d="M22.6476 21.4687C22.1978 22.8201 21.511 24.3631 20.4738 25.3622C19.6662 26.1401 18.5275 26.7022 17.5052 27.0953C18.5275 27.4883 19.6662 28.0504 20.4738 28.8283C21.511 29.8274 22.1978 31.3704 22.6476 32.7218C23.0975 31.3704 23.7843 29.8274 24.8215 28.8283C25.6291 28.0504 26.7677 27.4883 27.79 27.0953C26.7677 26.7022 25.6291 26.1401 24.8215 25.3622C23.7843 24.3631 23.0975 22.8201 22.6476 21.4687ZM21.9861 18.445C22.1032 18.3423 22.3288 18.1909 22.6476 18.1909C22.9664 18.1909 23.192 18.3423 23.3092 18.445C23.426 18.5474 23.5045 18.6604 23.5526 18.7373C23.6499 18.8932 23.7306 19.0805 23.7987 19.2546C23.9366 19.6071 24.1025 20.1185 24.3061 20.7458L24.3168 20.7788C24.7472 22.1051 25.335 23.3567 26.0716 24.0662C26.7049 24.6763 27.753 25.1796 28.8143 25.5544L28.8517 25.5675C29.3132 25.7305 29.7089 25.8702 29.9866 25.9921C30.1247 26.0528 30.2926 26.1338 30.4378 26.2413C30.5419 26.3183 30.8949 26.5959 30.8949 27.0953C30.8949 27.5946 30.5419 27.8722 30.4378 27.9493C30.2926 28.0567 30.1247 28.1377 29.9866 28.1984C29.7089 28.3203 29.3132 28.46 28.8517 28.623L28.8143 28.6362C27.753 29.0109 26.7049 29.5142 26.0716 30.1243C25.335 30.8338 24.7472 32.0854 24.3168 33.4117L24.3061 33.4448C24.1025 34.0721 23.9366 34.5834 23.7987 34.9359C23.7306 35.11 23.6499 35.2973 23.5526 35.4532C23.5045 35.5302 23.426 35.6431 23.3092 35.7455C23.192 35.8482 22.9664 35.9997 22.6476 35.9997C22.3288 35.9997 22.1032 35.8482 21.9861 35.7455C21.8693 35.6431 21.7908 35.5302 21.7427 35.4532C21.6454 35.2973 21.5646 35.11 21.4966 34.9359C21.3587 34.5834 21.1927 34.072 20.9891 33.4446L20.9785 33.4117C20.5481 32.0854 19.9603 30.8338 19.2237 30.1243C18.5904 29.5142 17.5422 29.0109 16.4809 28.6362L16.4436 28.623C15.9821 28.46 15.5864 28.3203 15.3087 28.1984C15.1705 28.1377 15.0027 28.0567 14.8575 27.9493C14.7534 27.8722 14.4004 27.5946 14.4004 27.0953C14.4004 26.5959 14.7534 26.3183 14.8575 26.2413C15.0027 26.1338 15.1705 26.0528 15.3087 25.9921C15.5864 25.8702 15.9821 25.7305 16.4436 25.5675L16.4809 25.5544C17.5422 25.1796 18.5904 24.6763 19.2237 24.0662C19.9603 23.3567 20.5481 22.1051 20.9785 20.7788L20.9892 20.7458C21.1927 20.1185 21.3587 19.6072 21.4966 19.2546C21.5646 19.0805 21.6454 18.8932 21.7427 18.7373C21.7908 18.6604 21.8693 18.5474 21.9861 18.445Z" fill="#FAA10B"/>
<path d="M32.1848 20.9501C32.3434 21.0922 32.5477 21.2148 32.7672 21.3192C33.3227 21.5834 33.6004 21.7155 33.6004 21.804C33.6004 21.8926 33.3227 22.0247 32.7672 22.2888C32.5477 22.3933 32.3434 22.5158 32.1848 22.6579C31.9856 22.8362 31.8194 23.0801 31.6818 23.3469C31.355 23.9808 31.1916 24.2978 31.1049 24.2978C31.0182 24.2978 30.8548 23.9808 30.528 23.3469C30.3904 23.0801 30.2241 22.8362 30.025 22.6579C29.8664 22.5158 29.6621 22.3933 29.4426 22.2888C28.8871 22.0247 28.6094 21.8926 28.6094 21.804C28.6094 21.7155 28.8871 21.5834 29.4426 21.3192C29.6621 21.2148 29.8664 21.0922 30.025 20.9501C30.2241 20.7718 30.3904 20.5279 30.528 20.2611C30.8548 19.6272 31.0182 19.3103 31.1049 19.3103C31.1916 19.3103 31.355 19.6272 31.6818 20.2611C31.8194 20.5279 31.9856 20.7718 32.1848 20.9501Z" fill="#FAA10B"/>
<path d="M28.9132 14.5284C29.2386 14.8229 29.7126 15.0533 30.1779 15.2263C30.7556 15.4411 31.0444 15.5485 31.0444 15.6429C31.0444 15.7373 30.7556 15.8447 30.1779 16.0595C29.7126 16.2325 29.2386 16.463 28.9132 16.7575C28.5122 17.1205 28.2145 17.6918 27.9995 18.2602C27.7418 18.9414 27.613 19.282 27.519 19.282C27.4251 19.282 27.2963 18.9414 27.0386 18.2602C26.8236 17.6918 26.5259 17.1205 26.1248 16.7575C25.7995 16.463 25.3254 16.2325 24.8602 16.0595C24.2825 15.8447 23.9937 15.7373 23.9937 15.6429C23.9937 15.5485 24.2825 15.4411 24.8602 15.2263C25.3254 15.0533 25.7995 14.8229 26.1248 14.5284C26.5259 14.1654 26.8236 13.594 27.0386 13.0256C27.2963 12.3445 27.4251 12.0039 27.519 12.0039C27.613 12.0039 27.7418 12.3445 27.9995 13.0256C28.2145 13.594 28.5122 14.1654 28.9132 14.5284Z" fill="#FAA10B"/>
</svg>
