<svg width="244" height="94" viewBox="0 0 244 94" fill="none" xmlns="http://www.w3.org/2000/svg">
<path d="M5.20119 34.104C5.20119 30.776 5.92119 27.816 7.36119 25.224C8.80119 22.6 10.8012 20.568 13.3612 19.128C15.9532 17.656 18.8812 16.92 22.1452 16.92C26.1452 16.92 29.5692 17.976 32.4172 20.088C35.2652 22.2 37.1692 25.08 38.1292 28.728H29.1052C28.4332 27.32 27.4732 26.248 26.2252 25.512C25.0092 24.776 23.6172 24.408 22.0492 24.408C19.5212 24.408 17.4732 25.288 15.9052 27.048C14.3372 28.808 13.5532 31.16 13.5532 34.104C13.5532 37.048 14.3372 39.4 15.9052 41.16C17.4732 42.92 19.5212 43.8 22.0492 43.8C23.6172 43.8 25.0092 43.432 26.2252 42.696C27.4732 41.96 28.4332 40.888 29.1052 39.48H38.1292C37.1692 43.128 35.2652 46.008 32.4172 48.12C29.5692 50.2 26.1452 51.24 22.1452 51.24C18.8812 51.24 15.9532 50.52 13.3612 49.08C10.8012 47.608 8.80119 45.576 7.36119 42.984C5.92119 40.392 5.20119 37.432 5.20119 34.104ZM59.6197 23.928C62.6917 23.928 65.1557 24.952 67.0117 27C68.8677 29.016 69.7957 31.8 69.7957 35.352V51H61.6357V36.456C61.6357 34.664 61.1717 33.272 60.2437 32.28C59.3157 31.288 58.0677 30.792 56.4997 30.792C54.9317 30.792 53.6837 31.288 52.7557 32.28C51.8277 33.272 51.3637 34.664 51.3637 36.456V51H43.1557V15.48H51.3637V27.816C52.1957 26.632 53.3317 25.688 54.7717 24.984C56.2117 24.28 57.8277 23.928 59.6197 23.928ZM73.8674 37.56C73.8674 34.808 74.3794 32.392 75.4034 30.312C76.4594 28.232 77.8834 26.632 79.6754 25.512C81.4674 24.392 83.4674 23.832 85.6754 23.832C87.5634 23.832 89.2114 24.216 90.6194 24.984C92.0594 25.752 93.1634 26.76 93.9314 28.008V24.216H102.139V51H93.9314V47.208C93.1314 48.456 92.0114 49.464 90.5714 50.232C89.1634 51 87.5154 51.384 85.6274 51.384C83.4514 51.384 81.4674 50.824 79.6754 49.704C77.8834 48.552 76.4594 46.936 75.4034 44.856C74.3794 42.744 73.8674 40.312 73.8674 37.56ZM93.9314 37.608C93.9314 35.56 93.3554 33.944 92.2034 32.76C91.0834 31.576 89.7074 30.984 88.0754 30.984C86.4434 30.984 85.0514 31.576 83.8994 32.76C82.7794 33.912 82.2194 35.512 82.2194 37.56C82.2194 39.608 82.7794 41.24 83.8994 42.456C85.0514 43.64 86.4434 44.232 88.0754 44.232C89.7074 44.232 91.0834 43.64 92.2034 42.456C93.3554 41.272 93.9314 39.656 93.9314 37.608ZM124.398 23.928C127.534 23.928 130.03 24.952 131.886 27C133.774 29.016 134.718 31.8 134.718 35.352V51H126.558V36.456C126.558 34.664 126.094 33.272 125.166 32.28C124.238 31.288 122.99 30.792 121.422 30.792C119.854 30.792 118.606 31.288 117.678 32.28C116.75 33.272 116.286 34.664 116.286 36.456V51H108.078V24.216H116.286V27.768C117.118 26.584 118.238 25.656 119.646 24.984C121.054 24.28 122.638 23.928 124.398 23.928ZM138.789 37.608C138.789 34.824 139.349 32.392 140.469 30.312C141.621 28.232 143.205 26.632 145.221 25.512C147.269 24.392 149.605 23.832 152.229 23.832C155.589 23.832 158.389 24.712 160.629 26.472C162.901 28.232 164.389 30.712 165.093 33.912H156.357C155.621 31.864 154.197 30.84 152.085 30.84C150.581 30.84 149.381 31.432 148.485 32.616C147.589 33.768 147.141 35.432 147.141 37.608C147.141 39.784 147.589 41.464 148.485 42.648C149.381 43.8 150.581 44.376 152.085 44.376C154.197 44.376 155.621 43.352 156.357 41.304H165.093C164.389 44.44 162.901 46.904 160.629 48.696C158.357 50.488 155.557 51.384 152.229 51.384C149.605 51.384 147.269 50.824 145.221 49.704C143.205 48.584 141.621 46.984 140.469 44.904C139.349 42.824 138.789 40.392 138.789 37.608ZM173.612 21.432C172.172 21.432 170.988 21.016 170.06 20.184C169.164 19.32 168.716 18.264 168.716 17.016C168.716 15.736 169.164 14.68 170.06 13.848C170.988 12.984 172.172 12.552 173.612 12.552C175.02 12.552 176.172 12.984 177.068 13.848C177.996 14.68 178.46 15.736 178.46 17.016C178.46 18.264 177.996 19.32 177.068 20.184C176.172 21.016 175.02 21.432 173.612 21.432ZM177.692 24.216V51H169.484V24.216H177.692Z" fill="#2E2E2E"/>
<path d="M5.20119 34.104C5.20119 30.776 5.92119 27.816 7.36119 25.224C8.80119 22.6 10.8012 20.568 13.3612 19.128C15.9532 17.656 18.8812 16.92 22.1452 16.92C26.1452 16.92 29.5692 17.976 32.4172 20.088C35.2652 22.2 37.1692 25.08 38.1292 28.728H29.1052C28.4332 27.32 27.4732 26.248 26.2252 25.512C25.0092 24.776 23.6172 24.408 22.0492 24.408C19.5212 24.408 17.4732 25.288 15.9052 27.048C14.3372 28.808 13.5532 31.16 13.5532 34.104C13.5532 37.048 14.3372 39.4 15.9052 41.16C17.4732 42.92 19.5212 43.8 22.0492 43.8C23.6172 43.8 25.0092 43.432 26.2252 42.696C27.4732 41.96 28.4332 40.888 29.1052 39.48H38.1292C37.1692 43.128 35.2652 46.008 32.4172 48.12C29.5692 50.2 26.1452 51.24 22.1452 51.24C18.8812 51.24 15.9532 50.52 13.3612 49.08C10.8012 47.608 8.80119 45.576 7.36119 42.984C5.92119 40.392 5.20119 37.432 5.20119 34.104ZM59.6197 23.928C62.6917 23.928 65.1557 24.952 67.0117 27C68.8677 29.016 69.7957 31.8 69.7957 35.352V51H61.6357V36.456C61.6357 34.664 61.1717 33.272 60.2437 32.28C59.3157 31.288 58.0677 30.792 56.4997 30.792C54.9317 30.792 53.6837 31.288 52.7557 32.28C51.8277 33.272 51.3637 34.664 51.3637 36.456V51H43.1557V15.48H51.3637V27.816C52.1957 26.632 53.3317 25.688 54.7717 24.984C56.2117 24.28 57.8277 23.928 59.6197 23.928ZM73.8674 37.56C73.8674 34.808 74.3794 32.392 75.4034 30.312C76.4594 28.232 77.8834 26.632 79.6754 25.512C81.4674 24.392 83.4674 23.832 85.6754 23.832C87.5634 23.832 89.2114 24.216 90.6194 24.984C92.0594 25.752 93.1634 26.76 93.9314 28.008V24.216H102.139V51H93.9314V47.208C93.1314 48.456 92.0114 49.464 90.5714 50.232C89.1634 51 87.5154 51.384 85.6274 51.384C83.4514 51.384 81.4674 50.824 79.6754 49.704C77.8834 48.552 76.4594 46.936 75.4034 44.856C74.3794 42.744 73.8674 40.312 73.8674 37.56ZM93.9314 37.608C93.9314 35.56 93.3554 33.944 92.2034 32.76C91.0834 31.576 89.7074 30.984 88.0754 30.984C86.4434 30.984 85.0514 31.576 83.8994 32.76C82.7794 33.912 82.2194 35.512 82.2194 37.56C82.2194 39.608 82.7794 41.24 83.8994 42.456C85.0514 43.64 86.4434 44.232 88.0754 44.232C89.7074 44.232 91.0834 43.64 92.2034 42.456C93.3554 41.272 93.9314 39.656 93.9314 37.608ZM124.398 23.928C127.534 23.928 130.03 24.952 131.886 27C133.774 29.016 134.718 31.8 134.718 35.352V51H126.558V36.456C126.558 34.664 126.094 33.272 125.166 32.28C124.238 31.288 122.99 30.792 121.422 30.792C119.854 30.792 118.606 31.288 117.678 32.28C116.75 33.272 116.286 34.664 116.286 36.456V51H108.078V24.216H116.286V27.768C117.118 26.584 118.238 25.656 119.646 24.984C121.054 24.28 122.638 23.928 124.398 23.928ZM138.789 37.608C138.789 34.824 139.349 32.392 140.469 30.312C141.621 28.232 143.205 26.632 145.221 25.512C147.269 24.392 149.605 23.832 152.229 23.832C155.589 23.832 158.389 24.712 160.629 26.472C162.901 28.232 164.389 30.712 165.093 33.912H156.357C155.621 31.864 154.197 30.84 152.085 30.84C150.581 30.84 149.381 31.432 148.485 32.616C147.589 33.768 147.141 35.432 147.141 37.608C147.141 39.784 147.589 41.464 148.485 42.648C149.381 43.8 150.581 44.376 152.085 44.376C154.197 44.376 155.621 43.352 156.357 41.304H165.093C164.389 44.44 162.901 46.904 160.629 48.696C158.357 50.488 155.557 51.384 152.229 51.384C149.605 51.384 147.269 50.824 145.221 49.704C143.205 48.584 141.621 46.984 140.469 44.904C139.349 42.824 138.789 40.392 138.789 37.608ZM173.612 21.432C172.172 21.432 170.988 21.016 170.06 20.184C169.164 19.32 168.716 18.264 168.716 17.016C168.716 15.736 169.164 14.68 170.06 13.848C170.988 12.984 172.172 12.552 173.612 12.552C175.02 12.552 176.172 12.984 177.068 13.848C177.996 14.68 178.46 15.736 178.46 17.016C178.46 18.264 177.996 19.32 177.068 20.184C176.172 21.016 175.02 21.432 173.612 21.432ZM177.692 24.216V51H169.484V24.216H177.692Z" fill="url(#paint0_linear_920_8403)"/>
<path d="M214.788 45.048H202.212L200.196 51H191.604L203.796 17.304H213.3L225.492 51H216.804L214.788 45.048ZM212.676 38.712L208.5 26.376L204.372 38.712H212.676ZM237.411 17.304V51H229.203V17.304H237.411Z" fill="#2E2E2E"/>
<path d="M214.788 45.048H202.212L200.196 51H191.604L203.796 17.304H213.3L225.492 51H216.804L214.788 45.048ZM212.676 38.712L208.5 26.376L204.372 38.712H212.676ZM237.411 17.304V51H229.203V17.304H237.411Z" fill="url(#paint1_linear_920_8403)"/>
<path fill-rule="evenodd" clip-rule="evenodd" d="M92.2447 84.1345C85.1129 86.3033 76.8789 88.4618 68.9577 89.0007C62.1874 89.4607 55.6478 88.7462 50.2951 85.7063C49.5406 85.2783 48.5957 85.5725 48.1876 86.3647C47.779 87.1561 48.0601 88.1473 48.8147 88.5759C54.6538 91.8912 61.7737 92.7583 69.1586 92.2559C77.2222 91.7078 85.6049 89.5351 92.8798 87.3349C93.7239 89.1286 95.4718 90.8009 98.551 92.0347C103.28 93.9302 109.738 93.9067 116.541 92.8386C126.407 91.2902 137.02 87.5979 143.844 84.9742C144.124 84.8672 144.541 84.6969 145.051 84.4725C145.206 84.8327 145.38 85.1876 145.573 85.536C147.247 88.5727 150.208 91.0279 153.224 91.9049C172.359 97.4653 194.69 90.8028 212.872 85.3807C213.693 85.1347 214.172 84.2317 213.942 83.3659C213.706 82.5 212.848 81.997 212.02 82.243C194.348 87.5137 172.651 94.1637 154.052 88.7606C151.763 88.095 149.536 86.2081 148.267 83.9035C148.124 83.6464 147.999 83.3835 147.881 83.1166C150.388 81.8136 153.336 79.9971 154.923 78.0527C156.552 76.0594 156.957 73.9317 155.538 71.922C154.319 70.2041 152.472 70.0579 150.55 70.9485C148.478 71.9025 146.345 74.1326 145.654 75.1792C144.36 77.134 143.95 79.2546 144.186 81.3223C143.576 81.5924 143.081 81.7934 142.776 81.9108C136.101 84.4764 125.728 88.0977 116.08 89.6121C109.873 90.5869 103.976 90.7167 99.6607 88.9876C97.82 88.2497 96.6039 87.3884 95.9439 86.3888C97.2465 85.9804 98.5024 85.5784 99.7024 85.1948C102.075 84.4359 107.016 83.1799 110.546 80.9413C113.354 79.1613 115.257 76.7399 115.147 73.7046C115.09 72.1452 114.23 71.1045 112.86 70.5211C110.815 69.6501 107.276 70.0716 105.959 70.3652C101.963 71.2539 96.6295 74.9326 93.9907 79.0778C92.9376 80.7318 92.3112 82.4622 92.2447 84.1345ZM95.5272 83.1153C96.6562 82.7591 97.7473 82.4093 98.7954 82.074C101.011 81.3654 105.641 80.2398 108.937 78.1493C110.683 77.0427 112.108 75.7168 112.039 73.8292C112.033 73.6824 111.894 73.6407 111.772 73.5806C111.582 73.4886 111.365 73.4253 111.134 73.3757C109.568 73.0404 107.465 73.3646 106.604 73.5565C103.251 74.3023 98.791 77.4113 96.5772 80.8897C96.1094 81.6244 95.7368 82.3728 95.5272 83.1153ZM147.259 79.8203C148.721 79.0315 150.251 78.0775 151.458 77.0394C152.099 76.4881 152.64 75.9211 152.982 75.3325C153.268 74.8458 153.38 74.3473 153.038 73.8657C152.901 73.6706 152.696 73.6668 152.484 73.7033C152.26 73.7424 152.03 73.8259 151.8 73.9336C150.282 74.6344 148.715 76.2714 148.211 77.0394C147.62 77.93 147.327 78.8722 147.259 79.8203Z" fill="url(#paint2_linear_920_8403)"/>
<defs>
<linearGradient id="paint0_linear_920_8403" x1="8" y1="43" x2="244.521" y2="68.8994" gradientUnits="userSpaceOnUse">
<stop stop-color="#8E15BA"/>
<stop offset="0.294725" stop-color="#4B3EE3"/>
<stop offset="0.542473" stop-color="#3D9DD4"/>
<stop offset="0.874" stop-color="#31EEC8"/>
</linearGradient>
<linearGradient id="paint1_linear_920_8403" x1="6.87058e-07" y1="58.6207" x2="63.2234" y2="43.516" gradientUnits="userSpaceOnUse">
<stop stop-color="#8E15BA"/>
<stop offset="0.294725" stop-color="#4B3EE3"/>
<stop offset="0.542473" stop-color="#3D9DD4"/>
<stop offset="0.874" stop-color="#31EEC8"/>
</linearGradient>
<linearGradient id="paint2_linear_920_8403" x1="48" y1="90.6906" x2="215.926" y2="24.7546" gradientUnits="userSpaceOnUse">
<stop stop-color="#8E15BA"/>
<stop offset="1" stop-color="#5175F0"/>
</linearGradient>
</defs>
</svg>
