<svg width="185" height="197" viewBox="0 0 185 197" fill="none" xmlns="http://www.w3.org/2000/svg">
<g opacity="0.25">
<path d="M45.63 137.304C51.2165 127.472 47.7976 114.915 37.9937 109.258C28.1898 103.602 15.7135 106.987 10.127 116.819C4.54047 126.652 7.95935 139.209 17.7632 144.865C27.5671 150.522 40.0435 147.137 45.63 137.304Z" fill="#3382F7" fill-opacity="0.5"/>
<path d="M37.7467 109.693C47.3118 115.212 50.6468 127.462 45.1969 137.055C39.747 146.647 27.5753 149.95 18.0102 144.431C8.44517 138.912 5.11017 126.661 10.56 117.069C16.0099 107.477 28.1817 104.174 37.7467 109.693Z" stroke="#3382F7" stroke-opacity="0.15"/>
</g>
<g opacity="0.3">
<path d="M41.0296 134.649C45.1677 127.365 42.6352 118.064 35.3731 113.874C28.111 109.684 18.8692 112.191 14.7311 119.475C10.5929 126.758 13.1254 136.059 20.3876 140.249C27.6497 144.44 36.8915 141.932 41.0296 134.649Z" fill="#3382F7" fill-opacity="0.5"/>
<path d="M35.1261 114.309C42.1494 118.361 44.598 127.356 40.5965 134.399C36.595 141.442 27.6579 143.867 20.6346 139.815C13.6112 135.762 11.1626 126.767 15.1641 119.724C19.1657 112.681 28.1028 110.256 35.1261 114.309Z" stroke="#3382F7" stroke-opacity="0.15"/>
</g>
<path opacity="0.4" d="M160.835 81.9272C165.386 73.9155 162.601 63.6842 154.612 59.0749C146.624 54.4657 136.458 57.224 131.906 65.2357C127.354 73.2474 130.14 83.4788 138.128 88.088C146.117 92.6972 156.283 89.939 160.835 81.9272Z" stroke="#3382F7" stroke-opacity="0.15"/>
<g opacity="0.5">
<path d="M34.4582 130.855C36.5272 127.213 35.261 122.563 31.6299 120.467C27.9988 118.372 23.378 119.626 21.3089 123.268C19.2398 126.91 20.5061 131.56 24.1371 133.655C27.7682 135.75 32.3891 134.497 34.4582 130.855Z" fill="#3382F7" fill-opacity="0.5"/>
<path d="M31.3829 120.902C34.7752 122.859 35.9575 127.204 34.0251 130.605C32.0926 134.006 27.7764 135.178 24.3841 133.22C20.9919 131.263 19.8095 126.919 21.742 123.518C23.6744 120.116 27.9907 118.945 31.3829 120.902Z" stroke="#3382F7" stroke-opacity="0.15"/>
</g>
<path fill-rule="evenodd" clip-rule="evenodd" d="M34.4525 130.858L21.3077 123.274C19.2393 126.914 20.5051 131.563 24.1349 133.657C27.7647 135.752 32.3841 134.498 34.4525 130.858Z" fill="#3382F7" fill-opacity="0.5"/>
<path d="M21.5088 123.967L33.7573 131.034C31.7184 134.103 27.6272 135.095 24.3819 133.223C21.1367 131.35 19.9147 127.293 21.5088 123.967Z" stroke="#3382F7" stroke-opacity="0.15"/>
<g opacity="0.45">
<g opacity="0.45">
<path d="M150.317 75.8579C151.558 73.673 150.798 70.8826 148.62 69.6254C146.441 68.3682 143.669 69.1203 142.427 71.3053C141.186 73.4902 141.946 76.2806 144.125 77.5378C146.303 78.795 149.076 78.0429 150.317 75.8579Z" fill="#3382F7" fill-opacity="0.5"/>
<path d="M148.373 70.0601C150.313 71.1795 150.989 73.6636 149.884 75.608C148.779 77.5525 146.311 78.2225 144.372 77.1031C142.432 75.9837 141.756 73.4996 142.86 71.5552C143.965 69.6107 146.433 68.9407 148.373 70.0601Z" stroke="#3382F7" stroke-opacity="0.15"/>
</g>
<g opacity="0.45">
<path fill-rule="evenodd" clip-rule="evenodd" d="M150.317 75.8597C149.076 78.0439 146.304 78.7957 144.126 77.539C141.948 76.2824 141.189 73.493 142.43 71.3089L150.317 75.8597Z" fill="#3382F7" fill-opacity="0.5"/>
<path d="M144.373 77.1043C146.166 78.1385 148.409 77.6447 149.61 76.0293L142.642 72.0088C141.868 73.8707 142.581 76.0701 144.373 77.1043Z" stroke="#3382F7" stroke-opacity="0.15"/>
</g>
</g>
<path d="M161.382 50.2495C161.692 49.7033 161.502 49.0057 160.958 48.6914C160.413 48.3771 159.72 48.5652 159.41 49.1115C159.099 49.6577 159.289 50.3553 159.834 50.6696C160.379 50.9838 161.072 50.7958 161.382 50.2495Z" fill="#3382F7" fill-opacity="0.5"/>
<path d="M160.711 49.1261C161.017 49.3026 161.123 49.6938 160.949 49.9996C160.775 50.3054 160.387 50.4113 160.081 50.2348C159.775 50.0584 159.669 49.6671 159.843 49.3613C160.016 49.0555 160.405 48.9497 160.711 49.1261Z" stroke="#3382F7" stroke-opacity="0.15"/>
<g opacity="0.35">
<path d="M170.206 86.8893C170.517 86.3431 170.327 85.6455 169.782 85.3312C169.237 85.017 168.544 85.205 168.234 85.7513C167.923 86.2975 168.113 86.9951 168.658 87.3094C169.203 87.6237 169.896 87.4356 170.206 86.8893Z" fill="#3382F7" fill-opacity="0.5"/>
<path d="M169.535 85.766C169.841 85.9424 169.947 86.3336 169.773 86.6394C169.599 86.9452 169.211 87.0511 168.905 86.8747C168.599 86.6982 168.493 86.307 168.667 86.0012C168.841 85.6954 169.229 85.5895 169.535 85.766Z" stroke="#3382F7" stroke-opacity="0.15"/>
</g>
<g opacity="0.35">
<path d="M126.387 61.1795C126.801 60.4511 126.548 59.521 125.821 59.102C125.095 58.683 124.171 58.9337 123.757 59.6621C123.343 60.3904 123.597 61.3205 124.323 61.7395C125.049 62.1586 125.973 61.9078 126.387 61.1795Z" fill="#3382F7" fill-opacity="0.5"/>
<path d="M125.574 59.5367C126.062 59.8179 126.231 60.4417 125.954 60.9296C125.677 61.4175 125.057 61.586 124.57 61.3048C124.082 61.0236 123.913 60.3998 124.19 59.9119C124.467 59.4241 125.087 59.2555 125.574 59.5367Z" stroke="#3382F7" stroke-opacity="0.15"/>
</g>
<path opacity="0.8" d="M28.3398 127.363L140.432 76.609" stroke="#3382F7" stroke-opacity="0.15"/>
</svg>
