<svg width="190" height="165" viewBox="0 0 190 165" fill="none" xmlns="http://www.w3.org/2000/svg">
<g opacity="0.25">
<path d="M144.624 30.6071C138.209 39.9201 140.529 52.7252 149.808 59.2082C159.086 65.6911 171.808 63.397 178.224 54.084C184.639 44.771 182.318 31.9659 173.04 25.4829C163.762 19 151.039 21.2942 144.624 30.6071Z" fill="#3382F7" fill-opacity="0.5"/>
<path d="M150.091 58.7964C141.039 52.4714 138.775 39.9787 145.034 30.8935C151.292 21.8083 163.704 19.5697 172.756 25.8947C181.809 32.2197 184.072 44.7124 177.814 53.7976C171.555 62.8828 159.144 65.1215 150.091 58.7964Z" stroke="#3382F7" stroke-opacity="0.15"/>
</g>
<g opacity="0.3">
<path d="M148.979 33.6508C144.227 40.5493 145.946 50.0346 152.819 54.8368C159.692 59.639 169.116 57.9396 173.868 51.0411C178.62 44.1426 176.901 34.6573 170.028 29.8551C163.156 25.0529 153.732 26.7523 148.979 33.6508Z" fill="#3382F7" fill-opacity="0.5"/>
<path d="M153.103 54.425C146.456 49.7807 144.794 40.6079 149.389 33.9372C153.985 27.2664 163.098 25.6226 169.745 30.2669C176.391 34.9111 178.054 44.0839 173.458 50.7547C168.863 57.4254 159.75 59.0693 153.103 54.425Z" stroke="#3382F7" stroke-opacity="0.15"/>
</g>
<path opacity="0.4" d="M25.0637 75.8203C19.8363 83.4086 21.7274 93.8424 29.2875 99.1248C36.8476 104.407 47.2139 102.538 52.4413 94.9496C57.6686 87.3612 55.7776 76.9274 48.2175 71.645C40.6574 66.3626 30.2911 68.2319 25.0637 75.8203Z" stroke="#3382F7" stroke-opacity="0.15"/>
<g opacity="0.5">
<path d="M155.199 37.9983C152.823 41.4476 153.682 46.1902 157.119 48.5913C160.555 50.9924 165.267 50.1427 167.643 46.6935C170.019 43.2442 169.16 38.5016 165.723 36.1005C162.287 33.6994 157.575 34.5491 155.199 37.9983Z" fill="#3382F7" fill-opacity="0.5"/>
<path d="M157.402 48.1796C154.192 45.9364 153.389 41.5062 155.609 38.2847C157.828 35.0632 162.229 34.2691 165.439 36.5123C168.65 38.7554 169.452 43.1856 167.233 46.4071C165.014 49.6286 160.613 50.4227 157.402 48.1796Z" stroke="#3382F7" stroke-opacity="0.15"/>
</g>
<path fill-rule="evenodd" clip-rule="evenodd" d="M155.204 37.9959L167.644 46.6877C170.02 43.2398 169.16 38.4989 165.725 36.0987C162.29 33.6986 157.58 34.548 155.204 37.9959Z" fill="#3382F7" fill-opacity="0.5"/>
<path d="M167.504 45.9796L155.912 37.8805C158.209 34.9995 162.37 34.3646 165.442 36.5105C168.513 38.6564 169.38 42.8044 167.504 45.9796Z" stroke="#3382F7" stroke-opacity="0.15"/>
<g opacity="0.45">
<g opacity="0.45">
<path d="M35.0185 82.776C33.593 84.8455 34.1089 87.6912 36.1708 89.1319C38.2327 90.5727 41.0598 90.0631 42.4853 87.9936C43.9108 85.9241 43.3949 83.0784 41.333 81.6376C39.2711 80.1968 36.444 80.7065 35.0185 82.776Z" fill="#3382F7" fill-opacity="0.5"/>
<path d="M36.4544 88.7202C34.6185 87.4373 34.1597 84.9041 35.4284 83.0624C36.697 81.2207 39.2135 80.7665 41.0494 82.0494C42.8853 83.3323 43.344 85.8655 42.0754 87.7072C40.8068 89.5489 38.2903 90.0031 36.4544 88.7202Z" stroke="#3382F7" stroke-opacity="0.15"/>
</g>
<g opacity="0.45">
<path fill-rule="evenodd" clip-rule="evenodd" d="M35.0202 82.7743C36.4452 80.7056 39.2714 80.1961 41.3326 81.6364C43.3937 83.0766 43.9094 85.9211 42.4844 87.9898L35.0202 82.7743Z" fill="#3382F7" fill-opacity="0.5"/>
<path d="M41.0489 82.0481C39.3527 80.8629 37.0753 81.161 35.7388 82.6665L42.3331 87.2741C43.2653 85.4862 42.7451 83.2333 41.0489 82.0481Z" stroke="#3382F7" stroke-opacity="0.15"/>
</g>
</g>
<path d="M21.781 107.332C21.4246 107.849 21.5535 108.561 22.069 108.921C22.5844 109.281 23.2912 109.154 23.6476 108.636C24.004 108.119 23.8751 107.408 23.3596 107.047C22.8442 106.687 22.1374 106.815 21.781 107.332Z" fill="#3382F7" fill-opacity="0.5"/>
<path d="M22.3526 108.509C22.0632 108.307 21.9913 107.908 22.1908 107.618C22.3904 107.329 22.7866 107.257 23.076 107.459C23.3654 107.661 23.4373 108.06 23.2378 108.35C23.0383 108.64 22.6421 108.711 22.3526 108.509Z" stroke="#3382F7" stroke-opacity="0.15"/>
<g opacity="0.35">
<path d="M16.156 70.0667C15.7996 70.5841 15.9285 71.2955 16.444 71.6556C16.9594 72.0158 17.6662 71.8883 18.0226 71.371C18.379 70.8536 18.2501 70.1422 17.7346 69.782C17.2192 69.4218 16.5124 69.5493 16.156 70.0667Z" fill="#3382F7" fill-opacity="0.5"/>
<path d="M16.7276 71.2439C16.4382 71.0416 16.3663 70.6427 16.5658 70.3531C16.7654 70.0634 17.1616 69.9915 17.451 70.1938C17.7404 70.396 17.8123 70.7949 17.6128 71.0846C17.4132 71.3742 17.0171 71.4461 16.7276 71.2439Z" stroke="#3382F7" stroke-opacity="0.15"/>
</g>
<g opacity="0.35">
<path d="M57.5921 99.4678C57.1169 100.158 57.2888 101.106 57.9761 101.586C58.6633 102.067 59.6057 101.897 60.0809 101.207C60.5562 100.517 60.3843 99.5684 59.697 99.0882C59.0097 98.608 58.0673 98.7779 57.5921 99.4678Z" fill="#3382F7" fill-opacity="0.5"/>
<path d="M58.2597 101.175C57.7984 100.852 57.6836 100.216 58.0019 99.7541C58.3203 99.292 58.9521 99.1777 59.4133 99.4999C59.8746 99.8222 59.9894 100.458 59.6711 100.92C59.3528 101.383 58.721 101.497 58.2597 101.175Z" stroke="#3382F7" stroke-opacity="0.15"/>
</g>
<path opacity="0.8" d="M160.992 42.006L44.933 82.8821" stroke="#3382F7" stroke-opacity="0.15"/>
</svg>
