<svg width="92" height="81" viewBox="0 0 92 81" fill="none" xmlns="http://www.w3.org/2000/svg">
<g clip-path="url(#clip0_920_7973)">
<path d="M67.5224 26.6042L25.922 67.0849C22.7465 70.1749 17.5989 70.1749 14.4234 67.0849L0.282065 53.326C-0.320538 52.7396 0.106384 51.7378 0.958341 51.7378H6.26843C6.90315 51.7378 7.51142 51.9823 7.95912 52.4198L17.4667 61.6714C18.9609 63.1254 21.3845 63.1254 22.8788 61.6714L67.5243 18.2275V26.6042H67.5224Z" fill="#8E15BA"/>
<path d="M54.6066 39.1701L35.1136 20.2018C33.9934 19.1117 33.9934 17.3434 35.1136 16.2533L50.3015 1.47241L54.6066 5.66165L41.6931 18.2275L58.9117 34.9827L54.6066 39.1719V39.1701Z" fill="#8E15BA"/>
<path d="M54.6085 30.7934L69.122 44.9162C70.6163 46.3702 73.0399 46.3702 74.5341 44.9162L83.6223 36.0727C84.3401 35.3742 85.313 34.9826 86.3274 34.9826H91.0425C91.8944 34.9826 92.3213 35.9845 91.7187 36.5708L77.5774 50.3316C74.4019 53.4216 69.2543 53.4216 66.0788 50.3316L54.6104 39.1719C52.234 36.8594 52.234 33.1077 54.6104 30.7952L54.6085 30.7934Z" fill="#0963FF"/>
<path d="M41.9879 17.9426L52.8876 7.33626C53.834 6.41532 55.383 6.41532 56.3313 7.33626L65.8011 16.5511C66.7513 17.4757 66.7513 18.9757 65.8011 19.9021L54.9013 30.5085C54.7143 30.6905 54.6085 30.9387 54.6085 31.196V36.8209C54.6085 37.6885 55.6853 38.1223 56.3162 37.5084L71.3662 22.8635C73.9976 20.3029 73.9976 16.1504 71.3662 13.5898L59.3746 1.92094C56.7431 -0.639663 52.4758 -0.639663 49.8444 1.92094L34.7944 16.5658C34.1653 17.1779 34.6112 18.2276 35.5009 18.2276H41.2814C41.5458 18.2276 41.8008 18.1246 41.9879 17.9426Z" fill="#0963FF"/>
<path d="M41.9879 17.9426L52.8876 7.33626C53.834 6.41532 55.383 6.41532 56.3313 7.33626L65.8011 16.5511C66.7513 17.4757 66.7513 18.9757 65.8011 19.9021L54.9013 30.5085C54.7143 30.6905 54.6085 30.9387 54.6085 31.196V36.8209C54.6085 37.6885 55.6853 38.1223 56.3162 37.5084L71.3662 22.8635C73.9976 20.3029 73.9976 16.1504 71.3662 13.5898L59.3746 1.92094C56.7431 -0.639663 52.4758 -0.639663 49.8444 1.92094L34.7944 16.5658C34.1653 17.1779 34.6112 18.2276 35.5009 18.2276H41.2814C41.5458 18.2276 41.8008 18.1246 41.9879 17.9426Z" fill="#0963FF"/>
<path d="M54.3737 69.719H51.1019L45.6312 61.6586V69.719H42.3594V56.6495H45.6312L51.1019 64.7467V56.6495H54.3737V69.719Z" fill="#0963FF"/>
<path d="M58.7849 59.7118C59.3648 58.7008 60.1715 57.9122 61.2048 57.3479C62.2381 56.7836 63.4168 56.5005 64.7448 56.5005C66.3524 56.5005 67.7068 56.8792 68.81 57.6365C69.9132 58.3938 70.6443 59.4416 71.0013 60.7835H67.3857C67.1439 60.3497 66.7963 60.017 66.343 59.7872C65.8896 59.5574 65.3569 59.4434 64.7448 59.4434C63.6851 59.4434 62.8388 59.7817 62.2003 60.4581C61.5618 61.1346 61.2444 62.0371 61.2444 63.1676C61.2444 64.3716 61.5788 65.311 62.2494 65.9874C62.9181 66.6639 63.84 67.0021 65.0131 67.0021C65.8159 67.0021 66.4979 66.7999 67.0608 66.3973C67.6218 65.9948 68.0242 65.4194 68.266 64.6749H64.1139V62.3478H71.2299V65.3073C70.9881 66.1014 70.5763 66.8403 69.9964 67.5223C69.4164 68.2043 68.6797 68.7576 67.7862 69.1785C66.8927 69.6013 65.8858 69.8108 64.7637 69.8108C63.4376 69.8108 62.2551 69.5278 61.2142 68.9634C60.1752 68.3991 59.3648 67.6142 58.7849 66.6087C58.205 65.6032 57.9141 64.4562 57.9141 63.1639C57.9141 61.8717 58.205 60.7228 58.7849 59.71V59.7118Z" fill="#8E15BA"/>
<path d="M86.7799 69.719H83.5081L78.0374 61.6585V69.719H74.7656V56.6494H78.0374L83.5081 64.7467V56.6494H86.7799V69.719Z" fill="#0963FF"/>
</g>
<defs>
<clipPath id="clip0_920_7973">
<rect width="92" height="81" fill="white"/>
</clipPath>
</defs>
</svg>
