<svg width="884" height="1130" viewBox="0 0 884 1130" fill="none" xmlns="http://www.w3.org/2000/svg">
<g filter="url(#filter0_f_1425_6231)">
<ellipse cx="218.638" cy="332.428" rx="218.638" ry="332.428" transform="matrix(-0.601834 0.798622 0.798622 0.601834 769.639 13.535)" fill="#076BC8"/>
</g>
<mask id="mask0_1425_6231" style="mask-type:alpha" maskUnits="userSpaceOnUse" x="329" y="-117" width="1116" height="1038">
<path d="M1444.45 553.663L926.039 920.187L461.35 571.019L329.579 422.866L359.443 31.1558L596.417 -116.954L1075.37 243.977L1444.45 553.663Z" fill="url(#paint0_linear_1425_6231)"/>
</mask>
<g mask="url(#mask0_1425_6231)">
</g>
<mask id="mask1_1425_6231" style="mask-type:alpha" maskUnits="userSpaceOnUse" x="162" y="-164" width="1227" height="1152">
<path d="M558.158 -163.088C388.561 62.7222 172.255 350.815 162.918 361.389L993.51 987.315L1388.75 462.839L558.158 -163.088Z" fill="url(#paint1_linear_1425_6231)"/>
</mask>
<g mask="url(#mask1_1425_6231)">
<path d="M566.005 552.749C659.685 623.345 799.318 601.927 853.889 529.512C908.461 457.097 942.154 333.488 841.643 257.744C791.836 220.209 767.839 126.227 681.488 117.694C593.585 109.008 532.854 218.095 505.326 254.625C450.754 327.04 472.325 482.153 566.005 552.749Z" fill="#076BC8"/>
<g filter="url(#filter1_f_1425_6231)">
<path d="M569.558 545.701C670.027 621.414 794.253 606.169 841.16 543.923C888.068 481.678 911.72 371.426 811.25 295.713C761.463 258.193 733.588 169.409 651.077 155.83C567.084 142.007 516.8 237.22 493.137 268.62C446.229 330.866 469.088 469.988 569.558 545.701Z" fill="#076BC8"/>
</g>
<g filter="url(#filter2_f_1425_6231)">
<path d="M572.601 547.994C685.208 632.853 830.304 607.986 888.135 531.244C945.967 454.503 979.375 321.777 866.768 236.918C810.966 194.866 788.762 83.3627 693.665 71.617C596.861 59.6602 528.44 182.381 499.267 221.094C441.435 297.835 459.994 463.134 572.601 547.994Z" fill="#076BC8"/>
</g>
<g filter="url(#filter3_f_1425_6231)">
<path d="M592.446 548.699C745.661 634.645 935.829 621.896 1003.51 532.081C1071.2 442.265 1073.8 291.993 938.754 190.221C871.83 139.788 859.568 -22.9336 746.352 -38.1259C631.102 -53.5912 557.193 82.7756 523.05 128.083C455.366 217.899 414.956 449.134 592.446 548.699Z" fill="#076BC8"/>
</g>
<g filter="url(#filter4_f_1425_6231)">
<path d="M666.681 547.649C812.094 657.231 1024.48 635.85 1090.66 548.037C1156.83 460.223 1152.39 308.035 1006.98 198.453C934.921 144.15 872.683 44.7031 754.117 23.9156C633.421 2.7547 562.982 137.455 529.6 181.753C463.425 269.566 521.268 438.068 666.681 547.649Z" fill="#076BC8"/>
</g>
<g filter="url(#filter5_f_1425_6231)">
<path d="M749.691 555.248C899.962 668.49 1118.52 647.622 1186.21 557.807C1253.89 467.991 1248.54 311.725 1098.27 198.482C1023.81 142.365 959.22 39.9515 837.043 18.0058C712.67 -4.33415 640.836 133.596 606.692 178.903C539.008 268.719 599.421 442.005 749.691 555.248Z" fill="#076BC8"/>
</g>
<g filter="url(#filter6_f_1425_6231)">
<path d="M625.903 484.356C757.39 583.444 959.779 550.39 1027.46 460.574C1095.15 370.758 1099.61 221.889 968.128 122.801C902.97 73.6989 841.86 -9.81212 730.741 -23.4238C617.626 -37.2801 543.232 98.7209 509.089 144.028C441.405 233.844 494.416 385.269 625.903 484.356Z" fill="#076BC8"/>
</g>
</g>
<g filter="url(#filter7_f_1425_6231)">
<path d="M757.412 112.959C725.68 132.146 692.169 208.972 661.766 293.811L594.711 382.791C536.381 460.194 675.318 532.004 811.507 564.313C947.696 596.623 943.469 596.84 997.572 519.653C1051.67 442.466 1073.23 517.687 1159.32 531.528C1245.42 545.369 1072.63 506.63 1046.9 396.504C1021.17 286.378 1075.58 309.628 933.966 277.77C792.356 245.912 815.767 223.851 833.241 193.923C850.714 163.994 881.823 187.431 897.663 159.67C913.503 131.909 891.172 133.228 838.044 114.741C784.915 96.254 789.144 93.7719 757.412 112.959Z" fill="#FF50ED"/>
</g>
<mask id="mask2_1425_6231" style="mask-type:alpha" maskUnits="userSpaceOnUse" x="349" y="-153" width="970" height="966">
<path d="M659.971 812.876L349.696 269.361L688.879 -66.1064L831.595 -152.262L1194.74 -46.7956L1318.73 197.468L963.039 548.876L659.971 812.876Z" fill="url(#paint2_linear_1425_6231)"/>
</mask>
<g mask="url(#mask2_1425_6231)">
<mask id="mask3_1425_6231" style="mask-type:alpha" maskUnits="userSpaceOnUse" x="284" y="-273" width="1059" height="1061">
<path d="M1342.26 157.47C1143.51 -43.1603 926.501 -262.06 917.265 -272.706L284.772 357.477L709.768 787.653L1342.26 157.47Z" fill="url(#paint3_linear_1425_6231)"/>
</mask>
<g mask="url(#mask3_1425_6231)">
<path d="M705.332 25.9108C635.761 94.6445 648.35 224.383 712.078 288.887C775.805 353.392 887.598 410.218 962.243 336.473C999.233 299.929 1086.75 298.676 1098.96 223.137C1111.39 146.24 1014.3 68.3145 982.153 35.7752C918.425 -28.729 774.904 -42.8228 705.332 25.9108Z" fill="#076BC8"/>
<g filter="url(#filter8_f_1425_6231)">
<path d="M711.625 30.6124C637.011 104.328 638.798 212.943 688.274 263.022C737.75 313.101 830.829 351.008 905.443 277.293C942.418 240.764 1021.67 231.189 1040.96 162.85C1060.6 93.2845 982.954 35.0288 957.996 9.76648C908.52 -40.3124 786.238 -43.1027 711.625 30.6124Z" fill="#076BC8"/>
</g>
<g filter="url(#filter9_f_1425_6231)">
<path d="M709.366 32.8441C625.738 115.465 634.032 243.568 695.124 305.405C756.216 367.242 867.94 417.219 951.568 334.599C993.009 293.656 1091.45 292.65 1110.26 213.213C1129.41 132.35 1029.52 54.0411 998.706 22.8474C937.614 -38.9894 792.993 -49.7763 709.366 32.8441Z" fill="#076BC8"/>
</g>
<g filter="url(#filter10_f_1425_6231)">
<path d="M719.636 62.6093C632.952 181.383 635.02 354.538 714.06 434.542C793.101 514.546 930.952 549.26 1031.25 450.174C1080.95 401.071 1230.98 425.145 1250.67 326.967C1270.71 227.026 1120.4 86.7893 1080.53 46.4312C1001.49 -33.5727 820.055 -74.9837 719.636 62.6093Z" fill="#076BC8"/>
</g>
<g filter="url(#filter11_f_1425_6231)">
<path d="M712.624 109.605C604.633 216.295 605.787 418.842 683.065 497.062C760.344 575.282 900.312 604.096 1008.3 497.406C1061.82 444.535 1156.29 410.193 1181.38 308.426C1206.93 204.831 1078.26 11.4614 1039.27 -27.997C961.995 -106.217 820.615 2.91446 712.624 109.605Z" fill="#076BC8"/>
</g>
<g filter="url(#filter12_f_1425_6231)">
<path d="M693.727 189.972C582.129 300.227 590.212 500.572 669.253 580.576C748.293 660.579 892.051 689.459 1003.65 579.204C1058.95 524.567 1034.6 334.754 1060.94 230.001C1087.76 123.366 964.746 29.2762 924.874 -11.0819C845.834 -91.0857 805.326 79.7172 693.727 189.972Z" fill="#076BC8"/>
</g>
<g filter="url(#filter13_f_1425_6231)">
<path d="M765.096 94.3226C667.447 190.796 687.54 379.276 766.58 459.28C845.62 539.284 982.09 575.364 1079.74 478.891C1128.13 431.084 1207.91 394.319 1226.04 297.68C1244.49 199.305 1123.39 103.337 1083.51 62.9785C1004.47 -17.0253 862.744 -2.15035 765.096 94.3226Z" fill="#076BC8"/>
</g>
</g>
</g>
<mask id="mask4_1425_6231" style="mask-type:alpha" maskUnits="userSpaceOnUse" x="243" y="-284" width="1321" height="1406">
<path d="M835.037 1121.19C1072.63 973.216 1550.95 675.683 1563.41 669.336L972.268 -283.578L243.891 168.275L835.037 1121.19Z" fill="url(#paint4_linear_1425_6231)"/>
</mask>
<g mask="url(#mask4_1425_6231)">
<path d="M1283.19 288.586C1199.56 202.606 1075.27 143.593 998.902 190.97C922.531 238.347 849.297 344.028 920.832 459.341C956.281 516.484 904.105 546.342 984.252 590.64C1065.84 635.733 1160.25 555.402 1198.78 531.502C1275.15 484.125 1366.82 374.566 1283.19 288.586Z" fill="#30DAFF"/>
<path d="M1270.98 278.911C1116.2 150.083 1081.54 141.6 1015.89 182.324C950.249 223.048 891.079 319.98 962.585 435.245C998.019 492.365 950.438 517.437 1025.23 565.021C1101.36 613.459 1183.02 541.051 1216.13 520.507C1281.78 479.783 1351.81 339.822 1270.98 278.911Z" fill="#30DAFF"/>
<g filter="url(#filter15_f_1425_6231)">
<path d="M1275.28 290.443C1115.29 120.871 954.901 108.636 873.968 158.843C793.034 209.051 809.662 339.843 889.806 469.033C929.521 533.054 839.254 529.848 926.742 580.907C1015.8 632.883 1140.51 550.143 1181.33 524.815C1262.27 474.608 1355.42 419.633 1275.28 290.443Z" fill="#30DAFF"/>
</g>
<g filter="url(#filter16_f_1425_6231)">
<path d="M1256.45 281.477C1117.71 129.818 899.113 30.3485 804.391 89.11C709.669 147.871 709.09 329.291 805.207 484.229C852.837 561.009 736.088 603.27 839.846 665.229C945.469 728.3 1061.56 627.042 1109.34 597.4C1204.06 538.638 1395.19 433.136 1256.45 281.477Z" fill="#30DAFF"/>
</g>
<g filter="url(#filter17_f_1425_6231)">
<path d="M1133.99 187.888C883.436 -0.92732 874.639 0.559142 782.028 58.0106C689.418 115.462 638.879 280.961 742.372 447.789C793.658 530.46 822.778 540.455 929.827 610.066C1038.8 680.927 1171.5 560.218 1218.22 531.236C1310.83 473.785 1279.29 297.386 1133.99 187.888Z" fill="#30DAFF"/>
</g>
<g filter="url(#filter18_f_1425_6231)">
<path d="M1107.52 209.523C1000.57 37.1213 783.678 -33.8624 688.956 24.8991C594.234 83.6606 547.716 237.266 654.666 409.667C707.665 495.1 793.936 642.072 904.073 714.312C1016.19 787.85 1109.88 533.048 1157.66 503.406C1252.38 444.644 1214.47 381.924 1107.52 209.523Z" fill="#30DAFF"/>
</g>
<g filter="url(#filter19_f_1425_6231)">
<path d="M1203.02 329.851C1109.44 179 904.056 126.569 809.334 185.33C714.611 244.092 661.109 386.437 754.69 537.288C801.064 612.042 743.842 576.049 846.108 635.601C950.211 696.223 1066.65 595.522 1114.43 565.879C1209.15 507.118 1296.6 480.702 1203.02 329.851Z" fill="#30DAFF"/>
</g>
</g>
<g opacity="0.6" filter="url(#filter20_f_1425_6231)">
<path d="M782.637 507.77C897.95 594.668 1109.41 590.942 1153.61 532.289C1197.81 473.636 1384.11 404.674 1010.71 306.984C895.396 220.085 844.472 3.29276 736.026 217.601C691.826 276.254 860.709 302.31 782.637 507.77Z" fill="#02FFF0"/>
</g>
<defs>
<filter id="filter0_f_1425_6231" x="489.574" y="5.06527" width="827.929" height="766.29" filterUnits="userSpaceOnUse" color-interpolation-filters="sRGB">
<feFlood flood-opacity="0" result="BackgroundImageFix"/>
<feBlend mode="normal" in="SourceGraphic" in2="BackgroundImageFix" result="shape"/>
<feGaussianBlur stdDeviation="58.7975" result="effect1_foregroundBlur_1425_6231"/>
</filter>
<filter id="filter1_f_1425_6231" x="465.069" y="149.764" width="421.131" height="451.682" filterUnits="userSpaceOnUse" color-interpolation-filters="sRGB">
<feFlood flood-opacity="0" result="BackgroundImageFix"/>
<feBlend mode="normal" in="SourceGraphic" in2="BackgroundImageFix" result="shape"/>
<feGaussianBlur stdDeviation="2.3519" result="effect1_foregroundBlur_1425_6231"/>
</filter>
<filter id="filter2_f_1425_6231" x="450.867" y="54.3373" width="507.041" height="563.335" filterUnits="userSpaceOnUse" color-interpolation-filters="sRGB">
<feFlood flood-opacity="0" result="BackgroundImageFix"/>
<feBlend mode="normal" in="SourceGraphic" in2="BackgroundImageFix" result="shape"/>
<feGaussianBlur stdDeviation="8.23164" result="effect1_foregroundBlur_1425_6231"/>
</filter>
<filter id="filter3_f_1425_6231" x="441.962" y="-62.8605" width="630.536" height="693.139" filterUnits="userSpaceOnUse" color-interpolation-filters="sRGB">
<feFlood flood-opacity="0" result="BackgroundImageFix"/>
<feBlend mode="normal" in="SourceGraphic" in2="BackgroundImageFix" result="shape"/>
<feGaussianBlur stdDeviation="11.7595" result="effect1_foregroundBlur_1425_6231"/>
</filter>
<filter id="filter4_f_1425_6231" x="438.879" y="-41.8244" width="756.311" height="727.4" filterUnits="userSpaceOnUse" color-interpolation-filters="sRGB">
<feFlood flood-opacity="0" result="BackgroundImageFix"/>
<feBlend mode="normal" in="SourceGraphic" in2="BackgroundImageFix" result="shape"/>
<feGaussianBlur stdDeviation="31.7506" result="effect1_foregroundBlur_1425_6231"/>
</filter>
<filter id="filter5_f_1425_6231" x="421.542" y="-142" width="963.843" height="932.406" filterUnits="userSpaceOnUse" color-interpolation-filters="sRGB">
<feFlood flood-opacity="0" result="BackgroundImageFix"/>
<feBlend mode="normal" in="SourceGraphic" in2="BackgroundImageFix" result="shape"/>
<feGaussianBlur stdDeviation="78.7886" result="effect1_foregroundBlur_1425_6231"/>
</filter>
<filter id="filter6_f_1425_6231" x="406.706" y="-97.3188" width="740.129" height="715.104" filterUnits="userSpaceOnUse" color-interpolation-filters="sRGB">
<feFlood flood-opacity="0" result="BackgroundImageFix"/>
<feBlend mode="normal" in="SourceGraphic" in2="BackgroundImageFix" result="shape"/>
<feGaussianBlur stdDeviation="36.4544" result="effect1_foregroundBlur_1425_6231"/>
</filter>
<filter id="filter7_f_1425_6231" x="501.079" y="19.7126" width="762.052" height="645.038" filterUnits="userSpaceOnUse" color-interpolation-filters="sRGB">
<feFlood flood-opacity="0" result="BackgroundImageFix"/>
<feBlend mode="normal" in="SourceGraphic" in2="BackgroundImageFix" result="shape"/>
<feGaussianBlur stdDeviation="39.9823" result="effect1_foregroundBlur_1425_6231"/>
</filter>
<filter id="filter8_f_1425_6231" x="648.358" y="-31.1854" width="400.457" height="354.428" filterUnits="userSpaceOnUse" color-interpolation-filters="sRGB">
<feFlood flood-opacity="0" result="BackgroundImageFix"/>
<feBlend mode="normal" in="SourceGraphic" in2="BackgroundImageFix" result="shape"/>
<feGaussianBlur stdDeviation="2.3519" result="effect1_foregroundBlur_1425_6231"/>
</filter>
<filter id="filter9_f_1425_6231" x="631.488" y="-42.7894" width="497.653" height="437.227" filterUnits="userSpaceOnUse" color-interpolation-filters="sRGB">
<feFlood flood-opacity="0" result="BackgroundImageFix"/>
<feBlend mode="normal" in="SourceGraphic" in2="BackgroundImageFix" result="shape"/>
<feGaussianBlur stdDeviation="8.23164" result="effect1_foregroundBlur_1425_6231"/>
</filter>
<filter id="filter10_f_1425_6231" x="631.176" y="-50.8685" width="644.846" height="585.202" filterUnits="userSpaceOnUse" color-interpolation-filters="sRGB">
<feFlood flood-opacity="0" result="BackgroundImageFix"/>
<feBlend mode="normal" in="SourceGraphic" in2="BackgroundImageFix" result="shape"/>
<feGaussianBlur stdDeviation="11.7595" result="effect1_foregroundBlur_1425_6231"/>
</filter>
<filter id="filter11_f_1425_6231" x="564.457" y="-118.069" width="683.757" height="748.572" filterUnits="userSpaceOnUse" color-interpolation-filters="sRGB">
<feFlood flood-opacity="0" result="BackgroundImageFix"/>
<feBlend mode="normal" in="SourceGraphic" in2="BackgroundImageFix" result="shape"/>
<feGaussianBlur stdDeviation="31.7506" result="effect1_foregroundBlur_1425_6231"/>
</filter>
<filter id="filter12_f_1425_6231" x="452.29" y="-189.299" width="770.013" height="998.481" filterUnits="userSpaceOnUse" color-interpolation-filters="sRGB">
<feFlood flood-opacity="0" result="BackgroundImageFix"/>
<feBlend mode="normal" in="SourceGraphic" in2="BackgroundImageFix" result="shape"/>
<feGaussianBlur stdDeviation="78.7886" result="effect1_foregroundBlur_1425_6231"/>
</filter>
<filter id="filter13_f_1425_6231" x="626.425" y="-61.5682" width="674.422" height="671.348" filterUnits="userSpaceOnUse" color-interpolation-filters="sRGB">
<feFlood flood-opacity="0" result="BackgroundImageFix"/>
<feBlend mode="normal" in="SourceGraphic" in2="BackgroundImageFix" result="shape"/>
<feGaussianBlur stdDeviation="36.4544" result="effect1_foregroundBlur_1425_6231"/>
</filter>
<filter id="filter15_f_1425_6231" x="804.41" y="116.47" width="517.999" height="497.722" filterUnits="userSpaceOnUse" color-interpolation-filters="sRGB">
<feFlood flood-opacity="0" result="BackgroundImageFix"/>
<feBlend mode="normal" in="SourceGraphic" in2="BackgroundImageFix" result="shape"/>
<feGaussianBlur stdDeviation="8.23164" result="effect1_foregroundBlur_1425_6231"/>
</filter>
<filter id="filter16_f_1425_6231" x="709.715" y="48.4731" width="619.117" height="660.585" filterUnits="userSpaceOnUse" color-interpolation-filters="sRGB">
<feFlood flood-opacity="0" result="BackgroundImageFix"/>
<feBlend mode="normal" in="SourceGraphic" in2="BackgroundImageFix" result="shape"/>
<feGaussianBlur stdDeviation="11.7595" result="effect1_foregroundBlur_1425_6231"/>
</filter>
<filter id="filter17_f_1425_6231" x="621.426" y="-39.5119" width="712.661" height="735.048" filterUnits="userSpaceOnUse" color-interpolation-filters="sRGB">
<feFlood flood-opacity="0" result="BackgroundImageFix"/>
<feBlend mode="normal" in="SourceGraphic" in2="BackgroundImageFix" result="shape"/>
<feGaussianBlur stdDeviation="31.7506" result="effect1_foregroundBlur_1425_6231"/>
</filter>
<filter id="filter18_f_1425_6231" x="435.67" y="-152.98" width="933.651" height="1038.14" filterUnits="userSpaceOnUse" color-interpolation-filters="sRGB">
<feFlood flood-opacity="0" result="BackgroundImageFix"/>
<feBlend mode="normal" in="SourceGraphic" in2="BackgroundImageFix" result="shape"/>
<feGaussianBlur stdDeviation="78.7886" result="effect1_foregroundBlur_1425_6231"/>
</filter>
<filter id="filter19_f_1425_6231" x="632.947" y="88.89" width="683.023" height="638.686" filterUnits="userSpaceOnUse" color-interpolation-filters="sRGB">
<feFlood flood-opacity="0" result="BackgroundImageFix"/>
<feBlend mode="normal" in="SourceGraphic" in2="BackgroundImageFix" result="shape"/>
<feGaussianBlur stdDeviation="36.4544" result="effect1_foregroundBlur_1425_6231"/>
</filter>
<filter id="filter20_f_1425_6231" x="629.744" y="27.0858" width="708.208" height="646.585" filterUnits="userSpaceOnUse" color-interpolation-filters="sRGB">
<feFlood flood-opacity="0" result="BackgroundImageFix"/>
<feBlend mode="normal" in="SourceGraphic" in2="BackgroundImageFix" result="shape"/>
<feGaussianBlur stdDeviation="49.3899" result="effect1_foregroundBlur_1425_6231"/>
</filter>
<linearGradient id="paint0_linear_1425_6231" x1="707.523" y1="360.636" x2="629.557" y2="39.5822" gradientUnits="userSpaceOnUse">
<stop stop-color="#C4C4C4"/>
<stop offset="1" stop-color="#C4C4C4" stop-opacity="0"/>
</linearGradient>
<linearGradient id="paint1_linear_1425_6231" x1="572.803" y1="540.005" x2="864.583" y2="177.434" gradientUnits="userSpaceOnUse">
<stop stop-color="#C4C4C4"/>
<stop offset="1" stop-color="#C4C4C4" stop-opacity="0"/>
</linearGradient>
<linearGradient id="paint2_linear_1425_6231" x1="695.32" y1="240.457" x2="941.821" y2="33.9362" gradientUnits="userSpaceOnUse">
<stop stop-color="#C4C4C4"/>
<stop offset="0.943414" stop-color="#C4C4C4" stop-opacity="0"/>
</linearGradient>
<linearGradient id="paint3_linear_1425_6231" x1="780.657" y1="100.206" x2="1068.94" y2="336.628" gradientUnits="userSpaceOnUse">
<stop stop-color="#C4C4C4"/>
<stop offset="1" stop-color="#C4C4C4" stop-opacity="0"/>
</linearGradient>
<linearGradient id="paint4_linear_1425_6231" x1="1272.44" y1="298.099" x2="628.843" y2="358.061" gradientUnits="userSpaceOnUse">
<stop stop-color="#C4C4C4"/>
<stop offset="1" stop-color="#C4C4C4" stop-opacity="0"/>
</linearGradient>
</defs>
</svg>
