<svg width="144" height="61" viewBox="0 0 144 61" fill="none" xmlns="http://www.w3.org/2000/svg">
<path d="M1.3201 47.3042C0.710612 46.715 0.694013 45.7434 1.28302 45.134C1.87203 44.5246 2.84359 44.5081 3.45308 45.0972L1.3201 47.3042ZM40.2319 57.0243L39.6988 55.5851L40.2319 57.0243ZM60.7955 23.7426L59.4336 24.4499L60.7955 23.7426ZM46.2287 17.8302L46.8866 19.2169L46.2287 17.8302ZM41.0735 31.0253L42.5921 30.8037L41.0735 31.0253ZM80.2535 43.8523L80.8537 45.2649L80.2535 43.8523ZM97.9241 11.5357L99.319 10.896L97.9241 11.5357ZM87.1165 6.74803L86.7205 5.26517L87.1165 6.74803ZM124.706 30.4287L123.85 29.1553L124.706 30.4287ZM140.361 2.24092L139.324 1.10873C139.742 0.726787 140.335 0.605398 140.869 0.792843C141.403 0.98029 141.79 1.44617 141.877 2.00519L140.361 2.24092ZM133.605 10.5059C132.979 11.0782 132.009 11.0352 131.436 10.4099C130.864 9.78464 130.907 8.81383 131.532 8.24157L133.605 10.5059ZM143.594 13.0423C143.724 13.8798 143.151 14.6644 142.314 14.7945C141.476 14.9247 140.691 14.3513 140.561 13.5137L143.594 13.0423ZM2.38659 46.2007C3.45308 45.0972 3.45276 45.0969 3.45252 45.0967C3.45253 45.0967 3.45235 45.0965 3.45238 45.0965C3.45242 45.0966 3.45275 45.0969 3.45336 45.0975C3.45457 45.0987 3.4569 45.1009 3.46034 45.1042C3.46722 45.1107 3.47853 45.1215 3.49421 45.1363C3.52556 45.1659 3.57437 45.2117 3.64008 45.2723C3.77152 45.3935 3.97049 45.5739 4.23263 45.8031C4.75711 46.2617 5.53335 46.9147 6.5265 47.679C8.51565 49.2098 11.3599 51.1756 14.7817 52.921C21.6575 56.4284 30.6421 58.9393 39.6988 55.5851L40.7651 58.4636C30.5559 62.2446 20.6178 59.3436 13.3874 55.6554C9.75606 53.803 6.75137 51.725 4.65481 50.1115C3.60511 49.3037 2.77932 48.6094 2.21247 48.1138C1.92895 47.8659 1.70994 47.6674 1.55981 47.529C1.48474 47.4598 1.42687 47.4056 1.38674 47.3677C1.36667 47.3487 1.35104 47.3338 1.33991 47.3232C1.33435 47.3179 1.32991 47.3136 1.3266 47.3104C1.32495 47.3089 1.32358 47.3075 1.3225 47.3065C1.32195 47.306 1.32135 47.3054 1.32108 47.3051C1.32055 47.3046 1.3201 47.3042 2.38659 46.2007ZM39.6988 55.5851C46.8131 52.9503 53.2039 47.7535 57.066 41.8526C60.9426 35.9292 62.1065 29.5968 59.4336 24.4499L62.1575 23.0354C65.538 29.545 63.8419 37.1047 59.6342 43.5338C55.412 49.9852 48.4943 55.601 40.7651 58.4636L39.6988 55.5851ZM59.4336 24.4499C58.6642 22.9684 56.8178 20.9653 54.4382 19.6954C52.0927 18.4438 49.4399 18.0055 46.8866 19.2169L45.5707 16.4436C49.2609 14.6927 52.9678 15.4317 55.8829 16.9874C58.764 18.5249 61.0792 20.9591 62.1575 23.0354L59.4336 24.4499ZM46.8866 19.2169C44.4533 20.3714 43.2684 22.256 42.7279 24.3624C42.1722 26.5278 42.3136 28.8964 42.5921 30.8037L39.555 31.2469C39.2543 29.188 39.0498 26.3461 39.7548 23.599C40.4749 20.7929 42.1572 18.0631 45.5707 16.4436L46.8866 19.2169ZM42.5921 30.8037C43.6856 38.2907 49.0762 42.734 56.2673 44.5726C63.5042 46.4228 72.3505 45.5423 79.6532 42.4397L80.8537 45.2649C73.0031 48.6003 63.468 49.5816 55.5075 47.5464C47.5013 45.4996 40.8787 40.3103 39.555 31.2469L42.5921 30.8037ZM79.6532 42.4397C85.9098 39.7816 91.5539 35.1483 94.9022 29.6883C98.2342 24.2547 99.2487 18.1039 96.5292 12.1755L99.319 10.896C102.56 17.9616 101.255 25.201 97.5188 31.2932C93.7991 37.3589 87.6276 42.3869 80.8537 45.2649L79.6532 42.4397ZM96.5292 12.1755C95.6871 10.3398 94.4895 9.10849 93.0523 8.44902C91.6127 7.78846 89.7713 7.62796 87.5125 8.2309L86.7205 5.26517C89.5211 4.51765 92.1162 4.6425 94.3319 5.65915C96.55 6.67689 98.2266 8.51464 99.319 10.896L96.5292 12.1755ZM87.5125 8.2309C85.5045 8.76686 84.2778 9.92602 83.5356 11.4995C82.762 13.1395 82.4891 15.2993 82.6274 17.7676L79.5628 17.9388C79.4099 15.208 79.6823 12.4733 80.7595 10.1896C81.8682 7.83922 83.7977 6.04534 86.7205 5.26517L87.5125 8.2309ZM82.6274 17.7676C83.0825 25.8937 89.7854 30.9499 98.5976 32.8699C107.396 34.7869 117.591 33.3671 123.85 29.1553L125.563 31.7021C118.453 36.4872 107.354 37.9193 97.9446 35.8691C88.5494 33.822 80.1314 28.0921 79.5628 17.9388L82.6274 17.7676ZM123.85 29.1553C128.695 25.8949 132.465 19.2251 135.055 13.0897C136.331 10.0659 137.287 7.25422 137.924 5.19785C138.243 4.17068 138.48 3.33453 138.638 2.75775C138.717 2.46943 138.775 2.2461 138.814 2.09634C138.833 2.02146 138.848 1.96499 138.857 1.92799C138.862 1.90949 138.865 1.89586 138.867 1.88724C138.868 1.88292 138.869 1.87986 138.869 1.87807C138.87 1.87717 138.87 1.8766 138.87 1.87634C138.87 1.8762 138.87 1.87625 138.87 1.87618C138.87 1.87631 138.87 1.87651 140.361 2.24092C141.851 2.60532 141.851 2.60569 141.851 2.60613C141.851 2.60639 141.851 2.60692 141.851 2.60743C141.851 2.60846 141.85 2.6098 141.85 2.61147C141.849 2.6148 141.848 2.61941 141.846 2.62528C141.844 2.63702 141.839 2.6538 141.834 2.67549C141.823 2.71886 141.807 2.78188 141.786 2.86346C141.744 3.02661 141.682 3.26406 141.599 3.5672C141.433 4.17335 141.186 5.04286 140.856 6.10661C140.198 8.23208 139.208 11.1433 137.883 14.2837C135.269 20.4769 131.212 27.9009 125.563 31.7021L123.85 29.1553ZM141.397 3.37311L133.605 10.5059L131.532 8.24157L139.324 1.10873L141.397 3.37311ZM141.877 2.00519L143.594 13.0423L140.561 13.5137L138.844 2.47665L141.877 2.00519Z" fill="url(#paint0_linear_724_4446)"/>
<defs>
<linearGradient id="paint0_linear_724_4446" x1="65.5893" y1="65.6533" x2="79.4168" y2="-9.04108" gradientUnits="userSpaceOnUse">
<stop stop-color="white"/>
<stop offset="1" stop-color="#999999"/>
</linearGradient>
</defs>
</svg>
