<svg width="24" height="25" viewBox="0 0 24 25" fill="none" xmlns="http://www.w3.org/2000/svg">
<path opacity="0.4" d="M17.95 8.21001L17.81 8.13001L16.42 7.33001L13.55 5.67001C12.67 5.16001 11.33 5.16001 10.45 5.67001L7.57998 7.33001L6.18998 8.14001L6.00998 8.24001C4.21998 9.44001 4.09998 9.66001 4.09998 11.59V16.2C4.09998 18.13 4.21998 18.35 6.04998 19.58L10.45 22.12C10.89 22.38 11.44 22.5 12 22.5C12.55 22.5 13.11 22.38 13.55 22.12L17.99 19.55C19.78 18.35 19.9 18.13 19.9 16.2V11.59C19.9 9.66001 19.78 9.44001 17.95 8.21001Z" fill="#E8881A"/>
<path d="M6.18994 8.14L7.57994 7.33L10.3199 5.75L10.4499 5.67C11.3299 5.16 12.6699 5.16 13.5499 5.67L13.6799 5.75L16.4199 7.33L17.8099 8.13V5.99C17.8099 3.74 16.5699 2.5 14.3199 2.5H9.66994C7.41994 2.5 6.18994 3.74 6.18994 5.99V8.14Z" fill="#E8881A"/>
<path d="M14.84 13.84L14.22 14.6C14.12 14.71 14.05 14.93 14.06 15.08L14.12 16.06C14.16 16.66 13.73 16.97 13.17 16.75L12.26 16.39C12.12 16.34 11.88 16.34 11.74 16.39L10.83 16.75C10.27 16.97 9.83999 16.66 9.87999 16.06L9.93999 15.08C9.94999 14.93 9.87999 14.71 9.77999 14.6L9.15999 13.84C8.76999 13.38 8.93999 12.87 9.51999 12.72L10.47 12.48C10.62 12.44 10.8 12.3 10.88 12.17L11.41 11.35C11.74 10.84 12.26 10.84 12.59 11.35L13.12 12.17C13.2 12.3 13.38 12.44 13.53 12.48L14.48 12.72C15.06 12.87 15.23 13.38 14.84 13.84Z" fill="#E8881A"/>
</svg>
