<svg width="249" height="57" viewBox="0 0 249 57" fill="none" xmlns="http://www.w3.org/2000/svg">
<rect x="0.5" y="0.5" width="248" height="56" rx="15.5" fill="url(#paint0_linear_1425_6453)"/>
<rect x="0.5" y="0.5" width="248" height="56" rx="15.5" stroke="url(#paint1_linear_1425_6453)"/>
<rect x="0.5" y="0.5" width="248" height="56" rx="15.5" stroke="url(#paint2_linear_1425_6453)"/>
<path d="M38.816 28.756C39.2213 28.82 39.5893 28.9853 39.92 29.252C40.2613 29.5187 40.528 29.8493 40.72 30.244C40.9227 30.6387 41.024 31.06 41.024 31.508C41.024 32.0733 40.88 32.5853 40.592 33.044C40.304 33.492 39.8827 33.8493 39.328 34.116C38.784 34.372 38.1387 34.5 37.392 34.5H33.232V23.348H37.232C37.9893 23.348 38.6347 23.476 39.168 23.732C39.7013 23.9773 40.1013 24.3133 40.368 24.74C40.6347 25.1667 40.768 25.6467 40.768 26.18C40.768 26.8413 40.5867 27.3907 40.224 27.828C39.872 28.2547 39.4027 28.564 38.816 28.756ZM34.688 28.164H37.136C37.8187 28.164 38.3467 28.004 38.72 27.684C39.0933 27.364 39.28 26.9213 39.28 26.356C39.28 25.7907 39.0933 25.348 38.72 25.028C38.3467 24.708 37.808 24.548 37.104 24.548H34.688V28.164ZM37.264 33.3C37.9893 33.3 38.5547 33.1293 38.96 32.788C39.3653 32.4467 39.568 31.972 39.568 31.364C39.568 30.7453 39.3547 30.26 38.928 29.908C38.5013 29.5453 37.9307 29.364 37.216 29.364H34.688V33.3H37.264ZM46.8685 34.644C46.0472 34.644 45.3005 34.4573 44.6285 34.084C43.9672 33.7107 43.4445 33.1827 43.0605 32.5C42.6872 31.8067 42.5005 31.0067 42.5005 30.1C42.5005 29.204 42.6925 28.4147 43.0765 27.732C43.4712 27.0387 44.0045 26.5107 44.6765 26.148C45.3485 25.7747 46.1005 25.588 46.9325 25.588C47.7645 25.588 48.5165 25.7747 49.1885 26.148C49.8605 26.5107 50.3885 27.0333 50.7725 27.716C51.1672 28.3987 51.3645 29.1933 51.3645 30.1C51.3645 31.0067 51.1618 31.8067 50.7565 32.5C50.3618 33.1827 49.8232 33.7107 49.1405 34.084C48.4578 34.4573 47.7005 34.644 46.8685 34.644ZM46.8685 33.364C47.3912 33.364 47.8818 33.2413 48.3405 32.996C48.7992 32.7507 49.1672 32.3827 49.4445 31.892C49.7325 31.4013 49.8765 30.804 49.8765 30.1C49.8765 29.396 49.7378 28.7987 49.4605 28.308C49.1832 27.8173 48.8205 27.4547 48.3725 27.22C47.9245 26.9747 47.4392 26.852 46.9165 26.852C46.3832 26.852 45.8925 26.9747 45.4445 27.22C45.0072 27.4547 44.6552 27.8173 44.3885 28.308C44.1218 28.7987 43.9885 29.396 43.9885 30.1C43.9885 30.8147 44.1165 31.4173 44.3725 31.908C44.6392 32.3987 44.9912 32.7667 45.4285 33.012C45.8658 33.2467 46.3458 33.364 46.8685 33.364ZM57.1029 34.644C56.2815 34.644 55.5349 34.4573 54.8629 34.084C54.2015 33.7107 53.6789 33.1827 53.2949 32.5C52.9215 31.8067 52.7349 31.0067 52.7349 30.1C52.7349 29.204 52.9269 28.4147 53.3109 27.732C53.7055 27.0387 54.2389 26.5107 54.9109 26.148C55.5829 25.7747 56.3349 25.588 57.1669 25.588C57.9989 25.588 58.7509 25.7747 59.4229 26.148C60.0949 26.5107 60.6229 27.0333 61.0069 27.716C61.4015 28.3987 61.5989 29.1933 61.5989 30.1C61.5989 31.0067 61.3962 31.8067 60.9909 32.5C60.5962 33.1827 60.0575 33.7107 59.3749 34.084C58.6922 34.4573 57.9349 34.644 57.1029 34.644ZM57.1029 33.364C57.6255 33.364 58.1162 33.2413 58.5749 32.996C59.0335 32.7507 59.4015 32.3827 59.6789 31.892C59.9669 31.4013 60.1109 30.804 60.1109 30.1C60.1109 29.396 59.9722 28.7987 59.6949 28.308C59.4175 27.8173 59.0549 27.4547 58.6069 27.22C58.1589 26.9747 57.6735 26.852 57.1509 26.852C56.6175 26.852 56.1269 26.9747 55.6789 27.22C55.2415 27.4547 54.8895 27.8173 54.6229 28.308C54.3562 28.7987 54.2229 29.396 54.2229 30.1C54.2229 30.8147 54.3509 31.4173 54.6069 31.908C54.8735 32.3987 55.2255 32.7667 55.6629 33.012C56.1002 33.2467 56.5802 33.364 57.1029 33.364ZM68.4093 34.5L64.9693 30.628V34.5H63.5133V22.66H64.9693V29.62L68.3453 25.732H70.3773L66.2493 30.1L70.3933 34.5H68.4093ZM75.4693 30.084C75.4693 29.188 75.6506 28.404 76.0133 27.732C76.3759 27.0493 76.8719 26.5213 77.5013 26.148C78.1413 25.7747 78.8506 25.588 79.6293 25.588C80.3973 25.588 81.0639 25.7533 81.6293 26.084C82.1946 26.4147 82.6159 26.8307 82.8933 27.332V25.732H84.3653V34.5H82.8933V32.868C82.6053 33.38 82.1733 33.8067 81.5973 34.148C81.0319 34.4787 80.3706 34.644 79.6133 34.644C78.8346 34.644 78.1306 34.452 77.5013 34.068C76.8719 33.684 76.3759 33.1453 76.0133 32.452C75.6506 31.7587 75.4693 30.9693 75.4693 30.084ZM82.8933 30.1C82.8933 29.4387 82.7599 28.8627 82.4933 28.372C82.2266 27.8813 81.8639 27.508 81.4053 27.252C80.9573 26.9853 80.4613 26.852 79.9173 26.852C79.3733 26.852 78.8773 26.98 78.4293 27.236C77.9813 27.492 77.6239 27.8653 77.3573 28.356C77.0906 28.8467 76.9573 29.4227 76.9573 30.084C76.9573 30.756 77.0906 31.3427 77.3573 31.844C77.6239 32.3347 77.9813 32.7133 78.4293 32.98C78.8773 33.236 79.3733 33.364 79.9173 33.364C80.4613 33.364 80.9573 33.236 81.4053 32.98C81.8639 32.7133 82.2266 32.3347 82.4933 31.844C82.7599 31.3427 82.8933 30.7613 82.8933 30.1ZM94.6594 26.932H92.8194V34.5H91.3634V26.932H90.2274V25.732H91.3634V25.108C91.3634 24.1267 91.614 23.412 92.1154 22.964C92.6274 22.5053 93.4434 22.276 94.5634 22.276V23.492C93.9234 23.492 93.47 23.62 93.2034 23.876C92.9474 24.1213 92.8194 24.532 92.8194 25.108V25.732H94.6594V26.932ZM97.813 27.156C98.069 26.6547 98.4317 26.2653 98.901 25.988C99.381 25.7107 99.9623 25.572 100.645 25.572V27.076H100.261C98.629 27.076 97.813 27.9613 97.813 29.732V34.5H96.357V25.732H97.813V27.156ZM110.326 29.78C110.326 30.0573 110.31 30.3507 110.278 30.66H103.27C103.323 31.524 103.616 32.2013 104.15 32.692C104.694 33.172 105.35 33.412 106.118 33.412C106.747 33.412 107.27 33.268 107.686 32.98C108.112 32.6813 108.411 32.2867 108.582 31.796H110.15C109.915 32.6387 109.446 33.3267 108.742 33.86C108.038 34.3827 107.163 34.644 106.118 34.644C105.286 34.644 104.539 34.4573 103.878 34.084C103.227 33.7107 102.715 33.1827 102.342 32.5C101.968 31.8067 101.782 31.0067 101.782 30.1C101.782 29.1933 101.963 28.3987 102.326 27.716C102.688 27.0333 103.195 26.5107 103.846 26.148C104.507 25.7747 105.264 25.588 106.118 25.588C106.95 25.588 107.686 25.7693 108.326 26.132C108.966 26.4947 109.456 26.996 109.798 27.636C110.15 28.2653 110.326 28.98 110.326 29.78ZM108.822 29.476C108.822 28.9213 108.699 28.4467 108.454 28.052C108.208 27.6467 107.872 27.3427 107.446 27.14C107.03 26.9267 106.566 26.82 106.054 26.82C105.318 26.82 104.688 27.0547 104.166 27.524C103.654 27.9933 103.36 28.644 103.286 29.476H108.822ZM120.248 29.78C120.248 30.0573 120.232 30.3507 120.2 30.66H113.192C113.245 31.524 113.538 32.2013 114.072 32.692C114.616 33.172 115.272 33.412 116.04 33.412C116.669 33.412 117.192 33.268 117.608 32.98C118.034 32.6813 118.333 32.2867 118.504 31.796H120.072C119.837 32.6387 119.368 33.3267 118.664 33.86C117.96 34.3827 117.085 34.644 116.04 34.644C115.208 34.644 114.461 34.4573 113.8 34.084C113.149 33.7107 112.637 33.1827 112.264 32.5C111.89 31.8067 111.704 31.0067 111.704 30.1C111.704 29.1933 111.885 28.3987 112.248 27.716C112.61 27.0333 113.117 26.5107 113.768 26.148C114.429 25.7747 115.186 25.588 116.04 25.588C116.872 25.588 117.608 25.7693 118.248 26.132C118.888 26.4947 119.378 26.996 119.72 27.636C120.072 28.2653 120.248 28.98 120.248 29.78ZM118.744 29.476C118.744 28.9213 118.621 28.4467 118.376 28.052C118.13 27.6467 117.794 27.3427 117.368 27.14C116.952 26.9267 116.488 26.82 115.976 26.82C115.24 26.82 114.61 27.0547 114.088 27.524C113.576 27.9933 113.282 28.644 113.208 29.476H118.744ZM125.891 28.916C125.891 27.828 126.136 26.852 126.627 25.988C127.118 25.1133 127.784 24.4307 128.627 23.94C129.48 23.4493 130.424 23.204 131.459 23.204C132.675 23.204 133.736 23.4973 134.643 24.084C135.55 24.6707 136.211 25.5027 136.627 26.58H134.883C134.574 25.908 134.126 25.3907 133.539 25.028C132.963 24.6653 132.27 24.484 131.459 24.484C130.68 24.484 129.982 24.6653 129.363 25.028C128.744 25.3907 128.259 25.908 127.907 26.58C127.555 27.2413 127.379 28.02 127.379 28.916C127.379 29.8013 127.555 30.58 127.907 31.252C128.259 31.9133 128.744 32.4253 129.363 32.788C129.982 33.1507 130.68 33.332 131.459 33.332C132.27 33.332 132.963 33.156 133.539 32.804C134.126 32.4413 134.574 31.924 134.883 31.252H136.627C136.211 32.3187 135.55 33.1453 134.643 33.732C133.736 34.308 132.675 34.596 131.459 34.596C130.424 34.596 129.48 34.356 128.627 33.876C127.784 33.3853 127.118 32.708 126.627 31.844C126.136 30.98 125.891 30.004 125.891 28.916ZM142.619 34.644C141.797 34.644 141.051 34.4573 140.379 34.084C139.717 33.7107 139.195 33.1827 138.811 32.5C138.437 31.8067 138.251 31.0067 138.251 30.1C138.251 29.204 138.443 28.4147 138.827 27.732C139.221 27.0387 139.755 26.5107 140.427 26.148C141.099 25.7747 141.851 25.588 142.683 25.588C143.515 25.588 144.267 25.7747 144.939 26.148C145.611 26.5107 146.139 27.0333 146.523 27.716C146.917 28.3987 147.115 29.1933 147.115 30.1C147.115 31.0067 146.912 31.8067 146.507 32.5C146.112 33.1827 145.573 33.7107 144.891 34.084C144.208 34.4573 143.451 34.644 142.619 34.644ZM142.619 33.364C143.141 33.364 143.632 33.2413 144.091 32.996C144.549 32.7507 144.917 32.3827 145.195 31.892C145.483 31.4013 145.627 30.804 145.627 30.1C145.627 29.396 145.488 28.7987 145.211 28.308C144.933 27.8173 144.571 27.4547 144.123 27.22C143.675 26.9747 143.189 26.852 142.667 26.852C142.133 26.852 141.643 26.9747 141.195 27.22C140.757 27.4547 140.405 27.8173 140.139 28.308C139.872 28.7987 139.739 29.396 139.739 30.1C139.739 30.8147 139.867 31.4173 140.123 31.908C140.389 32.3987 140.741 32.7667 141.179 33.012C141.616 33.2467 142.096 33.364 142.619 33.364ZM153.301 25.572C154.368 25.572 155.232 25.8973 155.893 26.548C156.554 27.188 156.885 28.116 156.885 29.332V34.5H155.445V29.54C155.445 28.6653 155.226 27.9987 154.789 27.54C154.352 27.0707 153.754 26.836 152.997 26.836C152.229 26.836 151.616 27.076 151.157 27.556C150.709 28.036 150.485 28.7347 150.485 29.652V34.5H149.029V25.732H150.485V26.98C150.773 26.532 151.162 26.1853 151.653 25.94C152.154 25.6947 152.704 25.572 153.301 25.572ZM162.367 34.644C161.695 34.644 161.093 34.532 160.559 34.308C160.026 34.0733 159.605 33.7533 159.295 33.348C158.986 32.932 158.815 32.4573 158.783 31.924H160.287C160.33 32.3613 160.533 32.7187 160.895 32.996C161.269 33.2733 161.754 33.412 162.351 33.412C162.906 33.412 163.343 33.2893 163.663 33.044C163.983 32.7987 164.143 32.4893 164.143 32.116C164.143 31.732 163.973 31.4493 163.631 31.268C163.29 31.076 162.762 30.8893 162.047 30.708C161.397 30.5373 160.863 30.3667 160.447 30.196C160.042 30.0147 159.69 29.7533 159.391 29.412C159.103 29.06 158.959 28.6013 158.959 28.036C158.959 27.588 159.093 27.1773 159.359 26.804C159.626 26.4307 160.005 26.1373 160.495 25.924C160.986 25.7 161.546 25.588 162.175 25.588C163.146 25.588 163.93 25.8333 164.527 26.324C165.125 26.8147 165.445 27.4867 165.487 28.34H164.031C163.999 27.8813 163.813 27.5133 163.471 27.236C163.141 26.9587 162.693 26.82 162.127 26.82C161.605 26.82 161.189 26.932 160.879 27.156C160.57 27.38 160.415 27.6733 160.415 28.036C160.415 28.324 160.506 28.564 160.687 28.756C160.879 28.9373 161.114 29.0867 161.391 29.204C161.679 29.3107 162.074 29.4333 162.575 29.572C163.205 29.7427 163.717 29.9133 164.111 30.084C164.506 30.244 164.842 30.4893 165.119 30.82C165.407 31.1507 165.557 31.5827 165.567 32.116C165.567 32.596 165.434 33.028 165.167 33.412C164.901 33.796 164.522 34.1 164.031 34.324C163.551 34.5373 162.997 34.644 162.367 34.644ZM175.399 25.732V34.5H173.943V33.204C173.665 33.652 173.276 34.004 172.775 34.26C172.284 34.5053 171.74 34.628 171.143 34.628C170.46 34.628 169.847 34.4893 169.303 34.212C168.759 33.924 168.327 33.4973 168.007 32.932C167.697 32.3667 167.543 31.6787 167.543 30.868V25.732H168.983V30.676C168.983 31.54 169.201 32.2067 169.639 32.676C170.076 33.1347 170.673 33.364 171.431 33.364C172.209 33.364 172.823 33.124 173.271 32.644C173.719 32.164 173.943 31.4653 173.943 30.548V25.732H175.399ZM179.313 22.66V34.5H177.857V22.66H179.313ZM183.571 26.932V32.1C183.571 32.5267 183.661 32.8307 183.843 33.012C184.024 33.1827 184.339 33.268 184.786 33.268H185.859V34.5H184.547C183.736 34.5 183.128 34.3133 182.723 33.94C182.317 33.5667 182.115 32.9533 182.115 32.1V26.932H180.979V25.732H182.115V23.524H183.571V25.732H185.859V26.932H183.571Z" fill="white"/>
<path d="M214.228 22.9358L219.792 28.5L214.228 34.0641" stroke="white" stroke-width="2" stroke-miterlimit="10" stroke-linecap="round" stroke-linejoin="round"/>
<path d="M204.208 28.5H219.636" stroke="white" stroke-width="1.5" stroke-miterlimit="10" stroke-linecap="round" stroke-linejoin="round"/>
<defs>
<linearGradient id="paint0_linear_1425_6453" x1="4.62016e-07" y1="49.1379" x2="242.403" y2="-27.0397" gradientUnits="userSpaceOnUse">
<stop stop-color="#8E15BA"/>
<stop offset="1" stop-color="#5175F0"/>
</linearGradient>
<linearGradient id="paint1_linear_1425_6453" x1="17.5" y1="57" x2="37" y2="37" gradientUnits="userSpaceOnUse">
<stop stop-color="white"/>
<stop offset="1" stop-color="#999999" stop-opacity="0.2"/>
</linearGradient>
<linearGradient id="paint2_linear_1425_6453" x1="222.5" y1="44" x2="253" y2="11" gradientUnits="userSpaceOnUse">
<stop stop-color="white" stop-opacity="0"/>
<stop offset="1" stop-color="white"/>
</linearGradient>
</defs>
</svg>
