<svg width="32" height="32" viewBox="0 0 32 32" fill="none" xmlns="http://www.w3.org/2000/svg">
<path d="M29.3346 22.3199V6.22659C29.3346 4.62659 28.028 3.43993 26.4413 3.57326H26.3613C23.5613 3.81326 19.308 5.23993 16.9346 6.73326L16.708 6.87993C16.3213 7.11993 15.6813 7.11993 15.2946 6.87993L14.9613 6.67993C12.588 5.19993 8.34797 3.78659 5.54797 3.55993C3.9613 3.42659 2.66797 4.62659 2.66797 6.21326V22.3199C2.66797 23.5999 3.70797 24.7999 4.98797 24.9599L5.37464 25.0133C8.26797 25.3999 12.7346 26.8666 15.2946 28.2666L15.348 28.2933C15.708 28.4933 16.2813 28.4933 16.628 28.2933C19.188 26.8799 23.668 25.3999 26.5746 25.0133L27.0146 24.9599C28.2946 24.7999 29.3346 23.5999 29.3346 22.3199Z" stroke="#737171" stroke-width="1.3" stroke-linecap="round" stroke-linejoin="round"/>
<path d="M16 7.32031V27.3203" stroke="#737171" stroke-width="1.3" stroke-linecap="round" stroke-linejoin="round"/>
<path d="M10.332 11.3203H7.33203" stroke="#737171" stroke-width="1.3" stroke-linecap="round" stroke-linejoin="round"/>
<path d="M11.332 15.3203H7.33203" stroke="#737171" stroke-width="1.3" stroke-linecap="round" stroke-linejoin="round"/>
</svg>
