<svg width="156" height="54" viewBox="0 0 156 54" fill="none" xmlns="http://www.w3.org/2000/svg">
<path d="M0.5 27C0.5 12.3645 12.3645 0.5 27 0.5H129C143.636 0.5 155.5 12.3645 155.5 27C155.5 41.6355 143.636 53.5 129 53.5H27C12.3645 53.5 0.5 41.6355 0.5 27Z" fill="#292727"/>
<path d="M0.5 27C0.5 12.3645 12.3645 0.5 27 0.5H129C143.636 0.5 155.5 12.3645 155.5 27C155.5 41.6355 143.636 53.5 129 53.5H27C12.3645 53.5 0.5 41.6355 0.5 27Z" stroke="url(#paint0_linear_1425_6468)"/>
<path d="M0.5 27C0.5 12.3645 12.3645 0.5 27 0.5H129C143.636 0.5 155.5 12.3645 155.5 27C155.5 41.6355 143.636 53.5 129 53.5H27C12.3645 53.5 0.5 41.6355 0.5 27Z" stroke="url(#paint1_linear_1425_6468)"/>
<path d="M43.032 20.048V25.64H49.128V27.44H43.032V33.2H49.848V35H40.848V18.248H49.848V20.048H43.032ZM58.0487 32.984L62.1287 21.848H64.4567L59.2967 35H56.7527L51.5927 21.848H53.9447L58.0487 32.984ZM78.6058 27.92C78.6058 28.336 78.5818 28.776 78.5338 29.24H68.0218C68.1018 30.536 68.5418 31.552 69.3418 32.288C70.1578 33.008 71.1418 33.368 72.2938 33.368C73.2378 33.368 74.0218 33.152 74.6458 32.72C75.2858 32.272 75.7338 31.68 75.9898 30.944H78.3418C77.9898 32.208 77.2858 33.24 76.2298 34.04C75.1738 34.824 73.8618 35.216 72.2938 35.216C71.0458 35.216 69.9258 34.936 68.9338 34.376C67.9578 33.816 67.1898 33.024 66.6298 32C66.0698 30.96 65.7898 29.76 65.7898 28.4C65.7898 27.04 66.0618 25.848 66.6058 24.824C67.1498 23.8 67.9098 23.016 68.8858 22.472C69.8778 21.912 71.0138 21.632 72.2938 21.632C73.5418 21.632 74.6458 21.904 75.6058 22.448C76.5658 22.992 77.3018 23.744 77.8138 24.704C78.3418 25.648 78.6058 26.72 78.6058 27.92ZM76.3498 27.464C76.3498 26.632 76.1658 25.92 75.7978 25.328C75.4298 24.72 74.9258 24.264 74.2858 23.96C73.6618 23.64 72.9658 23.48 72.1978 23.48C71.0938 23.48 70.1498 23.832 69.3658 24.536C68.5978 25.24 68.1578 26.216 68.0458 27.464H76.3498ZM87.8966 21.608C89.4966 21.608 90.7926 22.096 91.7846 23.072C92.7766 24.032 93.2726 25.424 93.2726 27.248V35H91.1126V27.56C91.1126 26.248 90.7846 25.248 90.1286 24.56C89.4726 23.856 88.5766 23.504 87.4406 23.504C86.2886 23.504 85.3686 23.864 84.6806 24.584C84.0086 25.304 83.6726 26.352 83.6726 27.728V35H81.4886V21.848H83.6726V23.72C84.1046 23.048 84.6886 22.528 85.4246 22.16C86.1766 21.792 87.0006 21.608 87.8966 21.608ZM99.5042 23.648V31.4C99.5042 32.04 99.6402 32.496 99.9122 32.768C100.184 33.024 100.656 33.152 101.328 33.152H102.936V35H100.968C99.7522 35 98.8402 34.72 98.2322 34.16C97.6242 33.6 97.3202 32.68 97.3202 31.4V23.648H95.6162V21.848H97.3202V18.536H99.5042V21.848H102.936V23.648H99.5042ZM110.238 35.216C109.23 35.216 108.326 35.048 107.526 34.712C106.726 34.36 106.094 33.88 105.63 33.272C105.166 32.648 104.91 31.936 104.862 31.136H107.118C107.182 31.792 107.486 32.328 108.03 32.744C108.59 33.16 109.318 33.368 110.214 33.368C111.046 33.368 111.702 33.184 112.182 32.816C112.662 32.448 112.902 31.984 112.902 31.424C112.902 30.848 112.646 30.424 112.134 30.152C111.622 29.864 110.83 29.584 109.758 29.312C108.782 29.056 107.982 28.8 107.358 28.544C106.75 28.272 106.222 27.88 105.774 27.368C105.342 26.84 105.126 26.152 105.126 25.304C105.126 24.632 105.326 24.016 105.726 23.456C106.126 22.896 106.694 22.456 107.43 22.136C108.166 21.8 109.006 21.632 109.95 21.632C111.406 21.632 112.582 22 113.478 22.736C114.374 23.472 114.854 24.48 114.918 25.76H112.734C112.686 25.072 112.406 24.52 111.894 24.104C111.398 23.688 110.726 23.48 109.878 23.48C109.094 23.48 108.47 23.648 108.006 23.984C107.542 24.32 107.31 24.76 107.31 25.304C107.31 25.736 107.446 26.096 107.718 26.384C108.006 26.656 108.358 26.88 108.774 27.056C109.206 27.216 109.798 27.4 110.55 27.608C111.494 27.864 112.262 28.12 112.854 28.376C113.446 28.616 113.95 28.984 114.366 29.48C114.798 29.976 115.022 30.624 115.038 31.424C115.038 32.144 114.838 32.792 114.438 33.368C114.038 33.944 113.47 34.4 112.734 34.736C112.014 35.056 111.182 35.216 110.238 35.216Z" fill="white"/>
<defs>
<linearGradient id="paint0_linear_1425_6468" x1="152" y1="4.5" x2="129" y2="20.5" gradientUnits="userSpaceOnUse">
<stop stop-color="white"/>
<stop offset="1" stop-color="#999999" stop-opacity="0"/>
</linearGradient>
<linearGradient id="paint1_linear_1425_6468" x1="33" y1="27" x2="11" y2="54" gradientUnits="userSpaceOnUse">
<stop stop-color="white" stop-opacity="0"/>
<stop offset="1" stop-color="white"/>
</linearGradient>
</defs>
</svg>
