<svg width="294" height="57" viewBox="0 0 294 57" fill="none" xmlns="http://www.w3.org/2000/svg">
<rect x="0.5" y="0.5" width="293" height="56" rx="15.5" fill="url(#paint0_linear_724_4451)"/>
<rect x="0.5" y="0.5" width="293" height="56" rx="15.5" stroke="url(#paint1_linear_724_4451)"/>
<rect x="0.5" y="0.5" width="293" height="56" rx="15.5" stroke="url(#paint2_linear_724_4451)"/>
<path d="M34.688 24.532V28.26H38.752V29.46H34.688V33.3H39.232V34.5H33.232V23.332H39.232V24.532H34.688ZM46.0111 34.5L43.9311 31.236L41.9311 34.5H40.4111L43.2431 30.148L40.4111 25.732H42.0591L44.1391 28.98L46.1231 25.732H47.6431L44.8271 30.068L47.6591 34.5H46.0111ZM50.5474 27.348C50.8354 26.8467 51.262 26.4307 51.8274 26.1C52.4034 25.7587 53.07 25.588 53.8274 25.588C54.606 25.588 55.31 25.7747 55.9394 26.148C56.5794 26.5213 57.0807 27.0493 57.4434 27.732C57.806 28.404 57.9874 29.188 57.9874 30.084C57.9874 30.9693 57.806 31.7587 57.4434 32.452C57.0807 33.1453 56.5794 33.684 55.9394 34.068C55.31 34.452 54.606 34.644 53.8274 34.644C53.0807 34.644 52.4194 34.4787 51.8434 34.148C51.278 33.8067 50.846 33.3853 50.5474 32.884V38.66H49.0914V25.732H50.5474V27.348ZM56.4994 30.084C56.4994 29.4227 56.366 28.8467 56.0994 28.356C55.8327 27.8653 55.47 27.492 55.0114 27.236C54.5634 26.98 54.0674 26.852 53.5234 26.852C52.99 26.852 52.494 26.9853 52.0354 27.252C51.5874 27.508 51.2247 27.8867 50.9474 28.388C50.6807 28.8787 50.5474 29.4493 50.5474 30.1C50.5474 30.7613 50.6807 31.3427 50.9474 31.844C51.2247 32.3347 51.5874 32.7133 52.0354 32.98C52.494 33.236 52.99 33.364 53.5234 33.364C54.0674 33.364 54.5634 33.236 55.0114 32.98C55.47 32.7133 55.8327 32.3347 56.0994 31.844C56.366 31.3427 56.4994 30.756 56.4994 30.084ZM61.3599 22.66V34.5H59.9039V22.66H61.3599ZM67.6654 34.644C66.844 34.644 66.0974 34.4573 65.4254 34.084C64.764 33.7107 64.2414 33.1827 63.8574 32.5C63.484 31.8067 63.2974 31.0067 63.2974 30.1C63.2974 29.204 63.4894 28.4147 63.8734 27.732C64.268 27.0387 64.8014 26.5107 65.4734 26.148C66.1454 25.7747 66.8974 25.588 67.7294 25.588C68.5614 25.588 69.3134 25.7747 69.9854 26.148C70.6574 26.5107 71.1854 27.0333 71.5694 27.716C71.964 28.3987 72.1614 29.1933 72.1614 30.1C72.1614 31.0067 71.9587 31.8067 71.5534 32.5C71.1587 33.1827 70.62 33.7107 69.9374 34.084C69.2547 34.4573 68.4974 34.644 67.6654 34.644ZM67.6654 33.364C68.188 33.364 68.6787 33.2413 69.1374 32.996C69.596 32.7507 69.964 32.3827 70.2414 31.892C70.5294 31.4013 70.6734 30.804 70.6734 30.1C70.6734 29.396 70.5347 28.7987 70.2574 28.308C69.98 27.8173 69.6174 27.4547 69.1694 27.22C68.7214 26.9747 68.236 26.852 67.7134 26.852C67.18 26.852 66.6894 26.9747 66.2414 27.22C65.804 27.4547 65.452 27.8173 65.1854 28.308C64.9187 28.7987 64.7854 29.396 64.7854 30.1C64.7854 30.8147 64.9134 31.4173 65.1694 31.908C65.436 32.3987 65.788 32.7667 66.2254 33.012C66.6627 33.2467 67.1427 33.364 67.6654 33.364ZM75.5318 27.156C75.7878 26.6547 76.1504 26.2653 76.6198 25.988C77.0998 25.7107 77.6811 25.572 78.3638 25.572V27.076H77.9798C76.3478 27.076 75.5318 27.9613 75.5318 29.732V34.5H74.0758V25.732H75.5318V27.156ZM88.0445 29.78C88.0445 30.0573 88.0285 30.3507 87.9965 30.66H80.9885C81.0418 31.524 81.3352 32.2013 81.8685 32.692C82.4125 33.172 83.0685 33.412 83.8365 33.412C84.4658 33.412 84.9885 33.268 85.4045 32.98C85.8312 32.6813 86.1298 32.2867 86.3005 31.796H87.8685C87.6338 32.6387 87.1645 33.3267 86.4605 33.86C85.7565 34.3827 84.8818 34.644 83.8365 34.644C83.0045 34.644 82.2578 34.4573 81.5965 34.084C80.9458 33.7107 80.4338 33.1827 80.0605 32.5C79.6872 31.8067 79.5005 31.0067 79.5005 30.1C79.5005 29.1933 79.6818 28.3987 80.0445 27.716C80.4072 27.0333 80.9138 26.5107 81.5645 26.148C82.2258 25.7747 82.9832 25.588 83.8365 25.588C84.6685 25.588 85.4045 25.7693 86.0445 26.132C86.6845 26.4947 87.1752 26.996 87.5165 27.636C87.8685 28.2653 88.0445 28.98 88.0445 29.78ZM86.5405 29.476C86.5405 28.9213 86.4178 28.4467 86.1725 28.052C85.9272 27.6467 85.5912 27.3427 85.1645 27.14C84.7485 26.9267 84.2845 26.82 83.7725 26.82C83.0365 26.82 82.4072 27.0547 81.8845 27.524C81.3725 27.9933 81.0792 28.644 81.0045 29.476H86.5405ZM95.656 23.348V30.404C95.656 31.396 95.896 32.132 96.376 32.612C96.8667 33.092 97.544 33.332 98.408 33.332C99.2613 33.332 99.928 33.092 100.408 32.612C100.899 32.132 101.144 31.396 101.144 30.404V23.348H102.6V30.388C102.6 31.316 102.413 32.1 102.04 32.74C101.667 33.3693 101.16 33.8387 100.52 34.148C99.8907 34.4573 99.1813 34.612 98.392 34.612C97.6027 34.612 96.888 34.4573 96.248 34.148C95.6187 33.8387 95.1173 33.3693 94.744 32.74C94.3813 32.1 94.2 31.316 94.2 30.388V23.348H95.656ZM106.485 27.348C106.773 26.8467 107.2 26.4307 107.765 26.1C108.341 25.7587 109.008 25.588 109.765 25.588C110.544 25.588 111.248 25.7747 111.877 26.148C112.517 26.5213 113.018 27.0493 113.381 27.732C113.744 28.404 113.925 29.188 113.925 30.084C113.925 30.9693 113.744 31.7587 113.381 32.452C113.018 33.1453 112.517 33.684 111.877 34.068C111.248 34.452 110.544 34.644 109.765 34.644C109.018 34.644 108.357 34.4787 107.781 34.148C107.216 33.8067 106.784 33.3853 106.485 32.884V38.66H105.029V25.732H106.485V27.348ZM112.437 30.084C112.437 29.4227 112.304 28.8467 112.037 28.356C111.77 27.8653 111.408 27.492 110.949 27.236C110.501 26.98 110.005 26.852 109.461 26.852C108.928 26.852 108.432 26.9853 107.973 27.252C107.525 27.508 107.162 27.8867 106.885 28.388C106.618 28.8787 106.485 29.4493 106.485 30.1C106.485 30.7613 106.618 31.3427 106.885 31.844C107.162 32.3347 107.525 32.7133 107.973 32.98C108.432 33.236 108.928 33.364 109.461 33.364C110.005 33.364 110.501 33.236 110.949 32.98C111.408 32.7133 111.77 32.3347 112.037 31.844C112.304 31.3427 112.437 30.756 112.437 30.084ZM115.297 30.1C115.297 29.1933 115.479 28.404 115.841 27.732C116.204 27.0493 116.705 26.5213 117.345 26.148C117.996 25.7747 118.737 25.588 119.569 25.588C120.647 25.588 121.532 25.8493 122.225 26.372C122.929 26.8947 123.393 27.62 123.617 28.548H122.049C121.9 28.0147 121.607 27.5933 121.169 27.284C120.743 26.9747 120.209 26.82 119.569 26.82C118.737 26.82 118.065 27.108 117.553 27.684C117.041 28.2493 116.785 29.0547 116.785 30.1C116.785 31.156 117.041 31.972 117.553 32.548C118.065 33.124 118.737 33.412 119.569 33.412C120.209 33.412 120.743 33.2627 121.169 32.964C121.596 32.6653 121.889 32.2387 122.049 31.684H123.617C123.383 32.58 122.913 33.3 122.209 33.844C121.505 34.3773 120.625 34.644 119.569 34.644C118.737 34.644 117.996 34.4573 117.345 34.084C116.705 33.7107 116.204 33.1827 115.841 32.5C115.479 31.8173 115.297 31.0173 115.297 30.1ZM129.384 34.644C128.563 34.644 127.816 34.4573 127.144 34.084C126.483 33.7107 125.96 33.1827 125.576 32.5C125.203 31.8067 125.016 31.0067 125.016 30.1C125.016 29.204 125.208 28.4147 125.592 27.732C125.987 27.0387 126.52 26.5107 127.192 26.148C127.864 25.7747 128.616 25.588 129.448 25.588C130.28 25.588 131.032 25.7747 131.704 26.148C132.376 26.5107 132.904 27.0333 133.288 27.716C133.683 28.3987 133.88 29.1933 133.88 30.1C133.88 31.0067 133.677 31.8067 133.272 32.5C132.877 33.1827 132.339 33.7107 131.656 34.084C130.973 34.4573 130.216 34.644 129.384 34.644ZM129.384 33.364C129.907 33.364 130.397 33.2413 130.856 32.996C131.315 32.7507 131.683 32.3827 131.96 31.892C132.248 31.4013 132.392 30.804 132.392 30.1C132.392 29.396 132.253 28.7987 131.976 28.308C131.699 27.8173 131.336 27.4547 130.888 27.22C130.44 26.9747 129.955 26.852 129.432 26.852C128.899 26.852 128.408 26.9747 127.96 27.22C127.523 27.4547 127.171 27.8173 126.904 28.308C126.637 28.7987 126.504 29.396 126.504 30.1C126.504 30.8147 126.632 31.4173 126.888 31.908C127.155 32.3987 127.507 32.7667 127.944 33.012C128.381 33.2467 128.861 33.364 129.384 33.364ZM146.339 25.572C147.021 25.572 147.629 25.716 148.163 26.004C148.696 26.2813 149.117 26.7027 149.427 27.268C149.736 27.8333 149.891 28.5213 149.891 29.332V34.5H148.451V29.54C148.451 28.6653 148.232 27.9987 147.795 27.54C147.368 27.0707 146.787 26.836 146.051 26.836C145.293 26.836 144.691 27.0813 144.243 27.572C143.795 28.052 143.571 28.7507 143.571 29.668V34.5H142.131V29.54C142.131 28.6653 141.912 27.9987 141.475 27.54C141.048 27.0707 140.467 26.836 139.731 26.836C138.973 26.836 138.371 27.0813 137.923 27.572C137.475 28.052 137.251 28.7507 137.251 29.668V34.5H135.795V25.732H137.251V26.996C137.539 26.5373 137.923 26.1853 138.403 25.94C138.893 25.6947 139.432 25.572 140.019 25.572C140.755 25.572 141.405 25.7373 141.971 26.068C142.536 26.3987 142.957 26.884 143.235 27.524C143.48 26.9053 143.885 26.4253 144.451 26.084C145.016 25.7427 145.645 25.572 146.339 25.572ZM153.031 24.308C152.754 24.308 152.519 24.212 152.327 24.02C152.135 23.828 152.039 23.5933 152.039 23.316C152.039 23.0387 152.135 22.804 152.327 22.612C152.519 22.42 152.754 22.324 153.031 22.324C153.298 22.324 153.522 22.42 153.703 22.612C153.895 22.804 153.991 23.0387 153.991 23.316C153.991 23.5933 153.895 23.828 153.703 24.02C153.522 24.212 153.298 24.308 153.031 24.308ZM153.735 25.732V34.5H152.279V25.732H153.735ZM160.488 25.572C161.555 25.572 162.419 25.8973 163.08 26.548C163.742 27.188 164.072 28.116 164.072 29.332V34.5H162.632V29.54C162.632 28.6653 162.414 27.9987 161.976 27.54C161.539 27.0707 160.942 26.836 160.184 26.836C159.416 26.836 158.803 27.076 158.344 27.556C157.896 28.036 157.672 28.7347 157.672 29.652V34.5H156.216V25.732H157.672V26.98C157.96 26.532 158.35 26.1853 158.84 25.94C159.342 25.6947 159.891 25.572 160.488 25.572ZM170.067 25.588C170.824 25.588 171.485 25.7533 172.051 26.084C172.627 26.4147 173.053 26.8307 173.331 27.332V25.732H174.803V34.692C174.803 35.492 174.632 36.2013 174.291 36.82C173.949 37.4493 173.459 37.94 172.819 38.292C172.189 38.644 171.453 38.82 170.611 38.82C169.459 38.82 168.499 38.548 167.731 38.004C166.963 37.46 166.509 36.7187 166.371 35.78H167.811C167.971 36.3133 168.301 36.74 168.803 37.06C169.304 37.3907 169.907 37.556 170.611 37.556C171.411 37.556 172.061 37.3053 172.563 36.804C173.075 36.3027 173.331 35.5987 173.331 34.692V32.852C173.043 33.364 172.616 33.7907 172.051 34.132C171.485 34.4733 170.824 34.644 170.067 34.644C169.288 34.644 168.579 34.452 167.939 34.068C167.309 33.684 166.813 33.1453 166.451 32.452C166.088 31.7587 165.907 30.9693 165.907 30.084C165.907 29.188 166.088 28.404 166.451 27.732C166.813 27.0493 167.309 26.5213 167.939 26.148C168.579 25.7747 169.288 25.588 170.067 25.588ZM173.331 30.1C173.331 29.4387 173.197 28.8627 172.931 28.372C172.664 27.8813 172.301 27.508 171.843 27.252C171.395 26.9853 170.899 26.852 170.355 26.852C169.811 26.852 169.315 26.98 168.867 27.236C168.419 27.492 168.061 27.8653 167.795 28.356C167.528 28.8467 167.395 29.4227 167.395 30.084C167.395 30.756 167.528 31.3427 167.795 31.844C168.061 32.3347 168.419 32.7133 168.867 32.98C169.315 33.236 169.811 33.364 170.355 33.364C170.899 33.364 171.395 33.236 171.843 32.98C172.301 32.7133 172.664 32.3347 172.931 31.844C173.197 31.3427 173.331 30.7613 173.331 30.1ZM182.985 24.532V28.26H187.049V29.46H182.985V33.3H187.529V34.5H181.529V23.332H187.529V24.532H182.985ZM192.996 33.156L195.716 25.732H197.268L193.828 34.5H192.132L188.692 25.732H190.26L192.996 33.156ZM206.701 29.78C206.701 30.0573 206.685 30.3507 206.653 30.66H199.645C199.698 31.524 199.991 32.2013 200.525 32.692C201.069 33.172 201.725 33.412 202.493 33.412C203.122 33.412 203.645 33.268 204.061 32.98C204.487 32.6813 204.786 32.2867 204.957 31.796H206.525C206.29 32.6387 205.821 33.3267 205.117 33.86C204.413 34.3827 203.538 34.644 202.493 34.644C201.661 34.644 200.914 34.4573 200.253 34.084C199.602 33.7107 199.09 33.1827 198.717 32.5C198.343 31.8067 198.157 31.0067 198.157 30.1C198.157 29.1933 198.338 28.3987 198.701 27.716C199.063 27.0333 199.57 26.5107 200.221 26.148C200.882 25.7747 201.639 25.588 202.493 25.588C203.325 25.588 204.061 25.7693 204.701 26.132C205.341 26.4947 205.831 26.996 206.173 27.636C206.525 28.2653 206.701 28.98 206.701 29.78ZM205.197 29.476C205.197 28.9213 205.074 28.4467 204.829 28.052C204.583 27.6467 204.247 27.3427 203.821 27.14C203.405 26.9267 202.941 26.82 202.429 26.82C201.693 26.82 201.063 27.0547 200.541 27.524C200.029 27.9933 199.735 28.644 199.661 29.476H205.197ZM212.895 25.572C213.961 25.572 214.825 25.8973 215.487 26.548C216.148 27.188 216.479 28.116 216.479 29.332V34.5H215.039V29.54C215.039 28.6653 214.82 27.9987 214.383 27.54C213.945 27.0707 213.348 26.836 212.591 26.836C211.823 26.836 211.209 27.076 210.751 27.556C210.303 28.036 210.079 28.7347 210.079 29.652V34.5H208.623V25.732H210.079V26.98C210.367 26.532 210.756 26.1853 211.247 25.94C211.748 25.6947 212.297 25.572 212.895 25.572ZM220.633 26.932V32.1C220.633 32.5267 220.724 32.8307 220.905 33.012C221.086 33.1827 221.401 33.268 221.849 33.268H222.921V34.5H221.609C220.798 34.5 220.19 34.3133 219.785 33.94C219.38 33.5667 219.177 32.9533 219.177 32.1V26.932H218.041V25.732H219.177V23.524H220.633V25.732H222.921V26.932H220.633ZM227.789 34.644C227.117 34.644 226.514 34.532 225.981 34.308C225.448 34.0733 225.026 33.7533 224.717 33.348C224.408 32.932 224.237 32.4573 224.205 31.924H225.709C225.752 32.3613 225.954 32.7187 226.317 32.996C226.69 33.2733 227.176 33.412 227.773 33.412C228.328 33.412 228.765 33.2893 229.085 33.044C229.405 32.7987 229.565 32.4893 229.565 32.116C229.565 31.732 229.394 31.4493 229.053 31.268C228.712 31.076 228.184 30.8893 227.469 30.708C226.818 30.5373 226.285 30.3667 225.869 30.196C225.464 30.0147 225.112 29.7533 224.813 29.412C224.525 29.06 224.381 28.6013 224.381 28.036C224.381 27.588 224.514 27.1773 224.781 26.804C225.048 26.4307 225.426 26.1373 225.917 25.924C226.408 25.7 226.968 25.588 227.597 25.588C228.568 25.588 229.352 25.8333 229.949 26.324C230.546 26.8147 230.866 27.4867 230.909 28.34H229.453C229.421 27.8813 229.234 27.5133 228.893 27.236C228.562 26.9587 228.114 26.82 227.549 26.82C227.026 26.82 226.61 26.932 226.301 27.156C225.992 27.38 225.837 27.6733 225.837 28.036C225.837 28.324 225.928 28.564 226.109 28.756C226.301 28.9373 226.536 29.0867 226.813 29.204C227.101 29.3107 227.496 29.4333 227.997 29.572C228.626 29.7427 229.138 29.9133 229.533 30.084C229.928 30.244 230.264 30.4893 230.541 30.82C230.829 31.1507 230.978 31.5827 230.989 32.116C230.989 32.596 230.856 33.028 230.589 33.412C230.322 33.796 229.944 34.1 229.453 34.324C228.973 34.5373 228.418 34.644 227.789 34.644Z" fill="white"/>
<path d="M259.228 22.9358L264.792 28.5L259.228 34.0641" stroke="white" stroke-width="2" stroke-miterlimit="10" stroke-linecap="round" stroke-linejoin="round"/>
<path d="M249.208 28.5H264.636" stroke="white" stroke-width="1.5" stroke-miterlimit="10" stroke-linecap="round" stroke-linejoin="round"/>
<defs>
<linearGradient id="paint0_linear_724_4451" x1="5.45512e-07" y1="49.1379" x2="276.419" y2="-53.4286" gradientUnits="userSpaceOnUse">
<stop stop-color="#8E15BA"/>
<stop offset="1" stop-color="#5175F0"/>
</linearGradient>
<linearGradient id="paint1_linear_724_4451" x1="20.6626" y1="57" x2="39.8168" y2="33.8043" gradientUnits="userSpaceOnUse">
<stop stop-color="white"/>
<stop offset="1" stop-color="#999999" stop-opacity="0.2"/>
</linearGradient>
<linearGradient id="paint2_linear_724_4451" x1="262.711" y1="44" x2="292.41" y2="6.05873" gradientUnits="userSpaceOnUse">
<stop stop-color="white" stop-opacity="0"/>
<stop offset="1" stop-color="white"/>
</linearGradient>
</defs>
</svg>
