<svg width="186" height="43" viewBox="0 0 186 43" fill="none" xmlns="http://www.w3.org/2000/svg">
<path d="M0.5 19.2C0.5 15.8314 0.500389 13.3351 0.66183 11.3591C0.822794 9.38904 1.14136 7.98035 1.75343 6.77911C2.85597 4.61525 4.61525 2.85597 6.77911 1.75343C7.98035 1.14136 9.38904 0.822794 11.3591 0.66183C13.3351 0.500389 15.8314 0.5 19.2 0.5H166.8C170.169 0.5 172.665 0.500389 174.641 0.66183C176.611 0.822794 178.02 1.14136 179.221 1.75343C181.385 2.85597 183.144 4.61525 184.247 6.77911C184.859 7.98035 185.177 9.38904 185.338 11.3591C185.5 13.3351 185.5 15.8314 185.5 19.2V23.8C185.5 27.1686 185.5 29.6649 185.338 31.6409C185.177 33.611 184.859 35.0197 184.247 36.2209C183.144 38.3848 181.385 40.144 179.221 41.2466C178.02 41.8586 176.611 42.1772 174.641 42.3382C172.665 42.4996 170.169 42.5 166.8 42.5H19.2C15.8314 42.5 13.3351 42.4996 11.3591 42.3382C9.38903 42.1772 7.98035 41.8586 6.77911 41.2466C4.61525 40.144 2.85597 38.3848 1.75342 36.2209C1.14136 35.0197 0.822794 33.611 0.66183 31.6409C0.500389 29.6649 0.5 27.1686 0.5 23.8V19.2Z" fill="white"/>
<path d="M0.5 19.2C0.5 15.8314 0.500389 13.3351 0.66183 11.3591C0.822794 9.38904 1.14136 7.98035 1.75343 6.77911C2.85597 4.61525 4.61525 2.85597 6.77911 1.75343C7.98035 1.14136 9.38904 0.822794 11.3591 0.66183C13.3351 0.500389 15.8314 0.5 19.2 0.5H166.8C170.169 0.5 172.665 0.500389 174.641 0.66183C176.611 0.822794 178.02 1.14136 179.221 1.75343C181.385 2.85597 183.144 4.61525 184.247 6.77911C184.859 7.98035 185.177 9.38904 185.338 11.3591C185.5 13.3351 185.5 15.8314 185.5 19.2V23.8C185.5 27.1686 185.5 29.6649 185.338 31.6409C185.177 33.611 184.859 35.0197 184.247 36.2209C183.144 38.3848 181.385 40.144 179.221 41.2466C178.02 41.8586 176.611 42.1772 174.641 42.3382C172.665 42.4996 170.169 42.5 166.8 42.5H19.2C15.8314 42.5 13.3351 42.4996 11.3591 42.3382C9.38903 42.1772 7.98035 41.8586 6.77911 41.2466C4.61525 40.144 2.85597 38.3848 1.75342 36.2209C1.14136 35.0197 0.822794 33.611 0.66183 31.6409C0.500389 29.6649 0.5 27.1686 0.5 23.8V19.2Z" stroke="#4752F3"/>
<path d="M28.16 20.37C28.06 20.36 27.94 20.36 27.83 20.37C25.45 20.29 23.56 18.34 23.56 15.94C23.56 13.49 25.54 11.5 28 11.5C30.45 11.5 32.44 13.49 32.44 15.94C32.43 18.34 30.54 20.29 28.16 20.37Z" stroke="#4752F3" stroke-width="1.5" stroke-linecap="round" stroke-linejoin="round"/>
<path d="M23.16 24.06C20.74 25.68 20.74 28.32 23.16 29.93C25.91 31.77 30.42 31.77 33.17 29.93C35.59 28.31 35.59 25.67 33.17 24.06C30.43 22.23 25.92 22.23 23.16 24.06Z" stroke="#4752F3" stroke-width="1.5" stroke-linecap="round" stroke-linejoin="round"/>
<path d="M51.024 26.668H55.416V28H49.386V15.454H51.024V26.668ZM61.4575 28.162C60.5335 28.162 59.6935 27.952 58.9375 27.532C58.1935 27.112 57.6055 26.518 57.1735 25.75C56.7535 24.97 56.5435 24.07 56.5435 23.05C56.5435 22.042 56.7595 21.154 57.1915 20.386C57.6355 19.606 58.2355 19.012 58.9915 18.604C59.7475 18.184 60.5935 17.974 61.5295 17.974C62.4655 17.974 63.3115 18.184 64.0675 18.604C64.8235 19.012 65.4175 19.6 65.8495 20.368C66.2935 21.136 66.5155 22.03 66.5155 23.05C66.5155 24.07 66.2875 24.97 65.8315 25.75C65.3875 26.518 64.7815 27.112 64.0135 27.532C63.2455 27.952 62.3935 28.162 61.4575 28.162ZM61.4575 26.722C62.0455 26.722 62.5975 26.584 63.1135 26.308C63.6295 26.032 64.0435 25.618 64.3555 25.066C64.6795 24.514 64.8415 23.842 64.8415 23.05C64.8415 22.258 64.6855 21.586 64.3735 21.034C64.0615 20.482 63.6535 20.074 63.1495 19.81C62.6455 19.534 62.0995 19.396 61.5115 19.396C60.9115 19.396 60.3595 19.534 59.8555 19.81C59.3635 20.074 58.9675 20.482 58.6675 21.034C58.3675 21.586 58.2175 22.258 58.2175 23.05C58.2175 23.854 58.3615 24.532 58.6495 25.084C58.9495 25.636 59.3455 26.05 59.8375 26.326C60.3295 26.59 60.8695 26.722 61.4575 26.722ZM72.7372 17.974C73.5892 17.974 74.3332 18.16 74.9692 18.532C75.6172 18.904 76.0972 19.372 76.4092 19.936V18.136H78.0652V28.216C78.0652 29.116 77.8732 29.914 77.4892 30.61C77.1052 31.318 76.5532 31.87 75.8332 32.266C75.1252 32.662 74.2972 32.86 73.3492 32.86C72.0532 32.86 70.9732 32.554 70.1092 31.942C69.2452 31.33 68.7352 30.496 68.5792 29.44H70.1992C70.3792 30.04 70.7512 30.52 71.3152 30.88C71.8792 31.252 72.5572 31.438 73.3492 31.438C74.2492 31.438 74.9812 31.156 75.5452 30.592C76.1212 30.028 76.4092 29.236 76.4092 28.216V26.146C76.0852 26.722 75.6052 27.202 74.9692 27.586C74.3332 27.97 73.5892 28.162 72.7372 28.162C71.8612 28.162 71.0632 27.946 70.3432 27.514C69.6352 27.082 69.0772 26.476 68.6692 25.696C68.2612 24.916 68.0572 24.028 68.0572 23.032C68.0572 22.024 68.2612 21.142 68.6692 20.386C69.0772 19.618 69.6352 19.024 70.3432 18.604C71.0632 18.184 71.8612 17.974 72.7372 17.974ZM76.4092 23.05C76.4092 22.306 76.2592 21.658 75.9592 21.106C75.6592 20.554 75.2512 20.134 74.7352 19.846C74.2312 19.546 73.6732 19.396 73.0612 19.396C72.4492 19.396 71.8912 19.54 71.3872 19.828C70.8832 20.116 70.4812 20.536 70.1812 21.088C69.8812 21.64 69.7312 22.288 69.7312 23.032C69.7312 23.788 69.8812 24.448 70.1812 25.012C70.4812 25.564 70.8832 25.99 71.3872 26.29C71.8912 26.578 72.4492 26.722 73.0612 26.722C73.6732 26.722 74.2312 26.578 74.7352 26.29C75.2512 25.99 75.6592 25.564 75.9592 25.012C76.2592 24.448 76.4092 23.794 76.4092 23.05ZM81.6793 16.534C81.3673 16.534 81.1033 16.426 80.8873 16.21C80.6713 15.994 80.5633 15.73 80.5633 15.418C80.5633 15.106 80.6713 14.842 80.8873 14.626C81.1033 14.41 81.3673 14.302 81.6793 14.302C81.9793 14.302 82.2313 14.41 82.4353 14.626C82.6513 14.842 82.7593 15.106 82.7593 15.418C82.7593 15.73 82.6513 15.994 82.4353 16.21C82.2313 16.426 81.9793 16.534 81.6793 16.534ZM82.4713 18.136V28H80.8333V18.136H82.4713ZM90.069 17.956C91.269 17.956 92.241 18.322 92.985 19.054C93.729 19.774 94.101 20.818 94.101 22.186V28H92.481V22.42C92.481 21.436 92.235 20.686 91.743 20.17C91.251 19.642 90.579 19.378 89.727 19.378C88.863 19.378 88.173 19.648 87.657 20.188C87.153 20.728 86.901 21.514 86.901 22.546V28H85.263V18.136H86.901V19.54C87.225 19.036 87.663 18.646 88.215 18.37C88.779 18.094 89.397 17.956 90.069 17.956ZM102.897 11.044L97.9646 31.06H96.3446L101.259 11.044H102.897ZM108.829 28.162C108.073 28.162 107.395 28.036 106.795 27.784C106.195 27.52 105.721 27.16 105.373 26.704C105.025 26.236 104.833 25.702 104.797 25.102H106.489C106.537 25.594 106.765 25.996 107.173 26.308C107.593 26.62 108.139 26.776 108.811 26.776C109.435 26.776 109.927 26.638 110.287 26.362C110.647 26.086 110.827 25.738 110.827 25.318C110.827 24.886 110.635 24.568 110.251 24.364C109.867 24.148 109.273 23.938 108.469 23.734C107.737 23.542 107.137 23.35 106.669 23.158C106.213 22.954 105.817 22.66 105.481 22.276C105.157 21.88 104.995 21.364 104.995 20.728C104.995 20.224 105.145 19.762 105.445 19.342C105.745 18.922 106.171 18.592 106.723 18.352C107.275 18.1 107.905 17.974 108.613 17.974C109.705 17.974 110.587 18.25 111.259 18.802C111.931 19.354 112.291 20.11 112.339 21.07H110.701C110.665 20.554 110.455 20.14 110.071 19.828C109.699 19.516 109.195 19.36 108.559 19.36C107.971 19.36 107.503 19.486 107.155 19.738C106.807 19.99 106.633 20.32 106.633 20.728C106.633 21.052 106.735 21.322 106.939 21.538C107.155 21.742 107.419 21.91 107.731 22.042C108.055 22.162 108.499 22.3 109.063 22.456C109.771 22.648 110.347 22.84 110.791 23.032C111.235 23.212 111.613 23.488 111.925 23.86C112.249 24.232 112.417 24.718 112.429 25.318C112.429 25.858 112.279 26.344 111.979 26.776C111.679 27.208 111.253 27.55 110.701 27.802C110.161 28.042 109.537 28.162 108.829 28.162ZM115.587 16.534C115.275 16.534 115.011 16.426 114.795 16.21C114.579 15.994 114.471 15.73 114.471 15.418C114.471 15.106 114.579 14.842 114.795 14.626C115.011 14.41 115.275 14.302 115.587 14.302C115.887 14.302 116.139 14.41 116.343 14.626C116.559 14.842 116.667 15.106 116.667 15.418C116.667 15.73 116.559 15.994 116.343 16.21C116.139 16.426 115.887 16.534 115.587 16.534ZM116.379 18.136V28H114.741V18.136H116.379ZM123.239 17.974C124.091 17.974 124.835 18.16 125.471 18.532C126.119 18.904 126.599 19.372 126.911 19.936V18.136H128.567V28.216C128.567 29.116 128.375 29.914 127.991 30.61C127.607 31.318 127.055 31.87 126.335 32.266C125.627 32.662 124.799 32.86 123.851 32.86C122.555 32.86 121.475 32.554 120.611 31.942C119.747 31.33 119.237 30.496 119.081 29.44H120.701C120.881 30.04 121.253 30.52 121.817 30.88C122.381 31.252 123.059 31.438 123.851 31.438C124.751 31.438 125.483 31.156 126.047 30.592C126.623 30.028 126.911 29.236 126.911 28.216V26.146C126.587 26.722 126.107 27.202 125.471 27.586C124.835 27.97 124.091 28.162 123.239 28.162C122.363 28.162 121.565 27.946 120.845 27.514C120.137 27.082 119.579 26.476 119.171 25.696C118.763 24.916 118.559 24.028 118.559 23.032C118.559 22.024 118.763 21.142 119.171 20.386C119.579 19.618 120.137 19.024 120.845 18.604C121.565 18.184 122.363 17.974 123.239 17.974ZM126.911 23.05C126.911 22.306 126.761 21.658 126.461 21.106C126.161 20.554 125.753 20.134 125.237 19.846C124.733 19.546 124.175 19.396 123.563 19.396C122.951 19.396 122.393 19.54 121.889 19.828C121.385 20.116 120.983 20.536 120.683 21.088C120.383 21.64 120.233 22.288 120.233 23.032C120.233 23.788 120.383 24.448 120.683 25.012C120.983 25.564 121.385 25.99 121.889 26.29C122.393 26.578 122.951 26.722 123.563 26.722C124.175 26.722 124.733 26.578 125.237 26.29C125.753 25.99 126.161 25.564 126.461 25.012C126.761 24.448 126.911 23.794 126.911 23.05ZM136.141 17.956C137.341 17.956 138.313 18.322 139.057 19.054C139.801 19.774 140.173 20.818 140.173 22.186V28H138.553V22.42C138.553 21.436 138.307 20.686 137.815 20.17C137.323 19.642 136.651 19.378 135.799 19.378C134.935 19.378 134.245 19.648 133.729 20.188C133.225 20.728 132.973 21.514 132.973 22.546V28H131.335V18.136H132.973V19.54C133.297 19.036 133.735 18.646 134.287 18.37C134.851 18.094 135.469 17.956 136.141 17.956ZM156.396 18.136V28H154.758V26.542C154.446 27.046 154.008 27.442 153.444 27.73C152.892 28.006 152.28 28.144 151.608 28.144C150.84 28.144 150.15 27.988 149.538 27.676C148.926 27.352 148.44 26.872 148.08 26.236C147.732 25.6 147.558 24.826 147.558 23.914V18.136H149.178V23.698C149.178 24.67 149.424 25.42 149.916 25.948C150.408 26.464 151.08 26.722 151.932 26.722C152.808 26.722 153.498 26.452 154.002 25.912C154.506 25.372 154.758 24.586 154.758 23.554V18.136H156.396ZM160.799 19.954C161.123 19.39 161.603 18.922 162.239 18.55C162.887 18.166 163.637 17.974 164.489 17.974C165.365 17.974 166.157 18.184 166.865 18.604C167.585 19.024 168.149 19.618 168.557 20.386C168.965 21.142 169.169 22.024 169.169 23.032C169.169 24.028 168.965 24.916 168.557 25.696C168.149 26.476 167.585 27.082 166.865 27.514C166.157 27.946 165.365 28.162 164.489 28.162C163.649 28.162 162.905 27.976 162.257 27.604C161.621 27.22 161.135 26.746 160.799 26.182V32.68H159.161V18.136H160.799V19.954ZM167.495 23.032C167.495 22.288 167.345 21.64 167.045 21.088C166.745 20.536 166.337 20.116 165.821 19.828C165.317 19.54 164.759 19.396 164.147 19.396C163.547 19.396 162.989 19.546 162.473 19.846C161.969 20.134 161.561 20.56 161.249 21.124C160.949 21.676 160.799 22.318 160.799 23.05C160.799 23.794 160.949 24.448 161.249 25.012C161.561 25.564 161.969 25.99 162.473 26.29C162.989 26.578 163.547 26.722 164.147 26.722C164.759 26.722 165.317 26.578 165.821 26.29C166.337 25.99 166.745 25.564 167.045 25.012C167.345 24.448 167.495 23.788 167.495 23.032Z" fill="#4752F3"/>
</svg>
