<svg width="45" height="40" viewBox="0 0 45 40" fill="none" xmlns="http://www.w3.org/2000/svg">
<g clip-path="url(#clip0_1460_1709)">
<path d="M33.0273 13.1379L12.6792 33.1284C11.126 34.6543 8.60815 34.6543 7.05493 33.1284L0.137967 26.3339C-0.156785 26.0443 0.0520359 25.5496 0.468754 25.5496H3.06608C3.37654 25.5496 3.67406 25.6703 3.89305 25.8863L8.54347 30.455C9.27435 31.1731 10.4598 31.1731 11.1907 30.455L33.0282 9.00128V13.1379H33.0273Z" fill="#8E15BA"/>
<path d="M26.7112 19.3432L17.1766 9.97611C16.6286 9.43782 16.6286 8.56456 17.1766 8.02627L24.6054 0.727051L26.7112 2.79581L20.3948 9.00119L28.817 17.2753L26.7112 19.3441V19.3432Z" fill="#8E15BA"/>
<path d="M26.7107 15.2067L33.8097 22.181C34.5406 22.899 35.726 22.899 36.4569 22.181L40.9022 17.8138C41.2533 17.4688 41.7292 17.2755 42.2254 17.2755H44.5316C44.9484 17.2755 45.1572 17.7702 44.8624 18.0598L37.9455 24.8552C36.3922 26.3811 33.8744 26.3811 32.3211 24.8552L26.7116 19.3443C25.5492 18.2023 25.5492 16.3496 26.7116 15.2076L26.7107 15.2067Z" fill="#0963FF"/>
<path d="M20.5375 8.86063L25.8689 3.62291C26.3319 3.16813 27.0895 3.16813 27.5534 3.62291L32.1853 8.17346C32.6501 8.63006 32.6501 9.37078 32.1853 9.82829L26.8539 15.066C26.7624 15.1559 26.7107 15.2784 26.7107 15.4055V18.1832C26.7107 18.6117 27.2374 18.8259 27.546 18.5227L34.9074 11.2907C36.1945 10.0262 36.1945 7.97557 34.9074 6.71107L29.0419 0.948677C27.7548 -0.315819 25.6675 -0.315819 24.3804 0.948677L17.019 8.18072C16.7113 8.483 16.9294 9.00133 17.3646 9.00133H20.192C20.3213 9.00133 20.4461 8.95049 20.5375 8.86063Z" fill="#0963FF"/>
<path d="M20.5375 8.86063L25.8689 3.62291C26.3319 3.16813 27.0895 3.16813 27.5534 3.62291L32.1853 8.17346C32.6501 8.63006 32.6501 9.37078 32.1853 9.82829L26.8539 15.066C26.7624 15.1559 26.7107 15.2784 26.7107 15.4055V18.1832C26.7107 18.6117 27.2374 18.8259 27.546 18.5227L34.9074 11.2907C36.1945 10.0262 36.1945 7.97557 34.9074 6.71107L29.0419 0.948677C27.7548 -0.315819 25.6675 -0.315819 24.3804 0.948677L17.019 8.18072C16.7113 8.483 16.9294 9.00133 17.3646 9.00133H20.192C20.3213 9.00133 20.4461 8.95049 20.5375 8.86063Z" fill="#0963FF"/>
<path d="M26.5953 34.429H24.995L22.3191 30.4485V34.429H20.7188V27.9749H22.3191L24.995 31.9735V27.9749H26.5953V34.429Z" fill="#0963FF"/>
<path d="M28.7541 29.4872C29.0377 28.9879 29.4323 28.5985 29.9377 28.3198C30.4431 28.0412 31.0197 27.9014 31.6693 27.9014C32.4556 27.9014 33.1181 28.0884 33.6577 28.4624C34.1973 28.8363 34.5549 29.3538 34.7295 30.0164H32.961C32.8427 29.8022 32.6727 29.6379 32.451 29.5244C32.2292 29.411 31.9686 29.3547 31.6693 29.3547C31.1509 29.3547 30.737 29.5217 30.4247 29.8558C30.1123 30.1898 29.9571 30.6355 29.9571 31.1938C29.9571 31.7884 30.1207 32.2522 30.4487 32.5863C30.7758 32.9203 31.2267 33.0873 31.8005 33.0873C32.1932 33.0873 32.5267 32.9875 32.8021 32.7887C33.0765 32.5899 33.2733 32.3058 33.3916 31.9381H31.3607V30.7889H34.8413V32.2504C34.723 32.6425 34.5216 33.0075 34.2379 33.3442C33.9543 33.681 33.5939 33.9542 33.1569 34.1621C32.7198 34.3709 32.2273 34.4744 31.6785 34.4744C31.0299 34.4744 30.4514 34.3346 29.9423 34.0559C29.4341 33.7772 29.0377 33.3896 28.7541 32.8931C28.4704 32.3965 28.3281 31.8301 28.3281 31.192C28.3281 30.5538 28.4704 29.9865 28.7541 29.4863V29.4872Z" fill="#8E15BA"/>
<path d="M42.4469 34.429H40.8465L38.1707 30.4485V34.429H36.5703V27.9749H38.1707L40.8465 31.9735V27.9749H42.4469V34.429Z" fill="#0963FF"/>
</g>
<defs>
<clipPath id="clip0_1460_1709">
<rect width="45" height="40" fill="white"/>
</clipPath>
</defs>
</svg>
