<svg width="100" height="100" viewBox="0 0 100 100" fill="none" xmlns="http://www.w3.org/2000/svg">
<path d="M33.709 48.4583H14.1673C14.5007 29 18.334 25.7916 30.2923 18.7083C31.6673 17.875 32.1257 16.125 31.2923 14.7083C30.5007 13.3333 28.709 12.875 27.334 13.7083C13.2507 22.0416 8.33398 27.125 8.33398 51.3333V73.7916C8.33398 80.9166 14.1257 86.6666 21.209 86.6666H33.709C41.0423 86.6666 46.584 81.125 46.584 73.7916V61.2916C46.584 54 41.0423 48.4583 33.709 48.4583Z" fill="#4752F3" fill-opacity="0.6"/>
<path d="M78.7917 48.4583H59.25C59.5833 29 63.4167 25.7916 75.375 18.7083C76.75 17.875 77.2083 16.125 76.375 14.7083C75.5417 13.3333 73.7917 12.875 72.375 13.7083C58.2917 22.0416 53.375 27.125 53.375 51.375V73.8333C53.375 80.9583 59.1667 86.7083 66.25 86.7083H78.75C86.0833 86.7083 91.625 81.1666 91.625 73.8333V61.3333C91.6667 54 86.125 48.4583 78.7917 48.4583Z" fill="#4752F3" fill-opacity="0.6"/>
</svg>
