<svg width="24" height="24" viewBox="0 0 24 24" fill="none" xmlns="http://www.w3.org/2000/svg">
<path opacity="0.4" d="M18.3801 12.84V17.77C18.3801 19.04 17.3901 20.4 16.2001 20.8L13.0101 21.86C12.4501 22.05 11.5401 22.05 10.9901 21.86L7.80012 20.8C6.60012 20.4 5.62012 19.04 5.62012 17.77L5.63012 12.84L10.0501 15.72C11.1301 16.43 12.9101 16.43 13.9901 15.72L18.3801 12.84Z" fill="#4752F3"/>
<path d="M19.98 6.46L13.99 2.53C12.91 1.82 11.13 1.82 10.05 2.53L4.03002 6.46C2.10002 7.71 2.10002 10.54 4.03002 11.8L5.63002 12.84L10.05 15.72C11.13 16.43 12.91 16.43 13.99 15.72L18.38 12.84L19.75 11.94V15C19.75 15.41 20.09 15.75 20.5 15.75C20.91 15.75 21.25 15.41 21.25 15V10.08C21.65 8.79 21.24 7.29 19.98 6.46Z" fill="#4752F3"/>
</svg>
