<svg width="61" height="61" viewBox="0 0 61 61" fill="none" xmlns="http://www.w3.org/2000/svg">
<path d="M0.65 12.5C0.65 5.95543 5.95543 0.65 12.5 0.65H48.5C55.0446 0.65 60.35 5.95543 60.35 12.5V48.5C60.35 55.0446 55.0446 60.35 48.5 60.35H12.5C5.95543 60.35 0.65 55.0446 0.65 48.5V12.5Z" fill="url(#paint0_linear_1304_5879)"/>
<path d="M0.65 12.5C0.65 5.95543 5.95543 0.65 12.5 0.65H48.5C55.0446 0.65 60.35 5.95543 60.35 12.5V48.5C60.35 55.0446 55.0446 60.35 48.5 60.35H12.5C5.95543 60.35 0.65 55.0446 0.65 48.5V12.5Z" stroke="#EDECEC" stroke-width="0.3"/>
<path opacity="0.4" d="M43.7602 32.6799V42.5399C43.7602 45.0799 41.7802 47.7999 39.4002 48.5999L33.0202 50.7199C31.9002 51.0999 30.0802 51.0999 28.9802 50.7199L22.6002 48.5999C20.2002 47.7999 18.2402 45.0799 18.2402 42.5399L18.2602 32.6799L27.1002 38.4399C29.2602 39.8599 32.8202 39.8599 34.9802 38.4399L43.7602 32.6799Z" fill="#4752F3"/>
<path d="M46.9591 19.9201L34.9791 12.0601C32.8191 10.6401 29.2591 10.6401 27.0991 12.0601L15.0591 19.9201C11.1991 22.4201 11.1991 28.0801 15.0591 30.6001L18.2591 32.6801L27.0991 38.4401C29.2591 39.8601 32.8191 39.8601 34.9791 38.4401L43.7591 32.6801L46.4991 30.8801V37.0001C46.4991 37.8201 47.1791 38.5001 47.9991 38.5001C48.8191 38.5001 49.4991 37.8201 49.4991 37.0001V27.1601C50.2991 24.5801 49.4791 21.5801 46.9591 19.9201Z" fill="#4752F3"/>
<defs>
<linearGradient id="paint0_linear_1304_5879" x1="30.5" y1="0.5" x2="30.5" y2="60.5" gradientUnits="userSpaceOnUse">
<stop stop-color="#F1F2FF" stop-opacity="0.2"/>
<stop offset="1" stop-color="#B2B7FF" stop-opacity="0.5"/>
</linearGradient>
</defs>
</svg>
