<svg width="61" height="61" viewBox="0 0 61 61" fill="none" xmlns="http://www.w3.org/2000/svg">
<path d="M0.65 12.5C0.65 5.95543 5.95543 0.65 12.5 0.65H48.5C55.0446 0.65 60.35 5.95543 60.35 12.5V48.5C60.35 55.0446 55.0446 60.35 48.5 60.35H12.5C5.95543 60.35 0.65 55.0446 0.65 48.5V12.5Z" fill="url(#paint0_linear_1304_5916)"/>
<path d="M0.65 12.5C0.65 5.95543 5.95543 0.65 12.5 0.65H48.5C55.0446 0.65 60.35 5.95543 60.35 12.5V48.5C60.35 55.0446 55.0446 60.35 48.5 60.35H12.5C5.95543 60.35 0.65 55.0446 0.65 48.5V12.5Z" stroke="#EDECEC" stroke-width="0.3"/>
<path opacity="0.4" d="M51 22.12V36.82C50.42 36.54 49.78 36.34 49.06 36.22L48.44 36.12L47.92 35.04C46.82 32.8 45.02 31.5 43 31.5C40.98 31.5 39.18 32.8 38.08 35.04L37.54 36.12L36.94 36.22C34.56 36.62 32.84 37.94 32.22 39.82C31.62 41.72 32.24 43.8 33.94 45.52L34.56 46.14L34.5 46.38C34.1 48.16 34.26 49.52 34.64 50.5H22.62C15.34 50.5 11 46.16 11 38.88V22.12C11 14.84 15.34 10.5 22.62 10.5H39.38C46.66 10.5 51 14.84 51 22.12Z" fill="#F89129"/>
<path d="M45.2398 36.3799L45.8798 37.6799C46.1998 38.3199 47.0198 38.9199 47.6998 39.0399L48.5598 39.1799C51.1798 39.6199 51.7798 41.5399 49.9198 43.4199L49.1198 44.2199C48.5798 44.7599 48.2998 45.7999 48.4598 46.5599L48.5598 47.0399C49.2798 50.1999 47.5998 51.4199 44.8598 49.7599L44.2798 49.3999C43.5798 48.9799 42.4198 48.9799 41.7198 49.3999L41.1398 49.7599C38.3798 51.4199 36.7198 50.1999 37.4398 47.0399L37.5398 46.5599C37.6998 45.8199 37.4198 44.7599 36.8798 44.2199L36.0798 43.4199C34.2198 41.5199 34.8198 39.6199 37.4398 39.1799L38.2998 39.0399C38.9998 38.9199 39.7998 38.3199 40.1198 37.6799L40.7598 36.3799C41.9998 33.8799 43.9998 33.8799 45.2398 36.3799Z" fill="#F89129"/>
<path fill-rule="evenodd" clip-rule="evenodd" d="M39.2593 22.3346C39.914 22.8421 40.0333 23.7843 39.5258 24.4391L34.8969 30.4105C33.7072 31.9152 31.5135 32.1896 29.9831 31.007L29.9727 30.999L26.3195 28.1243C26.0938 27.9529 25.779 27.9955 25.6076 28.2166C25.6075 28.2169 25.6078 28.2164 25.6076 28.2166L20.8486 34.3954C20.3431 35.0517 19.4012 35.174 18.7449 34.6685C18.0886 34.1629 17.9664 33.2211 18.4719 32.5648L23.2333 26.3829C24.4211 24.8457 26.6236 24.5679 28.1574 25.7532L28.1679 25.7612L31.821 28.6359C32.0491 28.8091 32.3704 28.7645 32.5406 28.5535L37.1548 22.6011C37.6623 21.9464 38.6045 21.827 39.2593 22.3346Z" fill="#F89129"/>
<defs>
<linearGradient id="paint0_linear_1304_5916" x1="30.5" y1="0.5" x2="30.5" y2="60.5" gradientUnits="userSpaceOnUse">
<stop stop-color="#F89129" stop-opacity="0.05"/>
<stop offset="1" stop-color="#F89129" stop-opacity="0.2"/>
</linearGradient>
</defs>
</svg>
