<svg width="61" height="61" viewBox="0 0 61 61" fill="none" xmlns="http://www.w3.org/2000/svg">
<path d="M0.65 12.5C0.65 5.95543 5.95543 0.65 12.5 0.65H48.5C55.0446 0.65 60.35 5.95543 60.35 12.5V48.5C60.35 55.0446 55.0446 60.35 48.5 60.35H12.5C5.95543 60.35 0.65 55.0446 0.65 48.5V12.5Z" fill="url(#paint0_linear_1304_5891)"/>
<path d="M0.65 12.5C0.65 5.95543 5.95543 0.65 12.5 0.65H48.5C55.0446 0.65 60.35 5.95543 60.35 12.5V48.5C60.35 55.0446 55.0446 60.35 48.5 60.35H12.5C5.95543 60.35 0.65 55.0446 0.65 48.5V12.5Z" stroke="#EDECEC" stroke-width="0.3"/>
<path d="M39.38 11H22.62C15.34 11 11 15.34 11 22.62V39.36C11 46.66 15.34 51 22.62 51H39.36C46.64 51 50.98 46.66 50.98 39.38V22.62C51 15.34 46.66 11 39.38 11ZM40.76 30.06C40.76 30.84 40.14 31.46 39.36 31.46C38.58 31.46 37.96 30.84 37.96 30.06V29.7L32.52 35.14C32.22 35.44 31.82 35.58 31.4 35.54C30.98 35.5 30.6 35.28 30.38 34.92L28.34 31.88L23.58 36.64C23.3 36.92 22.96 37.04 22.6 37.04C22.24 37.04 21.88 36.9 21.62 36.64C21.08 36.1 21.08 35.22 21.62 34.66L27.58 28.7C27.88 28.4 28.28 28.26 28.7 28.3C29.12 28.34 29.5 28.56 29.72 28.92L31.76 31.96L35.98 27.74H35.62C34.84 27.74 34.22 27.12 34.22 26.34C34.22 25.56 34.84 24.94 35.62 24.94H39.34C39.52 24.94 39.7 24.98 39.88 25.04C40.22 25.18 40.5 25.46 40.64 25.8C40.72 25.98 40.74 26.16 40.74 26.34V30.06H40.76Z" fill="url(#paint1_linear_1304_5891)"/>
<defs>
<linearGradient id="paint0_linear_1304_5891" x1="30.5" y1="0.5" x2="30.5" y2="60.5" gradientUnits="userSpaceOnUse">
<stop stop-color="#0FC9A3" stop-opacity="0.05"/>
<stop offset="1" stop-color="#0FCFA8" stop-opacity="0.2"/>
</linearGradient>
<linearGradient id="paint1_linear_1304_5891" x1="30.99" y1="11" x2="30.99" y2="51" gradientUnits="userSpaceOnUse">
<stop stop-color="#11DBB3"/>
<stop offset="1" stop-color="#04755F"/>
</linearGradient>
</defs>
</svg>
