<svg width="61" height="61" viewBox="0 0 61 61" fill="none" xmlns="http://www.w3.org/2000/svg">
<path d="M0.65 12.5C0.65 5.95543 5.95543 0.65 12.5 0.65H48.5C55.0446 0.65 60.35 5.95543 60.35 12.5V48.5C60.35 55.0446 55.0446 60.35 48.5 60.35H12.5C5.95543 60.35 0.65 55.0446 0.65 48.5V12.5Z" fill="url(#paint0_linear_1304_5904)"/>
<path d="M0.65 12.5C0.65 5.95543 5.95543 0.65 12.5 0.65H48.5C55.0446 0.65 60.35 5.95543 60.35 12.5V48.5C60.35 55.0446 55.0446 60.35 48.5 60.35H12.5C5.95543 60.35 0.65 55.0446 0.65 48.5V12.5Z" stroke="#EDECEC" stroke-width="0.3"/>
<path opacity="0.4" d="M25 10.5C19.76 10.5 15.5 14.76 15.5 20C15.5 25.14 19.52 29.3 24.76 29.48C24.92 29.46 25.08 29.46 25.2 29.48C25.24 29.48 25.26 29.48 25.3 29.48C25.32 29.48 25.32 29.48 25.34 29.48C30.46 29.3 34.48 25.14 34.5 20C34.5 14.76 30.24 10.5 25 10.5Z" fill="#38C0FF"/>
<path d="M35.1599 34.8C29.5799 31.08 20.4799 31.08 14.8599 34.8C12.3199 36.5 10.9199 38.8 10.9199 41.26C10.9199 43.72 12.3199 46 14.8399 47.68C17.6399 49.56 21.3199 50.5 24.9999 50.5C28.6799 50.5 32.3599 49.56 35.1599 47.68C37.6799 45.98 39.0799 43.7 39.0799 41.22C39.0599 38.76 37.6799 36.48 35.1599 34.8Z" fill="#38C0FF"/>
<path opacity="0.4" d="M46.9807 21.18C47.3007 25.06 44.5407 28.46 40.7207 28.92C40.7007 28.92 40.7007 28.92 40.6807 28.92H40.6207C40.5007 28.92 40.3807 28.92 40.2807 28.96C38.3407 29.06 36.5607 28.44 35.2207 27.3C37.2807 25.46 38.4607 22.7 38.2207 19.7C38.0807 18.08 37.5207 16.6 36.6807 15.34C37.4407 14.96 38.3207 14.72 39.2207 14.64C43.1407 14.3 46.6407 17.22 46.9807 21.18Z" fill="#38C0FF"/>
<path d="M50.9805 39.6801C50.8205 41.6201 49.5805 43.3001 47.5005 44.4401C45.5005 45.5401 42.9805 46.0601 40.4805 46.0001C41.9205 44.7001 42.7605 43.0801 42.9205 41.3601C43.1205 38.8801 41.9405 36.5001 39.5805 34.6001C38.2405 33.5401 36.6805 32.7001 34.9805 32.0801C39.4005 30.8001 44.9605 31.6601 48.3805 34.4201C50.2205 35.9001 51.1605 37.7601 50.9805 39.6801Z" fill="#38C0FF"/>
<defs>
<linearGradient id="paint0_linear_1304_5904" x1="30.5" y1="0.5" x2="30.5" y2="60.5" gradientUnits="userSpaceOnUse">
<stop stop-color="#38C0FF" stop-opacity="0.05"/>
<stop offset="1" stop-color="#38C0FF" stop-opacity="0.15"/>
</linearGradient>
</defs>
</svg>
