<svg width="61" height="60" viewBox="0 0 61 60" fill="none" xmlns="http://www.w3.org/2000/svg">
<path d="M0.65 12C0.65 5.45543 5.95543 0.15 12.5 0.15H48.5C55.0446 0.15 60.35 5.45543 60.35 12V48C60.35 54.5446 55.0446 59.85 48.5 59.85H12.5C5.95543 59.85 0.65 54.5446 0.65 48V12Z" fill="url(#paint0_linear_1304_5898)"/>
<path d="M0.65 12C0.65 5.45543 5.95543 0.15 12.5 0.15H48.5C55.0446 0.15 60.35 5.45543 60.35 12V48C60.35 54.5446 55.0446 59.85 48.5 59.85H12.5C5.95543 59.85 0.65 54.5446 0.65 48V12Z" stroke="#EDECEC" stroke-width="0.3"/>
<path opacity="0.4" d="M43 12H19C14.58 12 11 15.56 11 19.94V40.06C11 44.44 14.58 48 19 48H43C47.42 48 51 44.44 51 40.06V19.94C51 15.56 47.42 12 43 12Z" fill="#FD4DDD"/>
<path d="M45 23.5H35C34.18 23.5 33.5 22.82 33.5 22C33.5 21.18 34.18 20.5 35 20.5H45C45.82 20.5 46.5 21.18 46.5 22C46.5 22.82 45.82 23.5 45 23.5Z" fill="#FD4DDD"/>
<path d="M45 31.5H37C36.18 31.5 35.5 30.82 35.5 30C35.5 29.18 36.18 28.5 37 28.5H45C45.82 28.5 46.5 29.18 46.5 30C46.5 30.82 45.82 31.5 45 31.5Z" fill="#FD4DDD"/>
<path d="M45 39.5H41C40.18 39.5 39.5 38.82 39.5 38C39.5 37.18 40.18 36.5 41 36.5H45C45.82 36.5 46.5 37.18 46.5 38C46.5 38.82 45.82 39.5 45 39.5Z" fill="#FD4DDD"/>
<path d="M24.0009 29.5801C26.5524 29.5801 28.6209 27.5116 28.6209 24.9601C28.6209 22.4085 26.5524 20.3401 24.0009 20.3401C21.4493 20.3401 19.3809 22.4085 19.3809 24.9601C19.3809 27.5116 21.4493 29.5801 24.0009 29.5801Z" fill="#FD4DDD"/>
<path d="M25.5991 32.22C24.5391 32.12 23.4391 32.12 22.3791 32.22C19.0191 32.54 16.3191 35.2 15.9991 38.56C15.9791 38.84 16.0591 39.12 16.2591 39.32C16.4591 39.52 16.7191 39.66 16.9991 39.66H30.9991C31.2791 39.66 31.5591 39.54 31.7391 39.34C31.9191 39.14 32.0191 38.86 31.9991 38.58C31.6591 35.2 28.9791 32.54 25.5991 32.22Z" fill="#FD4DDD"/>
<defs>
<linearGradient id="paint0_linear_1304_5898" x1="30.5" y1="0" x2="30.5" y2="60" gradientUnits="userSpaceOnUse">
<stop stop-color="#FD4DDD" stop-opacity="0.05"/>
<stop offset="1" stop-color="#FD4DDD" stop-opacity="0.2"/>
</linearGradient>
</defs>
</svg>
