<svg width="61" height="61" viewBox="0 0 61 61" fill="none" xmlns="http://www.w3.org/2000/svg">
<path d="M0.65 12.5C0.65 5.95543 5.95543 0.65 12.5 0.65H48.5C55.0446 0.65 60.35 5.95543 60.35 12.5V48.5C60.35 55.0446 55.0446 60.35 48.5 60.35H12.5C5.95543 60.35 0.65 55.0446 0.65 48.5V12.5Z" fill="url(#paint0_linear_1304_5910)"/>
<path d="M0.65 12.5C0.65 5.95543 5.95543 0.65 12.5 0.65H48.5C55.0446 0.65 60.35 5.95543 60.35 12.5V48.5C60.35 55.0446 55.0446 60.35 48.5 60.35H12.5C5.95543 60.35 0.65 55.0446 0.65 48.5V12.5Z" stroke="#EDECEC" stroke-width="0.3"/>
<path d="M48.94 38.5H43.06C40.52 38.5 39 40.02 39 42.56V48.44C39 50.98 40.52 52.5 43.06 52.5H48.94C51.48 52.5 53 50.98 53 48.44V42.56C53 40.02 51.48 38.5 48.94 38.5ZM50.26 43.4L45.52 48.94C45.34 49.16 45.06 49.3 44.78 49.3C44.76 49.3 44.76 49.3 44.74 49.3C44.46 49.3 44.2 49.2 44 49L41.82 46.84C41.42 46.44 41.42 45.78 41.82 45.38C42.22 44.98 42.88 44.96 43.28 45.38L44.68 46.76L48.68 42.08C49.06 41.64 49.7 41.6 50.14 41.96C50.58 42.32 50.62 42.98 50.26 43.4Z" fill="#FF4638"/>
<path opacity="0.4" d="M39 48.44V42.56C39 40.02 40.52 38.5 43.06 38.5H48.94C49.74 38.5 50.42 38.66 51 38.94C51 38.92 51 38.9 51 38.86V22.12C51 14.84 46.66 10.5 39.38 10.5H22.62C15.34 10.5 11 14.84 11 22.12V38.86C11 46.16 15.34 50.5 22.62 50.5H39.36C39.38 50.5 39.4 50.5 39.44 50.5C39.16 49.92 39 49.24 39 48.44Z" fill="#FF4638"/>
<path d="M21 35C20.18 35 19.5 34.32 19.5 33.5V27.5C19.5 26.68 20.18 26 21 26C21.82 26 22.5 26.68 22.5 27.5V33.5C22.5 34.32 21.82 35 21 35Z" fill="#FF4638"/>
<path d="M31 35C30.18 35 29.5 34.32 29.5 33.5V27.5C29.5 26.68 30.18 26 31 26C31.82 26 32.5 26.68 32.5 27.5V33.5C32.5 34.32 31.82 35 31 35Z" fill="#FF4638"/>
<path d="M41 35C40.18 35 39.5 34.32 39.5 33.5V27.5C39.5 26.68 40.18 26 41 26C41.82 26 42.5 26.68 42.5 27.5V33.5C42.5 34.32 41.82 35 41 35Z" fill="#FF4638"/>
<defs>
<linearGradient id="paint0_linear_1304_5910" x1="30.5" y1="0.5" x2="30.5" y2="60.5" gradientUnits="userSpaceOnUse">
<stop stop-color="#FF4638" stop-opacity="0.05"/>
<stop offset="1" stop-color="#FF4638" stop-opacity="0.15"/>
</linearGradient>
</defs>
</svg>
