<svg width="274" height="281" viewBox="0 0 274 281" fill="none" xmlns="http://www.w3.org/2000/svg">
<circle cx="137" cy="143.587" r="137" fill="#0A0F61"/>
<path d="M118.898 189.65C113.112 199.052 101.651 213.182 82.514 217.688L86.9089 203.224C86.9089 203.224 69.9408 214.517 53.6406 217.688C56.8118 201.332 68.1054 184.42 68.1054 184.42L53.6406 188.815C58.1465 169.678 72.2774 158.217 81.6794 152.431L121.74 144.019L118.898 189.65Z" fill="#F2C94C"/>
<path d="M182.189 228.12C161.286 249.023 127.818 249.685 106.123 230.115C114.687 229.208 123.92 222.396 125.211 210.408C125.75 205.43 124.912 199.554 122.087 192.837L78.4896 149.24C71.7728 146.415 65.8974 145.577 60.9184 146.116C48.9312 147.407 42.1192 156.639 41.2118 165.203C21.6423 143.508 22.3035 110.041 43.2068 89.1373C55.5674 76.7767 72.3321 71.4962 88.4541 73.2973C95.8463 74.1243 103.101 76.4322 109.737 80.2389L191.087 161.589C194.894 168.225 197.206 175.483 198.029 182.872C199.831 198.994 194.549 215.759 182.189 228.12Z" fill="#4752F3"/>
<path d="M198.029 182.873C176.376 197.334 151.613 206.453 125.211 210.408C125.749 205.429 124.912 199.554 122.086 192.837L78.4891 149.24C71.7724 146.414 65.8969 145.577 60.918 146.115C64.8727 119.713 73.9927 94.9496 88.4532 73.2975C95.8454 74.1244 103.1 76.4324 109.736 80.239L191.086 161.589C194.894 168.226 197.205 175.484 198.029 182.873Z" fill="#0C18C5"/>
<path d="M122.085 192.838C156.019 185.045 188.247 167.935 214.682 141.5C253.508 102.674 272.224 51.3565 270.842 0.484277C219.97 -0.897652 168.653 17.8177 129.827 56.6437C103.391 83.0799 86.2821 115.307 78.4883 149.241L122.085 192.838Z" fill="#E3E8EC"/>
<path d="M151.88 78.6951C125.446 105.129 104.406 133.432 89.8215 160.57L78.4922 149.24C86.2817 115.308 103.396 83.0796 129.83 56.6452C168.655 17.8188 219.973 -0.895653 270.845 0.487229C233.55 12.6821 190.706 39.8696 151.88 78.6951Z" fill="#D5D8DB"/>
<path d="M259.496 71.0776C248.129 64.2485 236.855 55.4872 226.349 44.9815C221.275 39.9082 216.613 34.6616 212.377 29.3139C207.834 23.5752 203.778 17.7173 200.238 11.8342C222.873 3.65365 246.739 -0.128679 270.509 0.476779C270.622 0.483925 270.735 0.483925 270.844 0.487259L270.841 0.490594C271.487 24.3669 267.712 48.3379 259.496 71.0776Z" fill="#4752F3"/>
<path d="M263.386 164.268C263.383 164.264 263.386 164.26 263.383 164.257L263.386 164.268Z" fill="#4752F3"/>
<path d="M270.843 0.487137L270.84 0.490472C252.329 6.53885 232.45 16.2848 212.377 29.3138C207.834 23.575 203.778 17.7172 200.238 11.8341C222.872 3.65352 246.738 -0.128801 270.509 0.476657C270.621 0.483803 270.734 0.483803 270.843 0.487137Z" fill="#0C18C5"/>
<path d="M185.574 121.604C205.374 121.604 221.425 105.553 221.425 85.7533C221.425 65.9532 205.374 49.9022 185.574 49.9022C165.774 49.9022 149.723 65.9532 149.723 85.7533C149.723 105.553 165.774 121.604 185.574 121.604Z" fill="#4752F3"/>
<path d="M185.576 109.896C198.91 109.896 209.719 99.0868 209.719 85.7533C209.719 72.4197 198.91 61.6107 185.576 61.6107C172.243 61.6107 161.434 72.4197 161.434 85.7533C161.434 99.0868 172.243 109.896 185.576 109.896Z" fill="#A0D9F2"/>
</svg>
