<svg width="40" height="40" viewBox="0 0 40 40" fill="none" xmlns="http://www.w3.org/2000/svg">
<path d="M19.1666 36.25C9.74992 36.25 2.08325 28.5833 2.08325 19.1667C2.08325 9.75 9.74992 2.08333 19.1666 2.08333C28.5833 2.08333 36.2499 9.75 36.2499 19.1667C36.2499 28.5833 28.5833 36.25 19.1666 36.25ZM19.1666 4.58333C11.1166 4.58333 4.58325 11.1333 4.58325 19.1667C4.58325 27.2 11.1166 33.75 19.1666 33.75C27.2166 33.75 33.7499 27.2 33.7499 19.1667C33.7499 11.1333 27.2166 4.58333 19.1666 4.58333Z" fill="#2E2E2E"/>
<path d="M36.6666 37.9167C36.3499 37.9167 36.0332 37.8 35.7832 37.55L32.4499 34.2167C31.9666 33.7333 31.9666 32.9333 32.4499 32.45C32.9332 31.9667 33.7332 31.9667 34.2166 32.45L37.5499 35.7833C38.0332 36.2667 38.0332 37.0667 37.5499 37.55C37.2999 37.8 36.9832 37.9167 36.6666 37.9167Z" fill="#2E2E2E"/>
</svg>
