<svg width="44" height="50" viewBox="0 0 44 50" fill="none" xmlns="http://www.w3.org/2000/svg">
<path d="M22 10C13.735 10 7 16.735 7 25C7 33.265 13.735 40 22 40C30.265 40 37 33.265 37 25C37 16.735 30.265 10 22 10ZM29.17 21.55L20.665 30.055C20.455 30.265 20.17 30.385 19.87 30.385C19.57 30.385 19.285 30.265 19.075 30.055L14.83 25.81C14.395 25.375 14.395 24.655 14.83 24.22C15.265 23.785 15.985 23.785 16.42 24.22L19.87 27.67L27.58 19.96C28.015 19.525 28.735 19.525 29.17 19.96C29.605 20.395 29.605 21.1 29.17 21.55Z" fill="#0FCDA7"/>
</svg>
