<svg width="136" height="74" viewBox="0 0 136 74" fill="none" xmlns="http://www.w3.org/2000/svg">
<path d="M135.839 1.84837C135.897 1.0219 135.274 0.305118 134.447 0.247396C133.621 0.189674 132.904 0.81287 132.847 1.63935L135.839 1.84837ZM113.468 34.9848L112.918 33.5889L113.468 34.9848ZM75.9475 23.8988L77.3993 23.5221L75.9475 23.8988ZM82.8151 9.80439L83.2391 11.2433L82.8151 9.80439ZM95.4641 16.1945L94.2154 17.0256L95.4641 16.1945ZM74.9368 51.8146L75.4199 53.2348L74.9368 51.8146ZM40.2105 39.5217L38.7788 39.9688L40.2105 39.5217ZM45.0376 28.7661L44.3597 27.428L45.0376 28.7661ZM32.9463 71.4062L32.7412 69.9202L32.9463 71.4062ZM2.4775 60.8443L2.49494 59.3443C1.9414 59.3378 1.42932 59.6368 1.16283 60.1221C0.896346 60.6074 0.918793 61.2 1.22122 61.6638L2.4775 60.8443ZM13.0157 62.4675C13.844 62.4771 14.5233 61.8134 14.5329 60.985C14.5425 60.1565 13.8789 59.4771 13.0506 59.4674L13.0157 62.4675ZM7.32339 71.021C7.77594 71.7149 8.70526 71.9106 9.39908 71.458C10.0929 71.0054 10.2885 70.076 9.83596 69.382L7.32339 71.021ZM134.343 1.74386C132.847 1.63935 132.847 1.63892 132.847 1.63859C132.847 1.63861 132.847 1.63838 132.847 1.63842C132.847 1.6385 132.847 1.63896 132.847 1.63982C132.846 1.64152 132.846 1.64476 132.846 1.64953C132.845 1.65905 132.844 1.67466 132.842 1.69617C132.839 1.73919 132.833 1.80585 132.825 1.89479C132.808 2.07269 132.781 2.33964 132.739 2.68496C132.656 3.37584 132.516 4.37902 132.289 5.60946C131.835 8.07379 131.036 11.4314 129.66 15.0095C126.896 22.1987 121.898 30.0543 112.918 33.5889L114.017 36.3807C124.117 32.4048 129.556 23.64 132.46 16.0863C133.918 12.293 134.761 8.74856 135.239 6.15373C135.479 4.85459 135.628 3.7889 135.718 3.04332C135.762 2.6704 135.792 2.37721 135.811 2.17453C135.821 2.07318 135.828 1.99444 135.832 1.93964C135.834 1.91224 135.836 1.89082 135.837 1.87555C135.838 1.86792 135.838 1.86182 135.838 1.85729C135.839 1.85502 135.839 1.85314 135.839 1.85165C135.839 1.85091 135.839 1.85009 135.839 1.84972C135.839 1.849 135.839 1.84837 134.343 1.74386ZM112.918 33.5889C105.867 36.3646 97.6393 36.7505 90.8183 34.9265C83.972 33.0957 78.8591 29.1497 77.3993 23.5221L74.4956 24.2754C76.3312 31.3519 82.6286 35.8421 90.0436 37.8249C97.484 39.8146 106.369 39.3915 114.017 36.3807L112.918 33.5889ZM77.3993 23.5221C76.9786 21.9002 77.012 19.1743 77.9322 16.6411C78.8395 14.1438 80.5216 12.0441 83.2391 11.2433L82.3911 8.36544C78.491 9.51479 76.2364 12.5236 75.1128 15.6165C74.0022 18.6736 73.9105 22.0198 74.4956 24.2754L77.3993 23.5221ZM83.2391 11.2433C85.8289 10.4801 87.9801 11.0972 89.7979 12.3108C91.6647 13.557 93.1464 15.4191 94.2154 17.0256L96.7127 15.3634C95.5609 13.6325 93.8166 11.3864 91.4633 9.8154C89.0611 8.21173 85.9983 7.30241 82.3911 8.36544L83.2391 11.2433ZM94.2154 17.0256C98.4187 23.342 97.3787 30.2502 93.2633 36.4087C89.1214 42.6068 81.9574 47.842 74.4538 50.3944L75.4199 53.2348C83.475 50.4947 91.2084 44.8831 95.7573 38.0759C100.333 31.2292 101.777 22.9736 96.7127 15.3634L94.2154 17.0256ZM74.4538 50.3944C68.0249 52.5813 60.7283 52.8899 54.5831 51.0518C48.4666 49.2222 43.5895 45.3112 41.6422 39.0746L38.7788 39.9688C41.0897 47.37 46.8863 51.881 53.7237 53.9262C60.5324 55.9628 68.4699 55.599 75.4199 53.2348L74.4538 50.3944ZM41.6422 39.0746C41.0385 37.1411 41.1048 35.4201 41.7345 33.9661C42.365 32.5099 43.6303 31.161 45.7156 30.1043L44.3597 27.428C41.7844 28.733 39.9451 30.5489 38.9818 32.7736C38.0175 35.0004 38.0005 37.4763 38.7788 39.9688L41.6422 39.0746ZM45.7156 30.1043C47.573 29.163 49.2696 29.2086 50.883 29.8902C52.5625 30.5997 54.2138 32.0312 55.7632 33.9629L58.1031 32.0857C56.3935 29.9541 54.3682 28.1056 52.0501 27.1264C49.6661 26.1193 47.0444 26.0675 44.3597 27.428L45.7156 30.1043ZM55.7632 33.9629C60.8724 40.3332 59.2626 48.5739 53.9993 55.8693C48.743 63.1549 40.2156 68.8884 32.7412 69.9202L33.1514 72.8923C41.6212 71.723 50.8163 65.4086 56.4319 57.625C62.0404 49.8511 64.4519 40.0014 58.1031 32.0857L55.7632 33.9629ZM32.7412 69.9202C26.9523 70.7194 19.6847 68.26 13.659 65.4164C10.6883 64.0145 8.09746 62.5576 6.24892 61.4505C5.32554 60.8975 4.58963 60.4332 4.08671 60.1086C3.83531 59.9463 3.64228 59.819 3.51332 59.7332C3.44885 59.6902 3.4004 59.6577 3.36871 59.6363C3.35286 59.6256 3.3412 59.6177 3.33381 59.6126C3.33012 59.6101 3.32749 59.6083 3.32595 59.6073C3.32518 59.6068 3.32468 59.6064 3.32445 59.6063C3.32433 59.6062 3.32437 59.6062 3.32431 59.6062C3.32441 59.6062 3.32458 59.6063 2.4775 60.8443C1.63042 62.0822 1.63072 62.0824 1.6311 62.0827C1.63132 62.0828 1.63176 62.0831 1.63219 62.0834C1.63305 62.084 1.63419 62.0848 1.63559 62.0858C1.63841 62.0877 1.64233 62.0903 1.64731 62.0937C1.65728 62.1005 1.67156 62.1102 1.69006 62.1227C1.72707 62.1477 1.78098 62.1839 1.85106 62.2306C1.99122 62.3239 2.19615 62.459 2.46013 62.6294C2.98798 62.9701 3.75253 63.4524 4.70791 64.0245C6.61691 65.1678 9.29678 66.6752 12.379 68.1298C18.4591 70.999 26.4259 73.8207 33.1514 72.8923L32.7412 69.9202ZM2.46006 62.3443L13.0157 62.4675L13.0506 59.4674L2.49494 59.3443L2.46006 62.3443ZM1.22122 61.6638L7.32339 71.021L9.83596 69.382L3.73378 60.0248L1.22122 61.6638Z" fill="url(#paint0_linear_724_4437)"/>
<defs>
<linearGradient id="paint0_linear_724_4437" x1="100.401" y1="58.2818" x2="40.2027" y2="11.8908" gradientUnits="userSpaceOnUse">
<stop stop-color="white"/>
<stop offset="1" stop-color="#F2EEEE" stop-opacity="0.8"/>
</linearGradient>
</defs>
</svg>
