<svg width="186" height="63" viewBox="0 0 186 63" fill="none" xmlns="http://www.w3.org/2000/svg">
<rect x="0.5" y="0.5" width="185" height="62" rx="15.5" fill="white"/>
<rect x="0.5" y="0.5" width="185" height="62" rx="15.5" stroke="#4752F3"/>
<path d="M37.96 38.64C37.04 38.64 36.2133 38.48 35.48 38.16C34.76 37.8267 34.1933 37.3733 33.78 36.8C33.3667 36.2133 33.1533 35.54 33.14 34.78H35.08C35.1467 35.4333 35.4133 35.9867 35.88 36.44C36.36 36.88 37.0533 37.1 37.96 37.1C38.8267 37.1 39.5067 36.8867 40 36.46C40.5067 36.02 40.76 35.46 40.76 34.78C40.76 34.2467 40.6133 33.8133 40.32 33.48C40.0267 33.1467 39.66 32.8933 39.22 32.72C38.78 32.5467 38.1867 32.36 37.44 32.16C36.52 31.92 35.78 31.68 35.22 31.44C34.6733 31.2 34.2 30.8267 33.8 30.32C33.4133 29.8 33.22 29.1067 33.22 28.24C33.22 27.48 33.4133 26.8067 33.8 26.22C34.1867 25.6333 34.7267 25.18 35.42 24.86C36.1267 24.54 36.9333 24.38 37.84 24.38C39.1467 24.38 40.2133 24.7067 41.04 25.36C41.88 26.0133 42.3533 26.88 42.46 27.96H40.46C40.3933 27.4267 40.1133 26.96 39.62 26.56C39.1267 26.1467 38.4733 25.94 37.66 25.94C36.9 25.94 36.28 26.14 35.8 26.54C35.32 26.9267 35.08 27.4733 35.08 28.18C35.08 28.6867 35.22 29.1 35.5 29.42C35.7933 29.74 36.1467 29.9867 36.56 30.16C36.9867 30.32 37.58 30.5067 38.34 30.72C39.26 30.9733 40 31.2267 40.56 31.48C41.12 31.72 41.6 32.1 42 32.62C42.4 33.1267 42.6 33.82 42.6 34.7C42.6 35.38 42.42 36.02 42.06 36.62C41.7 37.22 41.1667 37.7067 40.46 38.08C39.7533 38.4533 38.92 38.64 37.96 38.64ZM55.2783 32.6C55.2783 32.9467 55.2583 33.3133 55.2183 33.7H46.4583C46.5249 34.78 46.8916 35.6267 47.5583 36.24C48.2383 36.84 49.0583 37.14 50.0183 37.14C50.8049 37.14 51.4583 36.96 51.9783 36.6C52.5116 36.2267 52.8849 35.7333 53.0983 35.12H55.0583C54.7649 36.1733 54.1783 37.0333 53.2983 37.7C52.4183 38.3533 51.3249 38.68 50.0183 38.68C48.9783 38.68 48.0449 38.4467 47.2183 37.98C46.4049 37.5133 45.7649 36.8533 45.2983 36C44.8316 35.1333 44.5983 34.1333 44.5983 33C44.5983 31.8667 44.8249 30.8733 45.2783 30.02C45.7316 29.1667 46.3649 28.5133 47.1783 28.06C48.0049 27.5933 48.9516 27.36 50.0183 27.36C51.0583 27.36 51.9783 27.5867 52.7783 28.04C53.5783 28.4933 54.1916 29.12 54.6183 29.92C55.0583 30.7067 55.2783 31.6 55.2783 32.6ZM53.3983 32.22C53.3983 31.5267 53.2449 30.9333 52.9383 30.44C52.6316 29.9333 52.2116 29.5533 51.6783 29.3C51.1583 29.0333 50.5783 28.9 49.9383 28.9C49.0183 28.9 48.2316 29.1933 47.5783 29.78C46.9383 30.3667 46.5716 31.18 46.4783 32.22H53.3983ZM67.6806 32.6C67.6806 32.9467 67.6606 33.3133 67.6206 33.7H58.8606C58.9273 34.78 59.294 35.6267 59.9606 36.24C60.6406 36.84 61.4606 37.14 62.4206 37.14C63.2073 37.14 63.8606 36.96 64.3806 36.6C64.914 36.2267 65.2873 35.7333 65.5006 35.12H67.4606C67.1673 36.1733 66.5806 37.0333 65.7006 37.7C64.8206 38.3533 63.7273 38.68 62.4206 38.68C61.3806 38.68 60.4473 38.4467 59.6206 37.98C58.8073 37.5133 58.1673 36.8533 57.7006 36C57.234 35.1333 57.0006 34.1333 57.0006 33C57.0006 31.8667 57.2273 30.8733 57.6806 30.02C58.134 29.1667 58.7673 28.5133 59.5806 28.06C60.4073 27.5933 61.354 27.36 62.4206 27.36C63.4606 27.36 64.3806 27.5867 65.1806 28.04C65.9806 28.4933 66.594 29.12 67.0206 29.92C67.4606 30.7067 67.6806 31.6 67.6806 32.6ZM65.8006 32.22C65.8006 31.5267 65.6473 30.9333 65.3406 30.44C65.034 29.9333 64.614 29.5533 64.0806 29.3C63.5606 29.0333 62.9806 28.9 62.3406 28.9C61.4206 28.9 60.634 29.1933 59.9806 29.78C59.3406 30.3667 58.974 31.18 58.8806 32.22H65.8006ZM89.555 24.66V38.5H87.735V28.18L83.135 38.5H81.855L77.235 28.16V38.5H75.415V24.66H77.375L82.495 36.1L87.615 24.66H89.555ZM97.4216 38.68C96.3949 38.68 95.4616 38.4467 94.6216 37.98C93.7949 37.5133 93.1416 36.8533 92.6616 36C92.1949 35.1333 91.9616 34.1333 91.9616 33C91.9616 31.88 92.2016 30.8933 92.6816 30.04C93.1749 29.1733 93.8416 28.5133 94.6816 28.06C95.5216 27.5933 96.4616 27.36 97.5016 27.36C98.5416 27.36 99.4816 27.5933 100.322 28.06C101.162 28.5133 101.822 29.1667 102.302 30.02C102.795 30.8733 103.042 31.8667 103.042 33C103.042 34.1333 102.788 35.1333 102.282 36C101.788 36.8533 101.115 37.5133 100.262 37.98C99.4082 38.4467 98.4616 38.68 97.4216 38.68ZM97.4216 37.08C98.0749 37.08 98.6882 36.9267 99.2616 36.62C99.8349 36.3133 100.295 35.8533 100.642 35.24C101.002 34.6267 101.182 33.88 101.182 33C101.182 32.12 101.008 31.3733 100.662 30.76C100.315 30.1467 99.8616 29.6933 99.3016 29.4C98.7416 29.0933 98.1349 28.94 97.4816 28.94C96.8149 28.94 96.2016 29.0933 95.6416 29.4C95.0949 29.6933 94.6549 30.1467 94.3216 30.76C93.9882 31.3733 93.8216 32.12 93.8216 33C93.8216 33.8933 93.9816 34.6467 94.3016 35.26C94.6349 35.8733 95.0749 36.3333 95.6216 36.64C96.1682 36.9333 96.7682 37.08 97.4216 37.08ZM107.255 29.32C107.575 28.6933 108.028 28.2067 108.615 27.86C109.215 27.5133 109.941 27.34 110.795 27.34V29.22H110.315C108.275 29.22 107.255 30.3267 107.255 32.54V38.5H105.435V27.54H107.255V29.32ZM122.895 32.6C122.895 32.9467 122.875 33.3133 122.835 33.7H114.075C114.142 34.78 114.509 35.6267 115.175 36.24C115.855 36.84 116.675 37.14 117.635 37.14C118.422 37.14 119.075 36.96 119.595 36.6C120.129 36.2267 120.502 35.7333 120.715 35.12H122.675C122.382 36.1733 121.795 37.0333 120.915 37.7C120.035 38.3533 118.942 38.68 117.635 38.68C116.595 38.68 115.662 38.4467 114.835 37.98C114.022 37.5133 113.382 36.8533 112.915 36C112.449 35.1333 112.215 34.1333 112.215 33C112.215 31.8667 112.442 30.8733 112.895 30.02C113.349 29.1667 113.982 28.5133 114.795 28.06C115.622 27.5933 116.569 27.36 117.635 27.36C118.675 27.36 119.595 27.5867 120.395 28.04C121.195 28.4933 121.809 29.12 122.235 29.92C122.675 30.7067 122.895 31.6 122.895 32.6ZM121.015 32.22C121.015 31.5267 120.862 30.9333 120.555 30.44C120.249 29.9333 119.829 29.5533 119.295 29.3C118.775 29.0333 118.195 28.9 117.555 28.9C116.635 28.9 115.849 29.1933 115.195 29.78C114.555 30.3667 114.189 31.18 114.095 32.22H121.015Z" fill="#4752F3"/>
<path d="M151.228 25.9358L156.792 31.5L151.228 37.0641" stroke="#4752F3" stroke-width="2" stroke-miterlimit="10" stroke-linecap="round" stroke-linejoin="round"/>
<path d="M141.208 31.5H156.636" stroke="#4752F3" stroke-width="1.5" stroke-miterlimit="10" stroke-linecap="round" stroke-linejoin="round"/>
</svg>
