<svg width="153" height="57" viewBox="0 0 153 57" fill="none" xmlns="http://www.w3.org/2000/svg">
<g filter="url(#filter0_b_750_4505)">
<rect width="153" height="57" rx="18" fill="white" fill-opacity="0.03"/>
<rect x="0.5" y="0.5" width="152" height="56" rx="17.5" stroke="url(#paint0_linear_750_4505)"/>
<rect x="0.5" y="0.5" width="152" height="56" rx="17.5" stroke="url(#paint1_linear_750_4505)"/>
<path d="M25.244 23.38V24.868H20.524V28.148H24.204V29.636H20.524V34.5H18.7V23.38H25.244ZM30.7584 34.644C29.9264 34.644 29.1744 34.4573 28.5024 34.084C27.8304 33.7 27.3024 33.1667 26.9184 32.484C26.5344 31.7907 26.3424 30.9907 26.3424 30.084C26.3424 29.188 26.5397 28.3933 26.9344 27.7C27.329 27.0067 27.8677 26.4733 28.5504 26.1C29.233 25.7267 29.9957 25.54 30.8384 25.54C31.681 25.54 32.4437 25.7267 33.1264 26.1C33.809 26.4733 34.3477 27.0067 34.7424 27.7C35.137 28.3933 35.3344 29.188 35.3344 30.084C35.3344 30.98 35.1317 31.7747 34.7264 32.468C34.321 33.1613 33.7664 33.7 33.0624 34.084C32.369 34.4573 31.601 34.644 30.7584 34.644ZM30.7584 33.06C31.2277 33.06 31.665 32.948 32.0704 32.724C32.4864 32.5 32.8224 32.164 33.0784 31.716C33.3344 31.268 33.4624 30.724 33.4624 30.084C33.4624 29.444 33.3397 28.9053 33.0944 28.468C32.849 28.02 32.5237 27.684 32.1184 27.46C31.713 27.236 31.2757 27.124 30.8064 27.124C30.337 27.124 29.8997 27.236 29.4944 27.46C29.0997 27.684 28.785 28.02 28.5504 28.468C28.3157 28.9053 28.1984 29.444 28.1984 30.084C28.1984 31.0333 28.4384 31.7693 28.9184 32.292C29.409 32.804 30.0224 33.06 30.7584 33.06ZM38.9615 22.66V34.5H37.1375V22.66H38.9615ZM43.1803 22.66V34.5H41.3563V22.66H43.1803ZM49.399 34.644C48.567 34.644 47.815 34.4573 47.143 34.084C46.471 33.7 45.943 33.1667 45.559 32.484C45.175 31.7907 44.983 30.9907 44.983 30.084C44.983 29.188 45.1803 28.3933 45.575 27.7C45.9697 27.0067 46.5083 26.4733 47.191 26.1C47.8737 25.7267 48.6363 25.54 49.479 25.54C50.3217 25.54 51.0843 25.7267 51.767 26.1C52.4497 26.4733 52.9883 27.0067 53.383 27.7C53.7777 28.3933 53.975 29.188 53.975 30.084C53.975 30.98 53.7723 31.7747 53.367 32.468C52.9617 33.1613 52.407 33.7 51.703 34.084C51.0097 34.4573 50.2417 34.644 49.399 34.644ZM49.399 33.06C49.8683 33.06 50.3057 32.948 50.711 32.724C51.127 32.5 51.463 32.164 51.719 31.716C51.975 31.268 52.103 30.724 52.103 30.084C52.103 29.444 51.9803 28.9053 51.735 28.468C51.4897 28.02 51.1643 27.684 50.759 27.46C50.3537 27.236 49.9163 27.124 49.447 27.124C48.9777 27.124 48.5403 27.236 48.135 27.46C47.7403 27.684 47.4257 28.02 47.191 28.468C46.9563 28.9053 46.839 29.444 46.839 30.084C46.839 31.0333 47.079 31.7693 47.559 32.292C48.0497 32.804 48.663 33.06 49.399 33.06ZM67.6181 25.684L64.8821 34.5H62.9621L61.1861 27.988L59.4101 34.5H57.4901L54.7381 25.684H56.5941L58.4341 32.772L60.3061 25.684H62.2101L64.0021 32.74L65.8261 25.684H67.6181ZM81.1215 25.684V34.5H79.2975V33.46C79.0095 33.8227 78.6308 34.1107 78.1615 34.324C77.7028 34.5267 77.2122 34.628 76.6895 34.628C75.9962 34.628 75.3722 34.484 74.8175 34.196C74.2735 33.908 73.8415 33.4813 73.5215 32.916C73.2122 32.3507 73.0575 31.668 73.0575 30.868V25.684H74.8655V30.596C74.8655 31.3853 75.0628 31.9933 75.4575 32.42C75.8522 32.836 76.3908 33.044 77.0735 33.044C77.7562 33.044 78.2948 32.836 78.6895 32.42C79.0948 31.9933 79.2975 31.3853 79.2975 30.596V25.684H81.1215ZM86.7281 34.644C86.0348 34.644 85.4108 34.5213 84.8561 34.276C84.3121 34.02 83.8801 33.6787 83.5601 33.252C83.2401 32.8147 83.0695 32.3293 83.0481 31.796H84.9361C84.9681 32.1693 85.1441 32.484 85.4641 32.74C85.7948 32.9853 86.2055 33.108 86.6961 33.108C87.2081 33.108 87.6028 33.012 87.8801 32.82C88.1681 32.6173 88.3121 32.3613 88.3121 32.052C88.3121 31.7213 88.1521 31.476 87.8321 31.316C87.5228 31.156 87.0268 30.98 86.3441 30.788C85.6828 30.6067 85.1441 30.4307 84.7281 30.26C84.3121 30.0893 83.9495 29.828 83.6401 29.476C83.3415 29.124 83.1921 28.66 83.1921 28.084C83.1921 27.6147 83.3308 27.188 83.6081 26.804C83.8855 26.4093 84.2801 26.1 84.7921 25.876C85.3148 25.652 85.9121 25.54 86.5841 25.54C87.5868 25.54 88.3921 25.796 89.0001 26.308C89.6188 26.8093 89.9495 27.4973 89.9921 28.372H88.1681C88.1361 27.9773 87.9761 27.6627 87.6881 27.428C87.4001 27.1933 87.0108 27.076 86.5201 27.076C86.0401 27.076 85.6721 27.1667 85.4161 27.348C85.1601 27.5293 85.0321 27.7693 85.0321 28.068C85.0321 28.3027 85.1175 28.5 85.2881 28.66C85.4588 28.82 85.6668 28.948 85.9121 29.044C86.1575 29.1293 86.5201 29.2413 87.0001 29.38C87.6401 29.5507 88.1628 29.7267 88.5681 29.908C88.9841 30.0787 89.3415 30.3347 89.6401 30.676C89.9388 31.0173 90.0935 31.4707 90.1041 32.036C90.1041 32.5373 89.9655 32.9853 89.6881 33.38C89.4108 33.7747 89.0161 34.084 88.5041 34.308C88.0028 34.532 87.4108 34.644 86.7281 34.644Z" fill="white"/>
<g clip-path="url(#clip0_750_4505)">
<path d="M133.433 14.5H109.567C109.019 14.5 108.493 14.7178 108.105 15.1054C107.718 15.493 107.5 16.0188 107.5 16.5669V40.4331C107.5 40.9812 107.718 41.507 108.105 41.8946C108.493 42.2822 109.019 42.5 109.567 42.5H133.433C133.981 42.5 134.507 42.2822 134.895 41.8946C135.282 41.507 135.5 40.9812 135.5 40.4331V16.5669C135.5 16.0188 135.282 15.493 134.895 15.1054C134.507 14.7178 133.981 14.5 133.433 14.5ZM115.846 38.3525H111.636V24.9806H115.846V38.3525ZM113.738 23.1275C113.26 23.1248 112.794 22.9807 112.399 22.7134C112.003 22.4461 111.695 22.0676 111.514 21.6256C111.334 21.1837 111.288 20.698 111.383 20.23C111.478 19.762 111.709 19.3327 112.048 18.9961C112.387 18.6595 112.817 18.4308 113.286 18.3389C113.755 18.2469 114.24 18.2959 114.681 18.4795C115.122 18.6631 115.498 18.9732 115.763 19.3706C116.028 19.768 116.169 20.235 116.168 20.7125C116.173 21.0322 116.113 21.3495 115.992 21.6456C115.871 21.9417 115.692 22.2104 115.465 22.4357C115.239 22.6611 114.969 22.8385 114.672 22.9573C114.375 23.0762 114.057 23.1341 113.738 23.1275ZM131.362 38.3642H127.154V31.0589C127.154 28.9044 126.239 28.2394 125.056 28.2394C123.808 28.2394 122.583 29.1806 122.583 31.1133V38.3642H118.373V24.9903H122.422V26.8433H122.476C122.883 26.0208 124.306 24.615 126.478 24.615C128.827 24.615 131.364 26.0092 131.364 30.0925L131.362 38.3642Z" fill="white"/>
</g>
</g>
<defs>
<filter id="filter0_b_750_4505" x="-7.2" y="-7.2" width="167.4" height="71.4" filterUnits="userSpaceOnUse" color-interpolation-filters="sRGB">
<feFlood flood-opacity="0" result="BackgroundImageFix"/>
<feGaussianBlur in="BackgroundImageFix" stdDeviation="3.6"/>
<feComposite in2="SourceAlpha" operator="in" result="effect1_backgroundBlur_750_4505"/>
<feBlend mode="normal" in="SourceGraphic" in2="effect1_backgroundBlur_750_4505" result="shape"/>
</filter>
<linearGradient id="paint0_linear_750_4505" x1="153.62" y1="-1.50001" x2="114.521" y2="25.374" gradientUnits="userSpaceOnUse">
<stop stop-color="white"/>
<stop offset="0.474634" stop-color="white" stop-opacity="0"/>
</linearGradient>
<linearGradient id="paint1_linear_750_4505" x1="2.68784" y1="57" x2="18.927" y2="51.7772" gradientUnits="userSpaceOnUse">
<stop stop-color="white"/>
<stop offset="1" stop-color="#171717" stop-opacity="0"/>
</linearGradient>
<clipPath id="clip0_750_4505">
<rect x="107.5" y="14.5" width="28" height="28" rx="4" fill="white"/>
</clipPath>
</defs>
</svg>
